<svg width="203" height="952" viewBox="0 0 203 952" fill="none"
    xmlns="http://www.w3.org/2000/svg">
    <path d="M51.588 23V6.2H59.412C61.364 6.2 62.884 6.576 63.972 7.328C65.06 8.08 65.604 9.152 65.604 10.544C65.604 11.92 65.092 12.992 64.068 13.76C63.044 14.512 61.684 14.888 59.988 14.888L60.444 13.88C62.332 13.88 63.796 14.256 64.836 15.008C65.876 15.76 66.396 16.848 66.396 18.272C66.396 19.744 65.836 20.904 64.716 21.752C63.612 22.584 61.996 23 59.868 23H51.588ZM55.452 20.12H59.724C60.62 20.12 61.3 19.944 61.764 19.592C62.228 19.24 62.46 18.696 62.46 17.96C62.46 17.256 62.228 16.736 61.764 16.4C61.3 16.048 60.62 15.872 59.724 15.872H55.452V20.12ZM55.452 13.16H59.076C59.924 13.16 60.564 12.992 60.996 12.656C61.428 12.304 61.644 11.792 61.644 11.12C61.644 10.448 61.428 9.944 60.996 9.608C60.564 9.256 59.924 9.08 59.076 9.08H55.452V13.16ZM82.4788 23V10.088H86.1988V23H82.4788ZM75.9748 14.216C77.6708 14.232 78.9428 14.616 79.7908 15.368C80.6548 16.104 81.0868 17.152 81.0868 18.512C81.0868 19.936 80.5988 21.048 79.6228 21.848C78.6468 22.632 77.2628 23.024 75.4708 23.024L69.1828 23V10.088H72.9028V14.216H75.9748ZM75.1348 20.36C75.8548 20.376 76.4068 20.224 76.7908 19.904C77.1748 19.584 77.3668 19.104 77.3668 18.464C77.3668 17.824 77.1748 17.368 76.7908 17.096C76.4068 16.808 75.8548 16.656 75.1348 16.64L72.9028 16.616V20.36H75.1348ZM96.2158 23.288C95.1598 23.288 94.1998 23.136 93.3358 22.832C92.4718 22.512 91.7198 22.024 91.0798 21.368C90.4558 20.696 89.9678 19.84 89.6158 18.8C89.2798 17.76 89.1118 16.52 89.1118 15.08C89.1118 14.056 89.1998 13.12 89.3758 12.272C89.5518 11.424 89.8158 10.656 90.1678 9.968C90.5198 9.264 90.9678 8.648 91.5118 8.12C92.0718 7.576 92.7198 7.128 93.4558 6.776C94.2078 6.408 95.0558 6.128 95.9998 5.936L102.144 4.712L102.648 7.928L97.2238 9.008C96.9038 9.072 96.5358 9.16 96.1198 9.272C95.7198 9.368 95.3118 9.52 94.8958 9.728C94.4958 9.936 94.1198 10.232 93.7678 10.616C93.4318 10.984 93.1598 11.472 92.9518 12.08C92.7438 12.672 92.6398 13.408 92.6398 14.288C92.6398 14.56 92.6478 14.768 92.6638 14.912C92.6958 15.056 92.7198 15.208 92.7358 15.368C92.7678 15.528 92.7838 15.776 92.7838 16.112L91.5838 14.936C91.9358 14.184 92.3838 13.544 92.9278 13.016C93.4878 12.488 94.1278 12.088 94.8478 11.816C95.5838 11.528 96.3998 11.384 97.2958 11.384C98.5118 11.384 99.5758 11.632 100.488 12.128C101.416 12.608 102.136 13.288 102.648 14.168C103.16 15.048 103.416 16.048 103.416 17.168C103.416 18.384 103.112 19.456 102.504 20.384C101.896 21.296 101.048 22.008 99.9598 22.52C98.8878 23.032 97.6398 23.288 96.2158 23.288ZM96.4078 20.384C97.0318 20.384 97.5838 20.248 98.0638 19.976C98.5438 19.688 98.9118 19.312 99.1678 18.848C99.4398 18.368 99.5758 17.832 99.5758 17.24C99.5758 16.664 99.4398 16.152 99.1678 15.704C98.9118 15.256 98.5438 14.904 98.0638 14.648C97.5838 14.392 97.0238 14.264 96.3838 14.264C95.7598 14.264 95.1998 14.392 94.7038 14.648C94.2078 14.888 93.8238 15.224 93.5518 15.656C93.2798 16.088 93.1438 16.592 93.1438 17.168C93.1438 17.76 93.2798 18.304 93.5518 18.8C93.8398 19.28 94.2238 19.664 94.7038 19.952C95.1998 20.24 95.7678 20.384 96.4078 20.384ZM112.268 23.192C110.796 23.192 109.5 22.904 108.38 22.328C107.276 21.752 106.42 20.968 105.812 19.976C105.204 18.968 104.9 17.824 104.9 16.544C104.9 15.248 105.196 14.104 105.788 13.112C106.396 12.104 107.22 11.32 108.26 10.76C109.3 10.184 110.476 9.896 111.788 9.896C113.052 9.896 114.188 10.168 115.196 10.712C116.22 11.24 117.028 12.008 117.62 13.016C118.212 14.008 118.508 15.2 118.508 16.592C118.508 16.736 118.5 16.904 118.484 17.096C118.468 17.272 118.452 17.44 118.436 17.6H107.948V15.416H116.468L115.028 16.064C115.028 15.392 114.892 14.808 114.62 14.312C114.348 13.816 113.972 13.432 113.492 13.16C113.012 12.872 112.452 12.728 111.812 12.728C111.172 12.728 110.604 12.872 110.108 13.16C109.628 13.432 109.252 13.824 108.98 14.336C108.708 14.832 108.572 15.424 108.572 16.112V16.688C108.572 17.392 108.724 18.016 109.028 18.56C109.348 19.088 109.788 19.496 110.348 19.784C110.924 20.056 111.596 20.192 112.364 20.192C113.052 20.192 113.652 20.088 114.164 19.88C114.692 19.672 115.172 19.36 115.604 18.944L117.596 21.104C117.004 21.776 116.26 22.296 115.364 22.664C114.468 23.016 113.436 23.192 112.268 23.192ZM128.986 23.192C127.898 23.192 126.946 22.952 126.13 22.472C125.314 21.992 124.674 21.264 124.21 20.288C123.762 19.296 123.538 18.048 123.538 16.544C123.538 15.024 123.754 13.776 124.186 12.8C124.618 11.824 125.242 11.096 126.058 10.616C126.874 10.136 127.85 9.896 128.986 9.896C130.202 9.896 131.29 10.176 132.25 10.736C133.226 11.28 133.994 12.048 134.554 13.04C135.13 14.032 135.418 15.2 135.418 16.544C135.418 17.904 135.13 19.08 134.554 20.072C133.994 21.064 133.226 21.832 132.25 22.376C131.29 22.92 130.202 23.192 128.986 23.192ZM121.354 27.656V10.088H124.93V12.728L124.858 16.568L125.098 20.384V27.656H121.354ZM128.338 20.12C128.962 20.12 129.514 19.976 129.994 19.688C130.49 19.4 130.882 18.992 131.17 18.464C131.474 17.92 131.626 17.28 131.626 16.544C131.626 15.792 131.474 15.152 131.17 14.624C130.882 14.096 130.49 13.688 129.994 13.4C129.514 13.112 128.962 12.968 128.338 12.968C127.714 12.968 127.154 13.112 126.658 13.4C126.162 13.688 125.77 14.096 125.482 14.624C125.194 15.152 125.05 15.792 125.05 16.544C125.05 17.28 125.194 17.92 125.482 18.464C125.77 18.992 126.162 19.4 126.658 19.688C127.154 19.976 127.714 20.12 128.338 20.12ZM138.042 23V10.088H141.762V17.768L148.05 10.088H151.482V23H147.762V15.32L141.498 23H138.042Z" fill="currentColor"/>
    <path d="M114.831 200.113H80.3825C79.8866 200.113 79.4824 199.712 79.4824 199.213C79.4824 198.714 79.8832 198.313 80.3825 198.313H114.831C115.327 198.313 115.731 198.714 115.731 199.213C115.731 199.712 115.331 200.113 114.831 200.113Z" fill="white"/>
    <path d="M120.711 176.251C120.215 176.251 119.811 175.85 119.811 175.351V143.229C119.811 142.733 120.211 142.329 120.711 142.329C121.21 142.329 121.611 142.729 121.611 143.229V175.351C121.611 175.847 121.21 176.251 120.711 176.251Z" fill="white"/>
    <path d="M86.3263 200.113H75.4547C74.9589 200.113 74.5547 199.712 74.5547 199.213C74.5547 198.714 74.9555 198.313 75.4547 198.313H86.3263C86.8222 198.313 87.2263 198.714 87.2263 199.213C87.2263 199.712 86.8256 200.113 86.3263 200.113Z" fill="white"/>
    <path d="M120.71 122.249C120.215 122.249 119.81 121.849 119.81 121.349V93.8425C119.81 90.8266 119.111 88.5986 117.732 87.2197C116.329 85.8204 114.709 85.8001 114.631 85.8001H90.3609C89.8651 85.8001 89.4609 85.3993 89.4609 84.9C89.4609 84.4008 89.8617 84 90.3609 84H114.624C114.702 84 117.012 83.9864 118.965 85.9087C120.717 87.6341 121.604 90.3002 121.604 93.8391V121.346C121.604 121.842 121.203 122.246 120.704 122.246L120.71 122.249Z" fill="white"/>
    <path d="M66.6481 117.878C66.1522 117.878 65.748 117.478 65.748 116.978V93.846C65.748 90.3104 66.6379 87.6409 68.387 85.9156C70.3365 83.9966 72.6392 84.0102 72.7444 84.0068H96.9941C97.49 84.0068 97.8942 84.4076 97.8942 84.9069C97.8942 85.4061 97.4934 85.8069 96.9941 85.8069H72.7309C72.6426 85.8069 71.0225 85.8273 69.6232 87.2232C68.2443 88.5987 67.5447 90.8266 67.5447 93.846V116.978C67.5447 117.474 67.1439 117.878 66.6447 117.878H66.6481Z" fill="white"/>
    <path d="M66.6481 136.748C66.1522 136.748 65.748 136.348 65.748 135.848V131.895C65.748 131.399 66.1488 130.995 66.6481 130.995C67.1473 130.995 67.5481 131.396 67.5481 131.895V135.848C67.5481 136.344 67.1473 136.748 66.6481 136.748Z" fill="white"/>
    <path d="M66.6481 156.878C66.1522 156.878 65.748 156.477 65.748 155.978V147.331C65.748 146.835 66.1488 146.431 66.6481 146.431C67.1473 146.431 67.5481 146.835 67.5481 147.331V155.978C67.5481 156.474 67.1473 156.878 66.6481 156.878Z" fill="white"/>
    <path d="M118.123 184.741C117.824 184.741 117.583 184.5 117.583 184.201V98.7431H69.7763V164.781C69.7763 165.08 69.5352 165.321 69.2363 165.321C68.9374 165.321 68.6963 165.08 68.6963 164.781V98.2031C68.6963 97.9042 68.9374 97.6631 69.2363 97.6631H118.123C118.422 97.6631 118.663 97.9042 118.663 98.2031V184.198C118.663 184.497 118.422 184.738 118.123 184.738V184.741Z" fill="white"/>
    <path d="M109.364 186.453H76.8916C76.5927 186.453 76.3516 186.212 76.3516 185.913C76.3516 185.614 76.5927 185.373 76.8916 185.373H109.364C109.663 185.373 109.904 185.614 109.904 185.913C109.904 186.212 109.663 186.453 109.364 186.453Z" fill="white"/>
    <path d="M72.7139 200.113C72.4897 200.113 70.2753 200.062 68.387 198.204C66.6345 196.479 65.748 193.813 65.748 190.274V117.484C65.748 116.988 66.1488 116.584 66.6481 116.584C67.1473 116.584 67.5481 116.985 67.5481 117.484V190.274C67.5481 193.31 68.2545 195.548 69.6504 196.924C71.0395 198.292 72.6799 198.316 72.7173 198.316H106.976C107.472 198.316 107.876 198.717 107.876 199.216C107.876 199.716 107.475 200.116 106.976 200.116H72.7139V200.113Z" fill="white"/>
    <path d="M66.6481 122.249C66.1522 122.249 65.748 121.848 65.748 121.349V93.8421C65.748 90.3065 66.6379 87.637 68.387 85.9117C70.3365 83.9893 72.6392 84.0063 72.7444 84.0029H96.9941C97.49 84.0029 97.8942 84.4037 97.8942 84.903C97.8942 85.4022 97.4934 85.803 96.9941 85.803H72.7309C72.6426 85.803 71.0225 85.8234 69.6232 87.2192C68.2443 88.5948 67.5447 90.8227 67.5447 93.8421V121.349C67.5447 121.845 67.1439 122.249 66.6447 122.249H66.6481Z" fill="white"/>
    <path d="M120.711 149.301C120.215 149.301 119.811 148.9 119.811 148.401V93.8425C119.811 90.8062 119.104 88.5681 117.709 87.1925C116.319 85.8238 114.679 85.8001 114.642 85.8001H90.3649C89.869 85.8001 89.4648 85.3993 89.4648 84.9C89.4648 84.4008 89.8656 84 90.3649 84H114.628C114.706 84 117.016 83.9864 118.969 85.9087C120.721 87.6341 121.608 90.3002 121.608 93.8391V148.398C121.608 148.893 121.207 149.298 120.708 149.298L120.711 149.301Z" fill="white"/>
    <path d="M120.711 156.878C120.215 156.878 119.811 156.477 119.811 155.978V147.331C119.811 146.835 120.211 146.431 120.711 146.431C121.21 146.431 121.611 146.835 121.611 147.331V155.978C121.611 156.474 121.21 156.878 120.711 156.878Z" fill="white"/>
    <path d="M117.916 186.453H69.2363C68.9374 186.453 68.6963 186.212 68.6963 185.913V98.207C68.6963 97.9081 68.9374 97.667 69.2363 97.667H118.123C118.422 97.667 118.663 97.9081 118.663 98.207V121.455C118.663 121.754 118.422 121.995 118.123 121.995C117.824 121.995 117.583 121.754 117.583 121.455V98.747H69.7763V185.373H117.916C118.215 185.373 118.456 185.615 118.456 185.913C118.456 186.212 118.215 186.453 117.916 186.453Z" fill="white"/>
    <path d="M66.0024 141.166C65.8767 141.166 65.7476 141.132 65.6322 141.061C65.3808 140.912 59.5188 137.305 59.7158 131.589C59.7124 131.327 59.7498 129.918 60.9283 128.848C62.0966 127.788 63.9374 127.435 66.4065 127.799C66.8005 127.856 67.0722 128.223 67.0145 128.614C66.9567 129.008 66.5865 129.279 66.1994 129.222C64.2057 128.93 62.7181 129.167 61.8962 129.911C61.1287 130.607 61.1558 131.548 61.1558 131.555C61.1558 131.575 61.1558 131.596 61.1558 131.616C60.9758 136.507 66.325 139.791 66.3794 139.825C66.719 140.029 66.8277 140.47 66.6239 140.813C66.488 141.037 66.2503 141.16 66.0092 141.16L66.0024 141.166Z" fill="white"/>
    <path d="M65.8055 157.775C65.7308 157.775 65.656 157.765 65.5813 157.741C65.1772 157.608 55.698 154.433 55.046 147.104C54.995 146.767 54.7233 144.509 56.452 142.831C58.2996 141.034 61.662 140.634 66.4508 141.639C66.838 141.72 67.0893 142.101 67.0078 142.491C66.9263 142.879 66.5493 143.133 66.1553 143.048C61.9405 142.162 58.9347 142.44 57.4675 143.853C56.1803 145.09 56.4588 146.822 56.469 146.896C56.469 146.917 56.4758 146.941 56.4758 146.958C57.026 153.37 65.9345 156.352 66.0262 156.379C66.4032 156.501 66.6104 156.909 66.4847 157.286C66.3862 157.588 66.1043 157.782 65.8021 157.782L65.8055 157.775Z" fill="white"/>
    <path d="M66.3017 172.79C66.2338 172.79 66.1625 172.779 66.0911 172.759C65.7549 172.657 57.8143 170.164 56.5475 162.869C56.4796 162.58 56.1569 160.899 57.4068 159.53C58.8842 157.91 61.8831 157.476 66.3255 158.236C66.7161 158.304 66.981 158.675 66.913 159.065C66.8451 159.456 66.4749 159.721 66.0843 159.653C61.2174 158.817 59.2645 159.646 58.4834 160.485C57.6683 161.364 57.94 162.492 57.9502 162.54C57.9536 162.557 57.9604 162.58 57.9638 162.597C59.0676 169.027 66.441 171.356 66.5157 171.38C66.8961 171.496 67.11 171.896 66.9945 172.277C66.8995 172.586 66.6142 172.786 66.3085 172.786L66.3017 172.79Z" fill="white"/>
    <path d="M66.8008 193.674C66.7329 193.674 66.6616 193.663 66.5903 193.643C55.3994 190.223 56.201 182.741 56.2417 182.425C56.5474 179.671 57.5527 176.057 62.8 176.628C64.0736 176.767 65.0925 177.32 65.8295 178.278C67.4869 180.431 67.0929 183.923 67.0216 184.449C67.0488 186.969 66.4137 188.634 65.1401 189.401C63.3468 190.478 61.0814 189.262 60.9864 189.208C60.6399 189.017 60.5109 188.579 60.7011 188.233C60.8913 187.886 61.3294 187.757 61.6758 187.947C61.703 187.961 63.323 188.824 64.403 188.168C65.2046 187.683 65.6121 186.385 65.585 184.412C65.585 184.375 65.585 184.334 65.5918 184.293C65.5951 184.259 66.074 180.944 64.6883 179.151C64.1925 178.509 63.5268 178.152 62.6438 178.057C58.9757 177.66 58.0044 179.582 57.6682 182.591C57.6376 182.867 57.0263 189.218 67.008 192.268C67.3884 192.383 67.6024 192.784 67.4869 193.164C67.3918 193.473 67.1065 193.674 66.8008 193.674Z" fill="white"/>
    <path d="M113.034 258.754C112.742 258.754 112.471 258.577 112.362 258.289L108.555 248.134C108.541 248.096 108.531 248.059 108.524 248.022C108.524 248.015 108.31 247.047 107.349 245.512C106.086 243.491 105.352 242.931 105.172 242.883C105.012 242.883 104.897 242.835 104.771 242.737C92.8366 233.587 84.8926 216.504 83.9145 214.33C81.622 213.026 80.4095 210.934 79.1291 208.719C78.3683 207.405 77.5804 206.047 76.5139 204.753C73.6033 201.22 72.2176 199.716 72.204 199.699C71.9357 199.407 71.9527 198.952 72.2448 198.683C72.5368 198.415 72.9919 198.432 73.2602 198.724C73.318 198.785 74.6833 200.266 77.6245 203.839C78.7657 205.225 79.5842 206.638 80.3721 208.003C81.639 210.193 82.736 212.085 84.8111 213.182C84.9572 213.26 85.0692 213.383 85.1338 213.532C85.2119 213.715 93.1796 231.937 105.484 241.474C105.97 241.572 106.908 242.088 108.568 244.751C109.546 246.317 109.852 247.4 109.917 247.675L113.707 257.786C113.846 258.156 113.659 258.574 113.286 258.713C113.204 258.744 113.119 258.761 113.034 258.761V258.754Z" fill="white"/>
    <path d="M114.695 201.961C114.654 201.961 114.617 201.961 114.576 201.951C114.186 201.886 113.921 201.516 113.985 201.122C114.145 200.161 117.911 177.783 122.028 171.594C122.021 171.465 122.011 171.285 121.997 171.061C121.447 160.961 121.749 153.76 122.897 149.648L120.316 146.377C120.071 146.064 120.122 145.613 120.435 145.368C120.747 145.124 121.199 145.175 121.444 145.487L124.256 149.05C124.402 149.233 124.449 149.481 124.378 149.705C123.563 152.375 122.734 158.233 123.434 170.983C123.458 171.428 123.475 171.713 123.475 171.805C123.475 171.954 123.427 172.101 123.342 172.223C119.358 177.833 115.442 201.122 115.405 201.356C115.347 201.706 115.042 201.958 114.698 201.958L114.695 201.961Z" fill="white"/>
    <path d="M158.44 256.574C158.158 256.574 157.889 256.407 157.774 256.129L148.241 233.187C142.382 221.914 145.754 187.944 145.792 187.608C146.413 181.875 144.005 175.419 142.569 171.564C142.331 170.925 142.117 170.355 141.951 169.873C140.782 166.514 138.045 158.644 137.437 151.349C136.887 144.753 134.92 142.373 133.619 140.8L133.419 140.559C132.193 139.061 130.4 136.29 128.946 129.514C128.325 126.617 127.394 125.585 126.718 125.225C126.114 124.905 125.624 125.092 125.604 125.102C125.557 125.123 125.492 125.14 125.444 125.15C121.084 125.897 121.498 129.446 121.559 129.85C121.62 130.241 121.352 130.608 120.961 130.672C120.571 130.733 120.204 130.469 120.139 130.078C120.129 130.024 119.355 124.783 125.132 123.747C125.434 123.639 126.314 123.411 127.34 123.927C128.742 124.637 129.758 126.417 130.356 129.215C131.741 135.685 133.405 138.27 134.536 139.652L134.73 139.89C136.146 141.602 138.283 144.193 138.87 151.237C139.464 158.352 142.158 166.099 143.309 169.407C143.476 169.883 143.683 170.44 143.917 171.068C145.401 175.045 147.884 181.699 147.222 187.771C146.454 194.832 144.596 223.123 149.531 232.558C149.541 232.579 149.548 232.596 149.558 232.616L159.105 255.589C159.258 255.956 159.085 256.377 158.718 256.529C158.626 256.567 158.535 256.584 158.443 256.584L158.44 256.574Z" fill="white"/>
    <path d="M61.1326 185.876C61.0987 185.876 61.0681 185.866 61.0375 185.849L59.4481 184.854C59.4039 184.826 59.3734 184.782 59.3666 184.731C59.3598 184.691 58.6839 180.5 61.856 179.066C61.9919 179.005 62.1346 179.005 62.2636 179.066C62.6134 179.233 62.7799 179.814 62.8002 179.878C62.8104 179.912 62.807 179.949 62.8002 179.983L62.5998 180.581C62.5761 180.635 61.1225 183.471 61.316 185.679C61.3228 185.747 61.2889 185.811 61.2311 185.849C61.204 185.866 61.17 185.876 61.136 185.876H61.1326ZM59.7062 184.592L60.9357 185.36C60.8949 183.122 62.2059 180.554 62.267 180.442L62.4368 179.926C62.3757 179.725 62.2432 179.457 62.1108 179.392C62.0734 179.375 62.0462 179.375 62.0055 179.392C59.3156 180.608 59.6383 184.028 59.7096 184.589L59.7062 184.592Z" fill="white"/>
    <path d="M86.3905 206.56C86.3497 206.56 86.309 206.546 86.275 206.519C86.2003 206.454 86.1867 206.342 86.2512 206.264C86.2988 206.206 90.9245 200.633 96.2873 199.145C96.3858 199.118 96.4809 199.176 96.5081 199.271C96.5353 199.366 96.4775 199.465 96.3824 199.492C91.1283 200.952 86.5739 206.437 86.5297 206.495C86.4924 206.539 86.4414 206.56 86.3905 206.56Z" fill="white"/>
    <path d="M111.897 208.597C111.808 208.597 111.73 208.533 111.72 208.444C111.683 208.19 110.847 202.205 113.856 199.047C113.924 198.976 114.04 198.972 114.111 199.04C114.182 199.108 114.186 199.224 114.118 199.295C111.231 202.328 112.07 208.332 112.077 208.394C112.09 208.492 112.022 208.584 111.924 208.597C111.917 208.597 111.907 208.597 111.897 208.597Z" fill="white"/>
    <path d="M126.854 151.087C125.889 151.087 124.711 150.765 123.566 149.624C123.495 149.552 123.495 149.44 123.566 149.369C123.634 149.298 123.75 149.298 123.821 149.369C126.232 151.77 128.705 150.303 128.81 150.238C128.895 150.187 129.004 150.211 129.058 150.296C129.109 150.381 129.085 150.49 129 150.544C128.983 150.554 128.097 151.087 126.857 151.087H126.854Z" fill="white"/>
    <path d="M129.643 136.293C127.357 136.293 126.219 135.139 126.165 135.077C126.148 135.06 126.135 135.04 126.128 135.016C125.72 133.909 124.773 131.308 124.773 131.077C123.927 127.714 128.21 126.295 128.254 126.281C128.349 126.25 128.451 126.305 128.478 126.396C128.509 126.492 128.458 126.593 128.363 126.624C128.2 126.678 124.355 127.955 125.126 131.032C125.156 131.284 125.948 133.488 126.447 134.853C126.661 135.054 128.264 136.412 131.249 135.747C131.348 135.726 131.443 135.787 131.463 135.882C131.484 135.981 131.423 136.076 131.328 136.096C130.709 136.236 130.146 136.29 129.64 136.29L129.643 136.293Z" fill="white"/>
    <circle cx="101.125" cy="147.125" r="89.125" stroke="#C9C8D3" stroke-width="2"/>
    <path d="M102.561 320.331C101.975 320.916 101.025 320.916 100.439 320.331L90.8934 310.785C90.3076 310.199 90.3076 309.249 90.8934 308.663C91.4792 308.078 92.4289 308.078 93.0147 308.663L101.5 317.149L109.985 308.663C110.571 308.078 111.521 308.078 112.107 308.663C112.692 309.249 112.692 310.199 112.107 310.785L102.561 320.331ZM103 286V319.27H100V286H103Z" fill="currentColor"/>
    <path d="M56.628 369.558C55.3 369.558 54.068 369.342 52.932 368.91C51.812 368.478 50.836 367.87 50.004 367.086C49.188 366.302 48.548 365.382 48.084 364.326C47.636 363.27 47.412 362.118 47.412 360.87C47.412 359.622 47.636 358.47 48.084 357.414C48.548 356.358 49.196 355.438 50.028 354.654C50.86 353.87 51.836 353.262 52.956 352.83C54.076 352.398 55.292 352.182 56.604 352.182C57.932 352.182 59.148 352.398 60.252 352.83C61.372 353.262 62.34 353.87 63.156 354.654C63.988 355.438 64.636 356.358 65.1 357.414C65.564 358.454 65.796 359.606 65.796 360.87C65.796 362.118 65.564 363.278 65.1 364.35C64.636 365.406 63.988 366.326 63.156 367.11C62.34 367.878 61.372 368.478 60.252 368.91C59.148 369.342 57.94 369.558 56.628 369.558ZM56.604 366.246C57.356 366.246 58.044 366.118 58.668 365.862C59.308 365.606 59.868 365.238 60.348 364.758C60.828 364.278 61.196 363.71 61.452 363.054C61.724 362.398 61.86 361.67 61.86 360.87C61.86 360.07 61.724 359.342 61.452 358.686C61.196 358.03 60.828 357.462 60.348 356.982C59.884 356.502 59.332 356.134 58.692 355.878C58.052 355.622 57.356 355.494 56.604 355.494C55.852 355.494 55.156 355.622 54.516 355.878C53.892 356.134 53.34 356.502 52.86 356.982C52.38 357.462 52.004 358.03 51.732 358.686C51.476 359.342 51.348 360.07 51.348 360.87C51.348 361.654 51.476 362.382 51.732 363.054C52.004 363.71 52.372 364.278 52.836 364.758C53.316 365.238 53.876 365.606 54.516 365.862C55.156 366.118 55.852 366.246 56.604 366.246ZM77.1911 369.558C77.1591 369.558 77.0711 369.558 76.9271 369.558C76.7831 369.558 76.6471 369.558 76.5191 369.558C76.3911 369.558 76.3031 369.558 76.2551 369.558C73.4551 369.51 71.2871 368.91 69.7511 367.758C68.2151 366.606 67.4471 364.942 67.4471 362.766C67.4471 360.622 68.2071 358.99 69.7271 357.87C71.2631 356.734 73.4631 356.158 76.3271 356.142C76.3591 356.142 76.4391 356.142 76.5671 356.142C76.7111 356.142 76.8471 356.142 76.9751 356.142C77.1031 356.142 77.1831 356.142 77.2151 356.142C80.1111 356.142 82.3511 356.702 83.9351 357.822C85.5351 358.942 86.3351 360.59 86.3351 362.766C86.3351 364.974 85.5351 366.662 83.9351 367.83C82.3511 368.982 80.1031 369.558 77.1911 369.558ZM77.0711 366.678C78.3991 366.678 79.4791 366.542 80.3111 366.27C81.1431 365.982 81.7511 365.55 82.1351 364.974C82.5351 364.382 82.7351 363.646 82.7351 362.766C82.7351 361.918 82.5431 361.222 82.1591 360.678C81.7751 360.118 81.1591 359.702 80.3111 359.43C79.4791 359.158 78.3991 359.022 77.0711 359.022C77.0231 359.022 76.9271 359.022 76.7831 359.022C76.6391 359.022 76.5431 359.022 76.4951 359.022C75.2151 359.022 74.1751 359.166 73.3751 359.454C72.5751 359.742 71.9911 360.158 71.6231 360.702C71.2551 361.246 71.0711 361.934 71.0711 362.766C71.0711 363.63 71.2551 364.35 71.6231 364.926C71.9911 365.502 72.5751 365.934 73.3751 366.222C74.1751 366.51 75.2151 366.662 76.4951 366.678C76.5431 366.678 76.6391 366.678 76.7831 366.678C76.9271 366.678 77.0231 366.678 77.0711 366.678ZM75.1751 373.926V351.462H78.6071V373.926H75.1751ZM94.9183 369.462C93.5423 369.462 92.3183 369.174 91.2463 368.598C90.1903 368.022 89.3503 367.238 88.7263 366.246C88.1183 365.238 87.8143 364.094 87.8143 362.814C87.8143 361.518 88.1183 360.374 88.7263 359.382C89.3503 358.374 90.1903 357.59 91.2463 357.03C92.3183 356.454 93.5423 356.166 94.9183 356.166C96.2783 356.166 97.4943 356.454 98.5663 357.03C99.6383 357.59 100.478 358.366 101.086 359.358C101.694 360.35 101.998 361.502 101.998 362.814C101.998 364.094 101.694 365.238 101.086 366.246C100.478 367.238 99.6383 368.022 98.5663 368.598C97.4943 369.174 96.2783 369.462 94.9183 369.462ZM94.9183 366.39C95.5423 366.39 96.1023 366.246 96.5983 365.958C97.0943 365.67 97.4863 365.262 97.7743 364.734C98.0623 364.19 98.2063 363.55 98.2063 362.814C98.2063 362.062 98.0623 361.422 97.7743 360.894C97.4863 360.366 97.0943 359.958 96.5983 359.67C96.1023 359.382 95.5423 359.238 94.9183 359.238C94.2943 359.238 93.7343 359.382 93.2383 359.67C92.7423 359.958 92.3423 360.366 92.0383 360.894C91.7503 361.422 91.6063 362.062 91.6063 362.814C91.6063 363.55 91.7503 364.19 92.0383 364.734C92.3423 365.262 92.7423 365.67 93.2383 365.958C93.7343 366.246 94.2943 366.39 94.9183 366.39ZM112.181 369.462C111.093 369.462 110.141 369.222 109.325 368.742C108.509 368.262 107.869 367.534 107.405 366.558C106.957 365.566 106.733 364.318 106.733 362.814C106.733 361.294 106.949 360.046 107.381 359.07C107.813 358.094 108.437 357.366 109.253 356.886C110.069 356.406 111.045 356.166 112.181 356.166C113.397 356.166 114.485 356.446 115.445 357.006C116.421 357.55 117.189 358.318 117.749 359.31C118.325 360.302 118.613 361.47 118.613 362.814C118.613 364.174 118.325 365.35 117.749 366.342C117.189 367.334 116.421 368.102 115.445 368.646C114.485 369.19 113.397 369.462 112.181 369.462ZM104.549 373.926V356.358H108.125V358.998L108.053 362.838L108.293 366.654V373.926H104.549ZM111.533 366.39C112.157 366.39 112.709 366.246 113.189 365.958C113.685 365.67 114.077 365.262 114.365 364.734C114.669 364.19 114.821 363.55 114.821 362.814C114.821 362.062 114.669 361.422 114.365 360.894C114.077 360.366 113.685 359.958 113.189 359.67C112.709 359.382 112.157 359.238 111.533 359.238C110.909 359.238 110.349 359.382 109.853 359.67C109.357 359.958 108.965 360.366 108.677 360.894C108.389 361.422 108.245 362.062 108.245 362.814C108.245 363.55 108.389 364.19 108.677 364.734C108.965 365.262 109.357 365.67 109.853 365.958C110.349 366.246 110.909 366.39 111.533 366.39ZM121.238 369.27V356.358H125.15L130.022 365.19H128.462L133.67 356.358H137.174L137.222 369.27H133.838V360.198L134.414 360.582L129.974 368.022H128.39L123.926 360.318L124.622 360.15V369.27H121.238ZM140.808 369.27V356.358H144.528V364.038L150.816 356.358H154.248V369.27H150.528V361.59L144.264 369.27H140.808Z" fill="currentColor"/>
    <path d="M80.9677 541.099C80.7364 541.099 78.4509 541.047 76.502 539.129C74.6932 537.348 73.7783 534.597 73.7783 530.944V482.136C73.7783 481.625 74.192 481.207 74.7072 481.207C75.2225 481.207 75.6362 481.621 75.6362 482.136V530.944C75.6362 534.078 76.3653 536.388 77.8059 537.808C79.2396 539.22 80.9292 539.245 80.9712 539.245H94.2564C94.7682 539.245 95.1853 539.658 95.1853 540.174C95.1853 540.689 94.7717 541.103 94.2564 541.103H80.9677V541.099Z" fill="white"/>
    <path d="M121.416 541.099H110.195C109.684 541.099 109.267 540.682 109.267 540.17C109.267 539.659 109.68 539.242 110.195 539.242H121.416C121.928 539.242 122.345 539.655 122.345 540.17C122.345 540.686 121.931 541.099 121.416 541.099Z" fill="white"/>
    <path d="M74.7033 460.74C74.1915 460.74 73.7744 460.326 73.7744 459.811V431.421C73.7744 427.772 74.6928 425.017 76.498 423.236C78.5206 421.252 80.8937 421.27 80.9989 421.27H106.027C106.539 421.27 106.956 421.684 106.956 422.199C106.956 422.714 106.542 423.128 106.027 423.128H80.9848C80.8937 423.128 79.2217 423.149 77.7775 424.589C76.3543 426.009 75.6322 428.309 75.6322 431.425V459.814C75.6322 460.326 75.2186 460.743 74.7033 460.743V460.74Z" fill="white"/>
    <path d="M130.505 456.225C129.993 456.225 129.576 455.811 129.576 455.296V431.421C129.576 428.288 128.847 425.978 127.406 424.558C125.962 423.135 124.23 423.114 124.241 423.121H99.1848C98.673 423.121 98.2559 422.707 98.2559 422.192C98.2559 421.677 98.6695 421.27 99.1848 421.27H124.227C124.304 421.27 126.691 421.252 128.71 423.24C130.519 425.021 131.434 427.772 131.434 431.425V455.299C131.434 455.811 131.02 456.228 130.505 456.228V456.225Z" fill="white"/>
    <path d="M130.504 475.7C129.992 475.7 129.575 475.286 129.575 474.771V470.691C129.575 470.179 129.989 469.762 130.504 469.762C131.019 469.762 131.433 470.176 131.433 470.691V474.771C131.433 475.283 131.019 475.7 130.504 475.7Z" fill="white"/>
    <path d="M130.504 496.476C129.992 496.476 129.575 496.062 129.575 495.547V486.623C129.575 486.111 129.989 485.694 130.504 485.694C131.019 485.694 131.433 486.107 131.433 486.623V495.547C131.433 496.059 131.019 496.476 130.504 496.476Z" fill="white"/>
    <path d="M119.929 527.001H77.3747C77.0662 527.001 76.8174 526.752 76.8174 526.444V435.926C76.8174 435.617 77.0662 435.369 77.3747 435.369H127.827C128.135 435.369 128.384 435.617 128.384 435.926V504.641C128.384 504.949 128.135 505.198 127.827 505.198C127.518 505.198 127.269 504.949 127.269 504.641V436.48H77.9286V525.886H119.926C120.234 525.886 120.483 526.135 120.483 526.444C120.483 526.752 120.234 527.001 119.926 527.001H119.929Z" fill="white"/>
    <path d="M50.7412 593.861C50.6536 593.861 50.5694 593.847 50.4818 593.816C50.0997 593.672 49.9034 593.244 50.0471 592.862C50.1803 592.508 63.2236 557.217 59.2731 543.455C58.884 542.768 56.5775 538.362 55.0177 527.947C54.4954 524.456 53.8048 521.017 53.1388 517.694C51.6421 510.239 50.4608 504.35 51.954 501.738C53.8188 498.475 57.0543 487.139 57.2996 483.731C57.3557 482.967 57.3312 482.21 57.3101 481.474C57.2365 478.975 57.1594 476.388 60.3317 474.169C61.3693 473.443 62.8065 471.228 64.3243 468.886C67.139 464.54 70.3324 459.615 73.8132 459.292C75.1136 459.173 76.3335 459.695 77.4342 460.849C77.5639 460.985 77.6374 461.171 77.6374 461.361V476.076C77.6374 476.1 77.6374 476.121 77.6374 476.146C76.5788 487.317 64.128 486.469 64.0053 486.462C63.5952 486.431 63.2937 486.073 63.3253 485.666C63.3568 485.26 63.7038 484.951 64.121 484.983C64.5731 485.018 75.2153 485.719 76.1582 476.041V461.669C75.4431 460.992 74.7175 460.698 73.9569 460.768C71.1912 461.028 68.075 465.833 65.5722 469.693C63.9036 472.269 62.4594 474.495 61.187 475.385C58.6702 477.148 58.7263 479.038 58.7964 481.432C58.8209 482.203 58.842 482.999 58.7824 483.84C58.523 487.454 55.2245 499.015 53.244 502.478C52.0276 504.609 53.2755 510.824 54.5935 517.407C55.263 520.748 55.9571 524.204 56.4864 527.734C58.1058 538.541 60.5736 542.74 60.5981 542.782C60.6297 542.835 60.6577 542.898 60.6752 542.957C64.8431 557.129 51.9926 591.912 51.4422 593.385C51.3301 593.683 51.0461 593.868 50.7482 593.868L50.7412 593.861Z" fill="white"/>
    <path d="M94.2558 593.862C94.2208 593.862 94.1822 593.862 94.1472 593.855C93.7405 593.795 93.4601 593.416 93.5197 593.013C93.9333 590.192 97.698 565.349 102.15 561.928C102.476 561.679 102.942 561.739 103.191 562.065C103.44 562.391 103.38 562.857 103.054 563.106C99.6891 565.693 96.0891 585.729 94.9849 593.231C94.9323 593.599 94.6134 593.865 94.2523 593.865L94.2558 593.862Z" fill="white"/>
    <path d="M113.623 548.601C113.444 548.601 113.262 548.538 113.122 548.404C112.82 548.128 112.799 547.658 113.08 547.356L119.571 540.307C119.848 540.006 120.318 539.988 120.62 540.265C120.921 540.542 120.942 541.012 120.662 541.313L114.17 548.362C114.023 548.52 113.823 548.601 113.623 548.601Z" fill="white"/>
    <path d="M120.981 593.862C120.809 593.862 120.637 593.802 120.497 593.683C119.379 592.719 109.533 584.152 108.758 580.797C108.025 577.614 101.47 560.905 100.03 557.82L99.8859 557.515C98.957 555.531 98.61 554.788 98.2384 552.688C98.1613 552.246 97.7442 551.093 97.2604 549.761C94.9119 543.28 92.8087 536.753 95.0977 534.362C95.1678 534.292 96.7486 532.694 99.651 532.901C103.524 533.171 107.741 536.392 112.186 542.477C112.218 542.519 112.242 542.565 112.263 542.61C112.379 542.87 115.092 548.906 115.758 552.317C117.451 555.584 120.357 560.267 121.622 560.628C122.015 560.74 122.243 561.15 122.131 561.546C122.018 561.939 121.608 562.167 121.212 562.054C118.86 561.381 115.113 554.311 114.387 552.902C114.356 552.839 114.331 552.769 114.317 552.699C113.756 549.67 111.25 543.988 110.938 543.294C105.792 536.266 101.933 534.573 99.5985 534.39C97.3796 534.222 96.2088 535.354 96.1598 535.403C94.323 537.317 97.2499 545.387 98.6556 549.26C99.2059 550.774 99.602 551.868 99.7001 552.436C100.037 554.343 100.314 554.932 101.228 556.891L101.372 557.196C102.827 560.309 109.455 577.229 110.202 580.468C110.707 582.652 117.213 588.898 121.465 592.561C121.777 592.828 121.808 593.297 121.542 593.609C121.395 593.781 121.188 593.865 120.981 593.865V593.862Z" fill="white"/>
    <path d="M122.464 570.366C122.096 570.366 121.777 570.096 121.728 569.721C121.693 569.451 120.858 562.994 121.728 556.418C122.502 550.551 121.23 538.012 120.676 533.676C120.319 530.879 118.198 521.155 114.223 510.464C113.031 507.582 102.736 482.039 111.11 478.197C111.422 478.015 112.793 477.328 114.685 477.994C118.026 479.172 120.963 483.711 123.421 491.493C123.761 492.369 132.075 514.008 132.696 516.114L132.762 516.339C135.777 526.662 139.391 531.618 141.89 533.96C142.188 534.24 142.206 534.71 141.925 535.008C141.645 535.306 141.175 535.323 140.877 535.043C138.241 532.575 134.445 527.398 131.339 516.752L131.276 516.531C130.673 514.481 122.113 492.205 122.026 491.98C119.134 482.831 116.175 480.09 114.195 479.393C112.793 478.898 111.878 479.466 111.871 479.47C111.836 479.494 111.801 479.512 111.762 479.529C105.708 482.228 112.488 502.38 115.607 509.917C120.073 521.937 121.903 531.562 122.152 533.483C122.173 533.641 124.16 549.348 123.203 556.611C122.362 562.987 123.196 569.462 123.203 569.525C123.256 569.931 122.972 570.303 122.565 570.356C122.534 570.359 122.499 570.363 122.467 570.363L122.464 570.366Z" fill="white"/>
    <path d="M160.18 539.448C159.809 539.448 159.49 539.171 159.444 538.796C159.216 536.885 156.475 534.509 154.474 532.774C153.569 531.989 152.788 531.312 152.321 530.758L152.027 530.408C150.393 528.466 145.416 522.552 141.868 521.224C138.538 519.972 135.531 524.792 135.503 524.841C135.289 525.188 134.833 525.3 134.483 525.087C134.132 524.873 134.024 524.417 134.237 524.067C134.385 523.825 137.911 518.153 142.391 519.832C146.303 521.297 151.287 527.221 153.163 529.451L153.454 529.798C153.846 530.264 154.589 530.905 155.448 531.649C157.755 533.65 160.622 536.139 160.92 538.617C160.969 539.024 160.678 539.392 160.271 539.441C160.24 539.444 160.212 539.448 160.184 539.448H160.18Z" fill="white"/>
    <path d="M185.163 592.625C184.76 592.625 184.427 592.299 184.42 591.896L183.803 550.715C183.688 540.066 172.769 539.947 172.302 539.947C172.008 539.947 171.738 539.772 171.622 539.498C169.53 534.654 165.036 535.099 164.847 535.116C164.78 535.123 164.706 535.123 164.64 535.113L155.61 533.613C155.207 533.546 154.934 533.164 155 532.761C155.067 532.358 155.449 532.084 155.852 532.151L164.794 533.634C165.614 533.585 170.385 533.508 172.79 538.482C175.138 538.643 185.174 539.961 185.286 550.694L185.903 591.871C185.91 592.281 185.581 592.618 185.174 592.625H185.163Z" fill="white"/>
    <path d="M136.067 474.649C135.657 474.649 135.324 474.316 135.324 473.906V471.557C135.324 471.33 135.429 471.112 135.608 470.972C138.156 468.978 138.538 464.736 138.542 464.694C139.331 456.923 134.784 456.032 134.739 456.025C134.7 456.018 131.991 455.521 130.637 456.726C130.049 457.252 129.8 458.041 129.88 459.135C129.884 459.187 129.88 459.236 129.877 459.289C129.586 461.41 129.232 467.351 131.048 469.332C131.461 469.784 131.941 469.977 132.569 469.948C132.983 469.92 133.326 470.243 133.347 470.653C133.368 471.063 133.053 471.41 132.643 471.431C131.577 471.484 130.669 471.116 129.954 470.334C127.409 467.558 128.247 460.312 128.398 459.166C128.303 457.638 128.727 456.443 129.656 455.615C131.559 453.926 134.868 454.539 135.009 454.567C135.058 454.574 140.947 455.717 140.021 464.831C140.007 465.009 139.618 469.447 136.81 471.904V473.906C136.81 474.316 136.477 474.649 136.067 474.649Z" fill="white"/>
    <path d="M141.385 492.828C141.167 492.828 140.95 492.733 140.806 492.551C140.55 492.232 140.603 491.762 140.922 491.506C142.962 489.873 144.774 484.688 142.191 478.743C139.895 473.464 133.473 475.396 133.2 475.48C133.13 475.501 133.053 475.515 132.979 475.515C131.717 475.515 130.75 475.89 130.105 476.626C128.787 478.137 129.102 480.776 129.106 480.804C129.162 481.211 128.878 481.586 128.471 481.639C128.065 481.695 127.689 481.411 127.637 481.004C127.619 480.871 127.209 477.688 128.986 475.652C129.905 474.6 131.209 474.057 132.863 474.032C135.647 473.198 141.315 473.012 143.551 478.151C146.173 484.176 144.708 490.377 141.851 492.663C141.714 492.772 141.549 492.824 141.388 492.824L141.385 492.828Z" fill="white"/>
    <path d="M134.651 487.451C132.895 487.451 131.023 487.135 129.666 485.929C128.422 484.829 127.802 483.136 127.816 480.903C127.816 480.594 128.043 480.36 128.377 480.349C128.685 480.349 128.93 480.601 128.93 480.91C128.916 482.81 129.414 484.219 130.406 485.099C132.302 486.781 135.696 486.35 137.722 486.091L137.855 486.073C140.435 485.747 140.873 484.951 140.876 484.944C140.978 484.654 141.287 484.517 141.578 484.618C141.868 484.72 142.016 485.053 141.914 485.344C141.833 485.579 141.266 486.764 137.995 487.177L137.862 487.195C136.972 487.307 135.836 487.451 134.651 487.451Z" fill="white"/>
    <path d="M134.14 523.45C134.003 523.45 133.87 523.415 133.748 523.335C133.4 523.117 133.295 522.658 133.513 522.311C133.562 522.23 138.613 514.21 143.618 507.995C148.228 502.271 142.35 494.721 142.29 494.647C139.261 490.76 133.464 494.752 133.404 494.794C133.369 494.819 133.334 494.84 133.295 494.857C131.662 495.625 130.663 496.638 130.326 497.869C129.779 499.87 131.108 501.847 131.119 501.868C131.164 501.938 131.974 503.155 133.825 503.505C135.931 503.905 138.613 502.997 141.575 500.88C141.908 500.641 142.371 500.718 142.609 501.051C142.847 501.384 142.77 501.847 142.437 502.085C139.069 504.494 136.058 505.458 133.499 504.953C131.024 504.466 129.923 502.755 129.878 502.681C129.822 502.601 128.167 500.133 128.893 497.479C129.345 495.825 130.593 494.503 132.605 493.543C135.044 491.86 140.376 489.775 143.457 493.732C143.52 493.813 150.121 502.292 144.775 508.928C139.826 515.076 134.82 523.023 134.771 523.1C134.631 523.324 134.389 523.447 134.144 523.447L134.14 523.45Z" fill="white"/>
    <path d="M130.505 511.872C129.993 511.872 129.576 511.458 129.576 510.943V502.783C129.576 502.271 129.99 501.854 130.505 501.854C131.02 501.854 131.434 502.271 131.434 502.783V510.943C131.434 511.455 131.02 511.872 130.505 511.872Z" fill="white"/>
    <path d="M74.7032 503.34C74.4087 503.34 74.1704 503.112 74.1493 502.825C74.0722 502.415 73.0452 499.554 72.1093 497.041C72.0812 496.96 72.0672 496.876 72.0777 496.792C72.0847 496.722 72.7683 489.75 72.1513 483.84C72.1198 483.535 72.3406 483.261 72.6456 483.23C72.9575 483.198 73.2239 483.419 73.2555 483.724C73.8374 489.301 73.2835 495.779 73.1924 496.774C75.257 502.32 75.257 502.67 75.257 502.786C75.257 503.095 75.0081 503.343 74.6997 503.343L74.7032 503.34Z" fill="white"/>
    <path d="M67.6547 469.651C66.575 469.651 65.5164 468.733 65.4673 468.687C65.3902 468.621 65.3832 468.502 65.4498 468.424C65.5164 468.347 65.6356 468.34 65.7127 468.407C65.7232 468.417 66.894 469.431 67.9 469.255C68.3066 469.182 68.6361 468.915 68.8815 468.456C69.0428 468.158 69.2285 467.829 69.4283 467.475C70.5255 465.522 72.187 462.571 71.4965 461.449C71.4439 461.361 71.4684 461.249 71.5561 461.193C71.6437 461.14 71.7559 461.168 71.812 461.253C72.6182 462.564 71.0303 465.385 69.7543 467.657C69.558 468.007 69.3723 468.337 69.211 468.631C68.9096 469.192 68.4889 469.525 67.9666 469.616C67.865 469.634 67.7598 469.644 67.6582 469.644L67.6547 469.651Z" fill="white"/>
    <path d="M65.5895 502.288C65.5123 502.288 65.4422 502.239 65.4142 502.165C65.3791 502.067 65.4317 501.962 65.5299 501.93C65.579 501.913 70.4584 500.178 72.4739 496.757C72.5265 496.669 72.6386 496.637 72.7263 496.69C72.8139 496.743 72.8455 496.855 72.7929 496.942C70.7072 500.486 65.8594 502.207 65.6526 502.281C65.6315 502.288 65.6105 502.291 65.593 502.291L65.5895 502.288Z" fill="white"/>
    <path d="M97.1165 545.324C97.0744 545.324 97.0324 545.31 96.9973 545.282C96.9167 545.215 96.9062 545.1 96.9728 545.019C98.5221 543.14 101.586 542.148 102.374 541.917C102.154 541.163 101.968 540.49 101.807 539.891C100.965 536.809 100.685 535.772 98.424 535.667C95.7108 535.537 95.0378 537.626 95.0308 537.647C95.0028 537.745 94.8976 537.798 94.7995 537.77C94.7013 537.738 94.6452 537.637 94.6768 537.539C94.6838 537.514 95.4339 535.158 98.4415 535.295C100.972 535.411 101.323 536.694 102.164 539.792C102.339 540.437 102.539 541.167 102.785 541.99C102.799 542.039 102.792 542.092 102.767 542.134C102.743 542.176 102.7 542.211 102.651 542.222C102.613 542.232 98.9322 543.221 97.2567 545.25C97.2216 545.296 97.1655 545.317 97.113 545.317L97.1165 545.324Z" fill="white"/>
    <path d="M86.3552 543.714C86.3201 543.714 86.2851 543.704 86.257 543.686C86.1694 543.63 86.1449 543.518 86.2009 543.43C86.208 543.416 87.0633 542.07 87.5435 540.745C87.5785 540.65 87.6872 540.601 87.7818 540.633C87.8765 540.668 87.9291 540.773 87.894 540.871C87.3963 542.235 86.5515 543.57 86.5164 543.626C86.4814 543.683 86.4218 543.711 86.3587 543.711L86.3552 543.714Z" fill="white"/>
    <path d="M112.8 487.107C112.509 487.107 112.256 486.988 112.042 486.757C111.236 485.877 111.191 483.402 111.397 481.552C111.66 479.182 114.822 479.287 114.85 479.284C114.952 479.287 115.032 479.375 115.029 479.476C115.025 479.578 114.931 479.652 114.836 479.655C114.72 479.648 111.993 479.567 111.769 481.594C111.555 483.507 111.643 485.768 112.319 486.505C112.463 486.662 112.642 486.739 112.817 486.732C113.367 486.722 114.482 486.224 115.663 485.698C117.307 484.966 119.011 484.205 119.912 484.405C120.013 484.426 120.077 484.524 120.052 484.626C120.031 484.727 119.929 484.79 119.831 484.766C119.046 484.594 117.332 485.362 115.814 486.038C114.549 486.603 113.452 487.09 112.828 487.104C112.821 487.104 112.814 487.104 112.803 487.104L112.8 487.107Z" fill="white"/>
    <path d="M134.869 481.762C134.83 481.762 134.788 481.748 134.756 481.724C134.714 481.692 134.686 481.643 134.683 481.59C134.479 479.221 130.915 476.245 130.88 476.213C130.823 476.168 130.799 476.091 130.82 476.02C130.841 475.95 130.901 475.898 130.971 475.887L134.841 475.33C134.865 475.326 134.893 475.33 134.918 475.337C138.437 476.353 138.479 480.858 138.479 480.903C138.479 480.991 138.416 481.068 138.328 481.086L134.9 481.755C134.9 481.755 134.876 481.755 134.865 481.755L134.869 481.762ZM131.426 476.199C132.299 476.977 134.711 479.291 135.026 481.356L138.1 480.756C138.058 479.992 137.715 476.564 134.851 475.708L131.423 476.203L131.426 476.199Z" fill="white"/>
    <path d="M134.869 499.66C134.841 499.66 134.816 499.653 134.792 499.643C134.735 499.618 134.697 499.566 134.686 499.506C134.367 497.711 131.9 495.713 131.872 495.692C131.791 495.629 131.78 495.51 131.844 495.433C131.907 495.352 132.026 495.342 132.103 495.405C132.205 495.485 134.494 497.336 134.991 499.191L137.01 498.03C137.081 497.49 137.315 494.644 134.515 493.533C134.42 493.494 134.371 493.386 134.409 493.291C134.448 493.196 134.557 493.151 134.651 493.186C137.967 494.5 137.368 498.139 137.364 498.174C137.354 498.227 137.322 498.276 137.273 498.304L134.96 499.632C134.932 499.65 134.9 499.657 134.869 499.657V499.66Z" fill="white"/>
    <circle cx="105.125" cy="494.395" r="89.125" stroke="#C9C8D3" stroke-width="2"/>
    <path d="M102.561 666.6C101.975 667.186 101.025 667.186 100.439 666.6L90.8934 657.055C90.3076 656.469 90.3076 655.519 90.8934 654.933C91.4792 654.347 92.4289 654.347 93.0147 654.933L101.5 663.418L109.985 654.933C110.571 654.347 111.521 654.347 112.107 654.933C112.692 655.519 112.692 656.469 112.107 657.055L102.561 666.6ZM103 632.27V665.54H100V632.27H103Z" fill="currentColor"/>
    <path d="M52.578 714.079L53.7772 711.294C54.4973 711.726 55.2654 712.062 56.0815 712.302C56.9135 712.525 57.7216 712.653 58.5056 712.685C59.3056 712.701 60.0256 712.621 60.6655 712.444C61.3215 712.268 61.8414 712.004 62.2253 711.652C62.6252 711.3 62.8251 710.852 62.8249 710.308C62.8248 709.668 62.5606 709.196 62.0325 708.892C61.5045 708.572 60.8004 708.412 59.9204 708.413L55.8164 708.414L55.8156 705.486L59.6316 705.485C60.4156 705.484 61.0236 705.324 61.4555 705.004C61.9034 704.684 62.1273 704.244 62.1271 703.684C62.127 703.204 61.9669 702.82 61.6468 702.532C61.3267 702.228 60.8867 702.004 60.3266 701.861C59.7826 701.717 59.1666 701.653 58.4786 701.669C57.7906 701.685 57.0786 701.797 56.3427 702.006C55.6067 702.214 54.9028 702.502 54.2309 702.87L53.0541 699.87C54.1419 699.31 55.2858 698.926 56.4858 698.718C57.7017 698.493 58.8697 698.437 59.9897 698.549C61.1258 698.644 62.1498 698.9 63.0619 699.316C63.974 699.716 64.7022 700.243 65.2464 700.899C65.7905 701.555 66.0628 702.331 66.063 703.227C66.0632 704.027 65.8554 704.739 65.4396 705.363C65.0238 705.987 64.4399 706.467 63.688 706.804C62.9521 707.14 62.1041 707.308 61.1441 707.308L61.2399 706.444C62.3599 706.444 63.3279 706.636 64.144 707.019C64.9761 707.387 65.6163 707.907 66.0645 708.579C66.5286 709.235 66.7608 709.995 66.7611 710.859C66.7613 711.659 66.5455 712.379 66.1137 713.019C65.6978 713.643 65.122 714.171 64.3861 714.603C63.6502 715.036 62.8103 715.356 61.8664 715.564C60.9224 715.772 59.9144 715.861 58.8424 715.829C57.7864 715.797 56.7224 715.645 55.6503 715.374C54.5782 715.086 53.5541 714.654 52.578 714.079ZM77.2804 715.56L77.2797 713.04L77.0395 712.488L77.0383 707.976C77.0381 707.176 76.7899 706.552 76.2938 706.104C75.8137 705.656 75.0696 705.432 74.0616 705.433C73.3736 705.433 72.6936 705.545 72.0217 705.769C71.3657 705.977 70.8058 706.266 70.3419 706.634L68.9972 704.018C69.7011 703.522 70.549 703.138 71.5409 702.865C72.5328 702.593 73.5408 702.457 74.5648 702.457C76.5328 702.456 78.0609 702.92 79.1492 703.847C80.2374 704.775 80.7818 706.223 80.7824 708.191L80.7844 715.559L77.2804 715.56ZM73.3444 715.753C72.3364 715.753 71.4724 715.585 70.7523 715.25C70.0322 714.898 69.4801 714.426 69.0959 713.834C68.7117 713.242 68.5195 712.578 68.5193 711.842C68.5191 711.074 68.703 710.402 69.0708 709.826C69.4546 709.25 70.0545 708.802 70.8704 708.482C71.6863 708.145 72.7503 707.977 74.0623 707.977L77.4943 707.976L77.4949 710.16L74.4709 710.161C73.5909 710.161 72.9829 710.305 72.647 710.593C72.3271 710.881 72.1672 711.241 72.1673 711.673C72.1674 712.153 72.3515 712.537 72.7196 712.825C73.1037 713.097 73.6237 713.233 74.2797 713.233C74.9037 713.233 75.4637 713.088 75.9596 712.8C76.4555 712.496 76.8154 712.056 77.0392 711.48L77.6157 713.208C77.3439 714.04 76.8481 714.672 76.1282 715.104C75.4084 715.536 74.4804 715.753 73.3444 715.753ZM93.1807 715.556L88.8591 709.437L91.9066 707.636L97.5967 715.554L93.1807 715.556ZM84.0367 715.558L84.0332 702.646L87.7772 702.645L87.7807 715.557L84.0367 715.558ZM86.6754 710.661L86.6746 707.661L91.1866 707.66L91.1874 710.66L86.6754 710.661ZM92.2671 709.532L88.763 709.149L93.2972 702.644L97.2812 702.642L92.2671 709.532ZM106.929 715.552L106.928 713.032L106.688 712.48L106.687 707.968C106.687 707.168 106.438 706.544 105.942 706.096C105.462 705.648 104.718 705.424 103.71 705.425C103.022 705.425 102.342 705.537 101.67 705.761C101.014 705.969 100.454 706.258 99.9904 706.626L98.6456 704.01C99.3495 703.514 100.197 703.13 101.189 702.857C102.181 702.585 103.189 702.449 104.213 702.449C106.181 702.448 107.709 702.912 108.798 703.839C109.886 704.767 110.43 706.215 110.431 708.183L110.433 715.551L106.929 715.552ZM102.993 715.745C101.985 715.745 101.121 715.577 100.401 715.242C99.6806 714.89 99.1285 714.418 98.7443 713.826C98.3602 713.234 98.168 712.57 98.1678 711.834C98.1676 711.066 98.3514 710.394 98.7192 709.818C99.1031 709.242 99.703 708.794 100.519 708.474C101.335 708.137 102.399 707.969 103.711 707.969L107.143 707.968L107.143 710.152L104.119 710.153C103.239 710.153 102.631 710.297 102.295 710.585C101.976 710.873 101.816 711.233 101.816 711.665C101.816 712.145 102 712.529 102.368 712.817C102.752 713.089 103.272 713.225 103.928 713.225C104.552 713.224 105.112 713.08 105.608 712.792C106.104 712.488 106.464 712.048 106.688 711.472L107.264 713.2C106.992 714.032 106.497 714.664 105.777 715.096C105.057 715.528 104.129 715.745 102.993 715.745ZM129.213 715.546L125.78 709.427L128.803 707.626L133.653 715.545L129.213 715.546ZM123.572 710.651L123.571 707.651L128.059 707.65L128.06 710.65L123.572 710.651ZM129.188 709.522L125.659 709.139L129.378 702.634L133.338 702.633L129.188 709.522ZM116.445 715.549L112.029 715.55L116.851 707.629L119.876 709.428L116.445 715.549ZM124.677 715.547L120.981 715.548L120.978 702.636L124.674 702.635L124.677 715.547ZM122.084 710.652L117.62 710.653L117.619 707.653L122.083 707.652L122.084 710.652ZM116.468 709.525L112.314 702.638L116.274 702.637L119.971 709.14L116.468 709.525ZM135.599 715.544L135.596 702.632L139.316 702.631L139.318 710.311L145.604 702.629L149.036 702.628L149.039 715.54L145.319 715.541L145.317 707.861L139.055 715.543L135.599 715.544Z" fill="currentColor"/>
    <path d="M78.5107 947.161C78.4571 947.161 78.3999 947.154 78.3462 947.144C77.9385 947.054 77.681 946.65 77.7704 946.242C77.9743 945.316 82.8097 923.567 83.289 922.133C83.7646 920.699 91.1716 904.229 91.4863 903.528C94.9376 896 94.4691 892.255 93.4677 890.438C92.4841 888.65 90.8354 888.41 90.8211 888.407C82.6559 886.951 77.6631 896.393 77.613 896.486L70.0845 912.173C70.0595 912.226 70.0273 912.276 69.9879 912.323C68.0602 914.698 65.7462 921.901 65.7248 921.972L56.6011 946.357C56.4545 946.75 56.0181 946.947 55.6283 946.8C55.2385 946.654 55.0382 946.217 55.1848 945.827L64.2942 921.479C64.38 921.21 66.6618 914.097 68.7576 911.443L76.2611 895.814C76.4936 895.363 81.8119 885.263 91.0571 886.915C91.1251 886.922 93.4498 887.262 94.7981 889.709C96.497 892.795 95.8496 897.656 92.8704 904.154C90.2166 910.059 85.0951 921.525 84.7339 922.612C84.3583 923.743 80.6531 940.291 79.2582 946.571C79.1796 946.925 78.8684 947.165 78.5215 947.165L78.5107 947.161Z" fill="white"/>
    <path d="M35.8248 946.868C35.578 946.868 35.3348 946.75 35.1917 946.528C34.9628 946.181 35.0558 945.716 35.4027 945.484C36.1002 945.019 53.8646 935.512 55.8889 934.432C55.9605 934.397 56.0356 934.368 56.1143 934.354C57.6951 934.071 59.3224 933.581 59.5978 933.302C59.891 933.005 60.3703 933.005 60.6671 933.302C60.964 933.599 60.964 934.078 60.6671 934.371C59.9089 935.13 57.4197 935.648 56.4969 935.82C48.6251 940.03 36.8083 946.374 36.2396 946.743C36.1109 946.825 35.9678 946.864 35.8248 946.864V946.868Z" fill="white"/>
    <path d="M111.357 908.825C110.895 908.825 110.416 908.782 109.915 908.692C103.799 907.594 92.8231 904.097 92.3582 903.95C91.861 903.793 91.5856 903.26 91.7466 902.759C91.904 902.262 92.4369 901.987 92.9376 902.144C93.052 902.18 104.257 905.749 110.251 906.826C115.505 907.766 117.744 901.872 117.834 901.618L150.176 797.517C151.109 794.42 151.031 791.866 149.943 789.938C148.617 787.585 146.163 786.941 146.138 786.934L104.711 776.577C97.3724 775.5 95.6772 782.474 95.6092 782.771C95.6021 782.803 95.5913 782.835 95.5806 782.868C95.273 783.758 64.9157 871.883 61.6575 882.123C60.7205 885.066 60.817 887.577 61.9472 889.587C63.7068 892.713 67.3799 893.632 67.4157 893.639C67.4478 893.646 67.48 893.657 67.5122 893.668L76.3104 896.808C76.804 896.983 77.0579 897.527 76.8827 898.017C76.7074 898.51 76.1638 898.764 75.6738 898.589L66.9185 895.463C66.382 895.324 62.3549 894.165 60.2984 890.513C58.9 888.027 58.7498 885.012 59.8514 881.547C63.0917 871.365 93.027 784.459 93.7745 782.285C93.9819 781.498 96.3495 773.401 105.033 774.71C105.062 774.713 105.094 774.72 105.123 774.728L146.592 785.096C146.717 785.128 149.822 785.918 151.567 788.973C152.937 791.373 153.076 794.43 151.978 798.068L119.618 902.219C118.728 904.665 115.952 908.814 111.349 908.814L111.357 908.825Z" fill="white"/>
    <path d="M117.887 892.466C117.834 892.466 117.776 892.458 117.723 892.441L66.4107 876.944C66.2641 876.901 66.1425 876.797 66.0709 876.661C65.9994 876.525 65.9887 876.364 66.0387 876.221L95.1515 789.301C95.248 789.019 95.5413 788.854 95.8346 788.933L145.473 802.127C145.623 802.166 145.748 802.266 145.823 802.399C145.898 802.535 145.916 802.692 145.87 802.842L118.431 892.065C118.356 892.308 118.13 892.466 117.887 892.466ZM67.2977 876.024L117.512 891.192L144.607 803.075L96.0563 790.167L67.2977 876.024Z" fill="white"/>
    <path d="M16.7585 900.535C16.458 900.535 16.1755 900.356 16.0539 900.059C15.9001 899.669 16.0861 899.229 16.4759 899.076C17.2055 898.782 25.8392 894.229 31.6224 891.154C32.2769 889.487 35.8999 880.303 37.6095 876.508C38.0172 875.603 38.8148 873.486 39.8269 870.803C44.7839 857.653 50.4026 843.364 54.4548 839.892L62.5019 824.413C62.6593 823.683 63.6142 820.171 67.7021 818.125C71.833 816.061 84.5189 809.198 84.644 809.13C85.0124 808.93 85.4702 809.069 85.6705 809.434C85.8708 809.803 85.7313 810.26 85.3665 810.461C85.2377 810.529 72.534 817.403 68.3817 819.477C64.6121 821.362 63.9969 824.652 63.9719 824.792C63.9576 824.867 63.9325 824.945 63.8967 825.013L55.728 840.721C55.678 840.814 55.6136 840.897 55.5313 840.961C51.4505 844.255 44.809 861.869 41.2432 871.333C40.1846 874.144 39.4156 876.175 38.99 877.127C37.1338 881.25 32.9707 891.855 32.9314 891.962C32.867 892.13 32.7419 892.27 32.5809 892.355C31.1002 893.142 18.0961 900.056 17.041 900.478C16.948 900.513 16.855 900.531 16.7585 900.531V900.535Z" fill="white"/>
    <path d="M83.3318 926.582C83.085 926.582 82.8454 926.464 82.6987 926.242C82.4698 925.895 82.5628 925.43 82.9062 925.198C83.0063 925.13 83.2746 924.98 84.0328 924.547C96.3109 917.558 104.776 911.954 109.204 907.888C109.512 907.605 109.991 907.627 110.274 907.934C110.556 908.242 110.535 908.721 110.227 909.003C105.717 913.149 97.155 918.821 84.7803 925.867C84.2009 926.196 83.8361 926.403 83.7431 926.464C83.6143 926.546 83.4713 926.586 83.3282 926.586L83.3318 926.582Z" fill="white"/>
    <path d="M118.932 903.757C118.668 903.757 118.41 903.617 118.274 903.37C118.07 903.006 118.196 902.544 118.56 902.34C118.711 902.254 133.725 893.746 136.854 890.291L137.663 889.401C140.949 885.788 141.632 885.037 141.632 882.265V881.471C141.65 878.721 141.657 877.208 139.83 875.12C138.485 873.585 133.793 870.091 131.093 870.087H131.085C130.538 870.087 130.134 870.234 129.848 870.531C129.558 870.996 127.14 875.034 128.342 879.161C129.172 882.008 131.532 884.318 135.366 886.024C135.749 886.196 135.921 886.643 135.749 887.022C135.577 887.405 135.13 887.577 134.748 887.405C130.484 885.502 127.838 882.866 126.883 879.565C125.42 874.515 128.485 869.837 128.618 869.64C128.635 869.612 128.657 869.583 128.678 869.558C129.261 868.9 130.07 868.564 131.085 868.564H131.096C134.576 868.571 139.637 872.587 140.971 874.115C143.178 876.636 143.167 878.56 143.149 881.471V882.258C143.149 885.617 142.133 886.729 138.782 890.413L137.977 891.3C134.683 894.933 119.93 903.295 119.304 903.649C119.186 903.717 119.058 903.746 118.932 903.746V903.757Z" fill="white"/>
    <path d="M124.536 885.116C124.297 885.116 124.061 885.002 123.914 884.791C123.674 884.448 123.76 883.975 124.107 883.739L128.192 880.91C128.535 880.671 129.007 880.76 129.247 881.103C129.486 881.447 129.4 881.919 129.053 882.155L124.969 884.984C124.837 885.073 124.687 885.12 124.54 885.12L124.536 885.116Z" fill="white"/>
    <path d="M136.735 871.501C136.51 871.501 136.288 871.401 136.138 871.211C135.881 870.882 135.938 870.406 136.267 870.149C136.313 870.113 141.016 866.411 143.123 863.303C144.317 861.54 144.607 858.615 143.828 856.186C143.348 854.684 142.243 852.699 139.718 851.766C138.556 851.336 137.572 851.372 136.714 851.877C134.847 852.975 133.992 856.125 133.82 857.245C133.817 857.277 133.81 857.309 133.799 857.341C132.429 862.098 137.479 864.62 137.694 864.723C138.069 864.906 138.227 865.36 138.044 865.735C137.862 866.111 137.411 866.268 137.036 866.09C134.815 865.02 130.984 861.741 132.329 856.969C132.418 856.433 133.209 852.188 135.945 850.578C137.204 849.838 138.649 849.763 140.244 850.353C142.658 851.247 144.446 853.157 145.269 855.732C146.181 858.572 145.812 862.037 144.375 864.158C142.136 867.467 137.397 871.19 137.197 871.347C137.057 871.454 136.893 871.508 136.732 871.508L136.735 871.501Z" fill="white"/>
    <path d="M137.365 843.962C136.964 843.962 136.632 843.647 136.61 843.243C136.589 842.824 136.911 842.47 137.329 842.449C137.429 842.445 147.315 841.862 150.63 835.725C151.954 833.268 152.143 830.99 151.174 829.137C150.126 827.127 147.962 826.033 146.288 825.843C143.42 825.51 142.258 830.01 141.632 832.424L141.557 832.717C141.056 834.641 143.105 836.673 143.127 836.69C143.427 836.98 143.438 837.459 143.152 837.76C142.862 838.06 142.383 838.071 142.082 837.785C141.972 837.678 139.361 835.142 140.094 832.334L140.169 832.045C140.856 829.387 142.279 823.865 146.464 824.337C148.384 824.555 151.124 825.761 152.519 828.436C153.363 830.056 153.953 832.76 151.964 836.444C148.245 843.336 137.848 843.94 137.408 843.962C137.394 843.962 137.383 843.962 137.369 843.962H137.365Z" fill="white"/>
    <path d="M75.585 832.663C73.1816 832.663 70.0844 830.589 69.9234 830.478C69.8376 830.421 69.8126 830.303 69.8734 830.213C69.9342 830.127 70.0522 830.106 70.1344 830.163C70.1809 830.195 74.9198 833.371 76.987 831.894C77.0693 831.833 77.1909 831.851 77.2517 831.937C77.3125 832.023 77.291 832.141 77.2088 832.202C76.751 832.531 76.1895 832.66 75.585 832.66V832.663Z" fill="white"/>
    <path d="M61.1576 908.764C61.0789 908.764 61.0038 908.714 60.9787 908.632C60.9465 908.532 61.0038 908.425 61.1003 908.392C61.1897 908.364 70.2741 905.388 73.6217 897.323C73.661 897.227 73.7719 897.18 73.8684 897.219C73.965 897.259 74.0115 897.37 73.9722 897.466C70.553 905.699 61.3078 908.721 61.2148 908.754C61.1969 908.761 61.1754 908.761 61.1576 908.761V908.764Z" fill="white"/>
    <path d="M89.5477 894.047C87.7523 894.047 85.8461 893.167 84.7016 892.534C84.4083 892.37 84.2152 892.116 84.1293 891.78C83.8182 890.557 85.0521 888.579 85.1057 888.496C85.1629 888.407 85.281 888.382 85.3668 888.439C85.4562 888.496 85.4813 888.611 85.424 888.7C85.4133 888.718 84.2223 890.621 84.4977 891.687C84.5585 891.923 84.6837 892.091 84.8876 892.202C86.3468 893.014 89.0971 894.244 91.1107 893.368C92.1586 892.913 92.8775 891.926 93.2494 890.435C93.2744 890.335 93.3782 890.274 93.4783 890.299C93.5785 890.324 93.6428 890.428 93.6142 890.528C93.2101 892.141 92.4197 893.214 91.2573 893.715C90.7208 893.947 90.1379 894.044 89.5442 894.044L89.5477 894.047Z" fill="white"/>
    <path d="M79.1396 920.519C79.111 920.519 79.0788 920.512 79.0502 920.498C76.1317 918.964 69.1397 918.327 69.0682 918.32C68.9644 918.309 68.8858 918.22 68.8965 918.116C68.9036 918.012 68.9966 917.93 69.1004 917.944C69.39 917.969 76.2426 918.595 79.2254 920.165C79.3184 920.215 79.3542 920.33 79.3041 920.419C79.2683 920.484 79.204 920.519 79.136 920.519H79.1396Z" fill="white"/>
    <path d="M75.574 923.278C73.5854 923.278 71.3608 922.695 70.059 922.351C69.5297 922.212 69.0719 922.09 68.9288 922.09C68.8251 922.09 68.7393 922.005 68.7393 921.901C68.7393 921.797 68.8251 921.711 68.9288 921.711C69.1112 921.711 69.476 921.804 70.1555 921.983C71.7113 922.391 74.5976 923.153 76.7542 922.813C76.8615 922.795 76.9545 922.867 76.9724 922.97C76.9867 923.074 76.9187 923.171 76.815 923.185C76.4216 923.246 76.0031 923.274 75.5775 923.274L75.574 923.278Z" fill="white"/>
    <path d="M130.662 891.304C130.598 891.304 130.537 891.272 130.502 891.214C130.473 891.172 127.805 886.715 127.647 881.54C127.647 881.436 127.726 881.347 127.83 881.347C127.948 881.336 128.023 881.426 128.027 881.529C128.18 886.601 130.798 890.975 130.827 891.018C130.881 891.107 130.852 891.225 130.763 891.279C130.73 891.297 130.698 891.307 130.666 891.307L130.662 891.304Z" fill="white"/>
    <path d="M135.899 877.73C135.624 877.73 135.33 877.655 135.034 877.498C134.114 877.015 133.306 875.828 133.621 874.572C134.068 872.784 132.559 870.184 132.541 870.159C132.487 870.07 132.519 869.952 132.609 869.901C132.698 869.848 132.816 869.88 132.866 869.969C132.931 870.08 134.472 872.73 133.986 874.665C133.728 875.695 134.404 876.743 135.209 877.162C135.477 877.301 136.153 877.566 136.647 877.008C137.669 875.838 136.875 872.287 136.865 872.251C136.843 872.151 136.904 872.047 137.008 872.026C137.112 872.001 137.212 872.065 137.233 872.169C137.269 872.323 138.077 875.942 136.929 877.258C136.654 877.573 136.296 877.73 135.899 877.73Z" fill="white"/>
    <path d="M142.916 858.997C142.476 858.997 142.064 858.779 141.721 858.367C141.117 857.638 140.848 856.411 141.052 855.317C141.317 853.897 140.974 852.538 140.745 851.851C140.713 851.751 140.766 851.643 140.863 851.611C140.963 851.579 141.07 851.633 141.102 851.729C141.517 852.974 141.632 854.272 141.424 855.384C141.238 856.375 141.474 857.477 142.011 858.124C142.197 858.349 142.504 858.618 142.912 858.618C143.863 858.618 144.082 856.611 144.085 856.59C144.096 856.486 144.189 856.415 144.293 856.418C144.396 856.429 144.471 856.522 144.464 856.626C144.457 856.722 144.225 858.997 142.916 858.997Z" fill="white"/>
    <circle cx="101.125" cy="842.692" r="89.125" stroke="#C9C8D3" stroke-width="2"/>
</svg>
