<svg focusable="false" width="180" height="180" viewBox="0 0 180 180" fill="none" xmlns="http://www.w3.org/2000/svg">
    <path d="M90 178.5c-48.798 0-88.5-39.702-88.5-88.5S41.202 1.5 90 1.5s88.5 39.702 88.5 88.5-39.702 88.5-88.5 88.5Z" stroke="#fff" stroke-width="3"/>
    <mask id="a" style="mask-type:luminance" maskUnits="userSpaceOnUse" x="3" y="2" width="174" height="176">
        <path d="M90 177.344c48.049 0 87-39.175 87-87.5s-38.951-87.5-87-87.5-87 39.175-87 87.5 38.951 87.5 87 87.5Z" fill="#fff"/>
    </mask>
    <g mask="url(#a)">
        <path fill="url(#b)" fill-opacity=".66" d="M-56 47.602h295v47H-56z"/>
        <path fill="#FC1447" d="M-55.828 85.422h295v9h-295z"/>
        <path d="M91.181 172.518c3.937.081 19.286-.532 21.705.585.347.5.288.673.272 1.24-2.736.09-20.44.262-21.706-.562-.305-.481-.292-.735-.27-1.263ZM-11.809 125.777c3.414-.063 30.871.62 32.737 1.683.27.154.195.065.261.348-.241.235-.52.237-.838.28-4.889.39-9.874-.122-14.769-.292-4.294-.149-8.568-.316-12.856-.613-1.453-.101-3.017-.083-4.447-.324-.421-.071-.745-.162-1.107-.389l-.055-.247c.309-.315.662-.354 1.074-.446ZM153.644 108.714c4.39-.38 8.995.151 13.396.202 12.525.252 25.047.624 37.565 1.115 1.65.074 12.208.459 12.963 1.286-.244.297-.424.285-.789.38-13.932-.147-27.858-.52-41.778-1.121l-13.52-.404c-2.413-.077-4.87-.083-7.271-.316-.589-.057-1.312-.121-1.802-.462l-.029-.201c.385-.34.771-.384 1.265-.479ZM142.221 128.446c4.313-.08 8.595.048 12.904.215 6.257.243 60.705 2.987 61.599 3.542.131.36.114.355-.02.717-4.864.148-9.8-.19-14.662-.419l-22.141-1.086-20.644-1.003c-3.239-.143-14.391-.386-16.957-1.334-.174-.285-.139-.297-.079-.632ZM119.426 151.457c7.845-.147 15.68.201 23.52.422 8.568.242 17.105.37 25.645 1.143 1.07.096 2.537.014 3.531.411.267.106.169.029.292.318l-.275.258a6.595 6.595 0 0 1-.609.082c-3.146.294-6.493-.052-9.646-.177l-14.457-.531c-9.046-.366-18.16-.225-27.193-.852-.424-.029-.726-.044-1.057-.315-.029-.382.068-.436.249-.759Z" fill="#fff"/>
        <path d="M68.117 151.018c26.33 3.81 45.612.712 59.146-20.935 6.889-11.019 16.849-13.687 20.939-23.471 7.462-17.848-28.555-23.573-39.452-18.58-12.302 5.636-2.639 8.009-34.721 29.563-6.531 4.387-45.178 27.741-5.912 33.423Z" stroke="#FC1447" stroke-width="2"/>
        <path d="M101.861-118.385c.591-.056.764-.12 1.308.151.411.751.259 1.182-.034 1.958-.882 2.335-2.252 4.458-2.995 6.865-2.708 8.779-.58 20.15 1.058 29.028.284.276.807.735.96 1.101.347.831.888 8.652 1.033 10.036a1653.452 1653.452 0 0 1 4.192 52.004c.628 11.37.832 22.772 1.617 34.132 11.583-.408 24.071.22 34.622 6.287 5.419-17.416 6.216-40.147 7.052-53.567.469-7.523 3.451-25.91 5.147-35.438 3.217-18.074 8.067-38.849 10.021-56.968.262-2.425 1.075-9.31 2.513-11.055.47-.191.39-.268.897-.063.244.666.254 1.281.209 1.987-.162 2.566-.693 5.131-1.077 7.673-.591 4.093-1.204 8.183-1.837 12.269a829.263 829.263 0 0 1-4.948 28.442c-3.28 17.869-6.956 35.57-8.51 53.712-1.652 19.282-1.287 40.617-6.833 59.214-5.676 19.036-10.221 35.643-1.541 60.814 3.136 9.093 1.697 13.31-.852 16.452-2.231 2.749-5.111 4.415-7.828 6.6-2.405 1.933-4.6 4.174-6.64 6.485-6.975 7.902-14.783 20.114-24.952 23.844-2.496.915-4.964.914-7.521 1.437-2.559.523-4.887 1.558-7.55 1.648-1.644.055-3.08-.601-4.653-.643-1.924-.052-3.92.847-5.884.888-1.818.038-3.277-.952-5.03-1.04-1.35-.068-2.712.607-4.059.714-2.975.237-5.473-1.606-8.236-2.255-1.686-.396-3.906.015-5.263-1.254-.979-.916-1.361-2.734-1.344-4.018.022-1.625.583-2.719 1.757-3.8 1.35-1.243 3.286-2.938 5.1-3.364 6.638-1.56 25.376 2.123 32.52 4.052 2.946.796 6.147 2.433 9.168 2.544.583-.269 1.171-.54 1.732-.852 6.697-3.724 15.976-14.811 20.771-21.064 1-1.305 2.658-2.99 3.093-4.548l-.211-.2c-.75.209-1.322.67-1.853 1.233-1.389 1.473-2.543 3.273-3.838 4.844-4.713 5.718-13.275 16.045-19.893 19.07l-.301.137c-3.31-.799-6.45-2.283-9.786-3.071a181.194 181.194 0 0 0-18.898-3.393c-3.23-.383-6.48-.543-9.71-.918 1.275-1.271 2.886-2.249 4.335-3.315a98.225 98.225 0 0 0 5.51-4.426c7.024-6.11 17.385-14.616 22.127-22.562 19.56-32.778 10.631-71.308 8.641-107.954-1.725-30.416-9.895-63.196-8.641-93.454.243-5.849 2.212-11.476 5.335-16.399Z" fill="#fff"/>
        <path d="M84.303 119.727c2.742.066 13.431-.435 15.116.478.242.409.2.55.19 1.014-1.906.073-14.235.214-15.117-.459-.213-.394-.203-.601-.189-1.033ZM-27.809 157.777c3.414-.063 30.872.62 32.737 1.683.27.154.195.065.261.348-.241.235-.52.237-.838.28-4.889.39-9.874-.122-14.769-.292-4.294-.149-8.568-.316-12.857-.613-1.452-.101-3.016-.083-4.446-.324-.421-.071-.745-.162-1.107-.389l-.055-.247c.309-.315.662-.354 1.074-.446Z" fill="#fff"/>
        <path d="M-53.485 198.941c-.844.751-1.901 2.157-3.76 2.226-.965-.17-1.8-.464-2.647-.821-2.557-1.078-4.977-2.39-7.39-3.579a652.302 652.302 0 0 0-14.029-6.797c10.475-8.236 21.594-16.207 32.504-24.249l44.415-32.957 45.877-33.843c4.492-3.35 9.04-6.675 13.643-9.975 1.802-1.313 3.477-2.726 5.379-3.985 4.866 2.36 9.68 4.761 14.6 7.084 2.319 1.096 4.641 2.169 6.927 3.288.614.3 1.374.586 1.93.915.329.193.55.424.667.658.231.463-.23.83-.684 1.102-.36.216-.872.636-1.464.606-1.218-.666-3.691-2.052-5.281-2.263-.35-.047-.208-.042-.507.061.01.04.012.08.03.12.393.893 3.836 2.195 5.175 2.784-.011.025-.019.05-.034.074-.271.418-1.424 1.288-2.264 1.378-.252.027-.571-.144-.81-.23-.892-.587-8.305-4.152-9.372-4.356-.427.055-.426.045-.608.253.054.091.077.187.163.275.3.306 8.638 4.245 9.705 4.7.053.505-1.448 1.316-1.983 1.684-1.566-.701-6.884-3.48-8.305-3.626-.288.124-.31.124-.354.339 1.198 1.105 5.806 2.989 7.807 3.934-.52.449-1.113 1.114-2 1.353l-.392-.086c-1.773-.855-9.232-4.626-10.606-4.746-.325.104-.368.095-.44.306.772 1.099 8.385 4.274 10.413 5.2-.143.343-.699.669-1.042.95-2.087-.999-6.135-2.993-8.184-3.777-.611-.234-1.051-.363-1.692-.321l-.118.208c.109.212.244.399.532.582 1.694 1.082 6.287 2.978 8.481 4.03a24.049 24.049 0 0 1-2.472 1.782c-1.92-.849-3.752-1.738-5.64-2.607-1.03-.475-2.679-1.294-3.935-1.304l-.054.13c.814 1.206 6.55 3.308 8.57 4.303l.185.092c-.684.525-1.488 1.008-2.238 1.503-1.655-.733-7.33-3.774-8.867-3.825-.308-.011-.305.046-.474.146.112.265.242.407.639.62.658.354 1.512.679 2.223 1.006 1.842.848 3.727 1.732 5.407 2.679l.208.118-1.817 1.337c-2.32-1.127-4.712-2.179-7.048-3.287-1.916-.909-3.81-1.952-5.882-2.735-.527-.199-.92-.333-1.509-.36-.235.129-.266.083-.21.303.07.267.374.51.73.724 1.893 1.139 4.51 2.164 6.667 3.154 2.08.954 4.072 1.956 6.182 2.889l-1.069.914c-1.78-.874-7.554-3.928-9.427-4.009-.193.091-.27.063-.229.197.244.811 7.01 3.669 8.66 4.422l-1.796 1.437c-1.06-.507-6.974-3.362-7.696-3.522-.445-.098-.677-.085-1.032.001l-.004.192c1.041 1.016 5.905 3.017 7.761 3.908-.621.459-1.28.887-1.982 1.306-1.733-.73-6.226-3.086-7.748-3.402-.329-.069-.32-.028-.571.032-.067.1-.182.175-.095.3.475.684 6.32 3.162 7.706 3.727-.586.472-1.238.917-1.872 1.367-2.02-.791-3.776-1.755-5.635-2.66-2.473-1.203-4.966-2.451-7.504-3.609-.765-.349-1.67-.748-2.59-.757-.3.116-.304.101-.32.32 1.608 1.589 11.716 5.612 14.73 7.443l.119.073c-.425.348-1.192 1.154-2.005 1.201-1.494-.739-7.45-3.734-8.852-3.907-.298-.037-.22-.011-.457.094.003.101-.008.184.06.293.453.727 7.023 3.493 8.528 4.194a16.44 16.44 0 0 1-2.157 1.628c-1.352-.659-6.966-3.598-8.41-3.583-.264.003-.282.094-.406.194.094.217.129.294.44.483.646.395 1.61.717 2.362 1.06 1.761.802 3.495 1.628 5.235 2.445-.59.517-1.292.995-1.95 1.483-.15-.08-.301-.159-.454-.237-1.197-.615-6.984-3.367-8.085-3.42-.361.107-.39.092-.464.323.725.735 6.552 3.26 8.033 4.05l-1.743 1.256c-4.5-1.896-8.597-4.119-12.974-6.107-.72-.326-1.533-.707-2.379-.707-.25.145-.284.222-.289.443.188.25.37.419.75.617.566.297 1.237.533 1.83.812l3.909 1.866c2.702 1.287 5.338 2.608 8.073 3.875-1.644.78-2.92 2.016-4.225 2.981-1.701-.811-5.043-2.625-6.845-3.138-.477-.136-.686-.172-1.117-.104l-.049.178c.91 1.042 5.421 2.864 7.15 3.671l-1.723 1.302c-1.136-.607-6.75-3.507-7.905-3.574-.282-.017-.28.048-.427.142.336.822 5.988 3.273 7.507 3.995-.5.402-1.053.785-1.58 1.175-2.478-1.037-4.732-2.223-7.155-3.299-.61-.271-1.006-.457-1.73-.453-.328.163-.309.154-.285.428.88.957 6.53 3.372 8.248 3.932l-1.62 1.189c-3.233-1.372-6.4-2.989-9.453-4.498-1.453-.718-3.43-1.901-5.069-2.413-.383-.119-.65-.172-.98-.07-.338.104-.314.199-.294.41.713.781 12.878 6.553 14.72 7.316-1.385 1.111-2.691 2.252-4.31 3.256-1.872-1.044-5.65-2.928-7.826-3.622-.407-.13-.67-.215-1.072-.17l.026.249c1.039 1.139 6.121 3.204 8.073 4.09l-2.515 1.692c-1.359-.644-6.785-3.434-7.8-3.657-.13.025-.182.028-.29.084-.244.129-.314.286-.249.492 1.843 1.194 5.446 2.699 7.681 3.767-.704.602-1.544 1.153-2.335 1.716-3.803-1.599-7.474-3.501-11.1-5.24-1.062-.509-2.262-1.22-3.4-1.632-.446-.161-.705-.151-1.141-.131-.28.202-.257.211-.188.502 1.385 1.119 12.177 6.002 14.824 7.211-.595.509-1.26.99-1.902 1.479-1.694-.787-3.455-1.528-5.14-2.319-.602-.281-1.182-.64-1.809-.893-.561-.227-1.006-.322-1.612-.29-.137.099-.255.112-.176.269.403.794 6.285 3.198 7.801 3.908-.49.384-1.056.739-1.594 1.101-2.144-1.017-4.277-2.106-6.465-3.086a2.572 2.572 0 0 0-1.164-.246c-.306.115-.367.129-.466.331.585.676 5.91 3.073 7.25 3.715-.58.478-1.152.922-1.893 1.323-2.255-1.032-4.364-2.163-6.61-3.194-.717-.329-1.476-.633-2.326-.634-.205.119-.255.076-.199.233.312.877 6.654 3.596 8.258 4.301-.759.609-1.645 1.168-2.489 1.738-2.332-1.144-11.908-5.901-13.73-6.184-.379.089-.355.107-.48.329.12.231.305.378.625.561 1.085.619 2.505 1.194 3.692 1.763l9.006 4.294c-.571.703-1.583 1.284-2.434 1.871-2.383-1.008-4.757-2.478-7.286-3.302-.461-.03-.512-.033-.861.08l-.015.231c.84.869 5.548 2.877 7.153 3.667-.44.387-.983.738-1.487 1.098l-1.855-.831c-1.014-.636-5.058-2.633-6.402-2.866-.412-.071-.445-.056-.728.045.015.12.003.134.095.272.477.717 5.98 3.083 7.326 3.65.154.098.394.202.415.324.086.496-1.238 1.158-1.735 1.488-1.164-.582-7.341-3.675-8.326-3.77-.476-.046-.596.004-.868.146l.048.209c.84.768 6.686 3.385 8.254 4.098-.713.662-1.573 1.226-2.474 1.8a830.165 830.165 0 0 0-9.992-4.807c-1.87-.893-3.795-1.913-5.797-2.693-.607-.236-.802-.306-1.452-.279-.132.08-.252.096-.206.232.12.356.807.737 1.29 1.004 1.273.704 2.755 1.334 4.137 1.968 3.616 1.657 7.562 3.323 10.84 5.185l.162.092c-.63.695-1.479 1.285-2.316 1.893-1.703-.926-4.091-2.251-6.127-2.862-.43-.13-.672-.204-1.083-.142.005.031.002.061.015.092.353.863 5.015 2.82 6.405 3.426-.738.606-1.57 1.176-2.368 1.756-1.782-.883-6.167-3.21-8.063-3.677-.396.087-.409.079-.546.3.251.571 6.49 3.353 7.811 3.985-.576.511-1.24.985-1.884 1.466-1.383-.751-7.667-4.042-9.103-4.317-.282-.054-.209-.023-.447.068-.006.092-.02.159.028.26.32.669 7.35 3.804 8.825 4.507-.704.629-1.495 1.214-2.293 1.802-2.988-1.435-5.963-2.88-8.924-4.333-1.716-.849-3.412-1.777-5.215-2.562-.551-.239-1.028-.426-1.666-.52-.309.13-.314.173-.407.396.513.788 13.091 6.571 15.35 7.653-.785.704-1.866 1.323-2.801 1.961-1.547-.699-6.925-3.559-8.3-3.751-.324.112-.356.098-.404.319 1.015 1.047 5.951 3.188 7.8 4.069-.517.444-1.126.858-1.697 1.278-2.107-.993-6.134-3.182-8.123-3.857-.52-.041-.553-.042-.944.087l.052.209c1.348 1.188 6.076 3.158 8.186 4.214-.488.472-1.036.993-1.815 1.323-1.731-.855-6.688-3.503-8.588-3.833-.309-.054-.2-.056-.412.005-.004.027-.019.053-.012.082.052.233.62.632.94.815 1.12.639 5.638 2.774 6.995 3.352.182.229.243.198.08.409-.395.515-1.153.957-1.793 1.371-3.102-1.519-6.3-2.965-9.413-4.475-1.764-.856-3.508-1.875-5.358-2.652-.502-.212-1.287-.528-1.872-.566-.053-.004-.104 0-.155 0-.136.192-.1.213.076.431.887 1.094 13.156 6.683 15.805 7.878a62.065 62.065 0 0 1-2.541 1.966c-1.285-.708-4.376-2.582-6.037-2.719-.055-.004-.108-.001-.161-.002-.108.181-.09.187.102.382.942.959 3.824 2.109 5.407 2.824a64.241 64.241 0 0 0-2.265 1.763c-1.636-.829-3.352-1.59-5.018-2.397-.968-.469-1.99-1.101-3.02-1.503-.339-.133-.523-.159-.89-.19-.393.081-.378.076-.505.298.373.746 7.123 3.686 8.66 4.39-.607.512-1.196 1.031-1.895 1.502a953.767 953.767 0 0 1-6.147-2.887c-.834-.399-1.686-.919-2.575-1.262-.365-.14-1.022-.342-1.43-.359-.101-.004-.19.016-.286.024-.076.128-.094.071.034.226.775.943 7.763 3.93 9.632 4.808-.702.572-1.405 1.118-2.257 1.62-3.247-1.448-6.408-3.012-9.513-4.558-1.592-.793-3.16-1.676-4.858-2.391-.52-.219-.94-.388-1.544-.46-.209.088-.293.065-.262.245.09.517 1.328 1.05 2.04 1.425 4.2 2.206 8.831 4.324 13.233 6.406a16.066 16.066 0 0 1-2.998 2.124c-1.78-.822-4.247-2.381-6.267-2.836l-.386.04c-.061.126-.154.16.002.306.941.887 4.424 2.41 5.992 3.126l-1.75 1.338c-2.135-.972-6.72-3.479-8.903-3.99l-.428.013c-.103.207-.148.249.107.489.444.418 7.1 3.501 8.388 4.135-.6.476-1.22.934-1.889 1.379-1.282-.603-6.67-3.393-7.8-3.44-.161.124-.234.106-.143.299.071.149.163.3.36.432.666.449 5.595 2.694 6.7 3.183Z" fill="#FEFEFE"/>
    </g>
    <defs>
        <linearGradient id="b" x1="-56" y1="71.102" x2="239" y2="71.102" gradientUnits="userSpaceOnUse">
            <stop stop-color="#fff"/>
            <stop offset="1" stop-color="#999"/>
        </linearGradient>
    </defs>
</svg>
