<svg focusable="false" width="180" height="180" viewBox="0 0 180 180" fill="none" xmlns="http://www.w3.org/2000/svg">
    <path d="M90 178.5c-48.798 0-88.5-39.702-88.5-88.5S41.202 1.5 90 1.5s88.5 39.702 88.5 88.5-39.702 88.5-88.5 88.5Z" stroke="#fff" stroke-width="3"/>
    <mask id="a" style="mask-type:luminance" maskUnits="userSpaceOnUse" x="3" y="2" width="175" height="176">
        <path d="M90.242 177.266c48.049 0 87-39.175 87-87.5s-38.951-87.5-87-87.5-87 39.175-87 87.5 38.951 87.5 87 87.5Z" fill="#fff"/>
    </mask>
    <g mask="url(#a)">
        <path d="M9.77 91.74c-1.156-.33-2.916-1.027-4.404-.795a5.302 5.302 0 0 0-1.506.888c-1.264 1.03-2.265 2.18-3.343 3.257-2.042 2.077-12.327 9.365-14.515 11.411 0 0 88.81 25.532 179.428 46.897 2.198-2.146 13.284-13.686 15.55-15.818 1.067-1.005 2.152-1.998 3.178-3.012.276-.273.675-.558.887-.839a.483.483 0 0 0 .077-.497c-.129-.315-.732-.469-1.267-.567-.423-.078-1.102-.257-1.541-.152-.499.583-1.493 1.787-2.586 2.15-.239.079-.133.056-.434.037-.019-.026-.044-.05-.057-.078-.291-.598 1.511-1.894 2.156-2.449-.025-.013-.048-.027-.076-.039-.489-.213-1.965-.571-2.677-.501-.214.02-.348.17-.475.258-.3.487-3.671 3.739-4.362 4.02-.368.03-.361.035-.641-.064-.019-.063-.065-.124-.057-.191.029-.229 3.866-3.844 4.39-4.277-.296-.314-2.003-.584-2.664-.728-.747.655-3.016 3.122-4.021 3.42-.307-.033-.325-.03-.502-.153.191-.847 2.508-2.667 3.43-3.534-.704-.195-1.608-.511-2.456-.525l-.247.11c-.805.779-4.073 4.162-5.059 4.437-.322-.015-.349-.003-.545-.12-.136-.78 3.65-3.825 4.605-4.685-.34-.187-.989-.302-1.443-.422-.952.913-2.761 2.717-3.827 3.494-.318.232-.573.375-1.099.444l-.23-.109c-.057-.144-.077-.278.023-.431.592-.905 2.889-2.731 3.889-3.691a48.024 48.024 0 0 0-3.109-.716c-.922.797-1.75 1.606-2.634 2.411-.483.439-1.215 1.178-2.182 1.369l-.13-.071c-.174-.851 2.873-2.969 3.776-3.869l.082-.083c-.882-.218-1.828-.392-2.741-.581-.794.687-3.166 3.366-4.325 3.623-.232.052-.268.017-.466-.019-.09-.177-.084-.282.082-.469.274-.312.72-.634 1.053-.937.863-.785 1.735-1.599 2.405-2.42l.083-.102-2.303-.543c-1.047 1.025-2.201 2.014-3.273 3.03-.879.833-1.652 1.744-2.737 2.524-.276.198-.492.337-.93.44-.269-.043-.262-.011-.365-.153-.124-.172-.051-.364.082-.546.708-.969 2.054-1.976 3.066-2.893.977-.885 1.853-1.785 2.867-2.661l-1.44-.397c-.798.792-3.237 3.493-4.637 3.818-.21-.026-.251.002-.309-.086-.352-.527 2.989-3.255 3.766-3.955l-2.355-.606c-.483.464-3.165 3.065-3.619 3.268-.279.125-.467.151-.801.151l-.131-.116c.129-.769 2.566-2.697 3.411-3.511a47.269 47.269 0 0 0-2.411-.499c-.856.697-2.769 2.786-3.739 3.202-.209.09-.229.064-.464.065-.119-.051-.258-.079-.274-.168-.089-.484 2.791-2.847 3.489-3.393-.77-.2-1.573-.373-2.366-.553-1.039.777-1.757 1.62-2.595 2.442-1.115 1.093-2.216 2.217-3.411 3.292-.361.324-.797.7-1.505.84-.31-.026-.304-.016-.462-.147.186-1.199 5.341-5.126 6.457-6.679a2.31 2.31 0 0 0 .043-.062c-.562-.148-1.696-.524-2.358-.433-.665.669-3.286 3.36-4.258 3.672-.207.066-.163.039-.418.01-.065-.062-.128-.11-.148-.186-.135-.507 3.114-3.151 3.814-3.798a33.486 33.486 0 0 0-2.761-.668c-.609.598-3.002 3.206-4.132 3.409-.207.037-.282-.015-.445-.057-.072-.146-.096-.198.018-.358.238-.335.771-.672 1.126-.99.83-.746 1.624-1.502 2.428-2.253-.803-.226-1.667-.413-2.504-.611-.063.07-.128.14-.194.21-.518.549-3.169 3.069-3.989 3.263-.351-.011-.363.002-.575-.127.072-.552 2.906-2.941 3.527-3.637l-2.192-.505c-2.224 1.812-3.918 3.762-5.987 5.611-.34.304-.717.655-1.374.779-.291-.051-.368-.092-.52-.226-.021-.179.008-.308.169-.484.242-.263.605-.505.879-.761l1.786-1.707c1.237-1.178 2.399-2.367 3.676-3.537-1.798-.231-3.614-.792-5.271-1.184-.778.741-2.159 2.333-3.214 2.91-.28.152-.418.205-.798.227l-.157-.101c.01-.765 2.293-2.533 3.096-3.277l-2.207-.535c-.477.535-2.895 3.119-3.746 3.33-.208.051-.25.012-.427-.024-.289-.547 2.459-2.865 3.156-3.526-.657-.17-1.342-.32-2.011-.479-1.23.993-2.187 2.044-3.348 3.052-.292.254-.476.425-1.039.53-.364-.051-.343-.048-.508-.218.043-.71 2.814-3.005 3.774-3.597l-2.053-.482c-1.592 1.308-2.97 2.754-4.33 4.118-.647.649-1.391 1.657-2.32 2.208-.218.129-.39.201-.714.187-.332-.013-.377-.074-.502-.205.031-.578 5.615-5.867 6.534-6.601-1.817-.47-3.593-.969-5.521-1.338-.755.908-2.427 2.606-3.652 3.347-.229.139-.375.229-.718.261l-.147-.155c.045-.843 2.61-2.843 3.532-3.667l-3.082-.655c-.624.59-2.97 3.08-3.609 3.364-.118.005-.16.011-.28-.008-.277-.042-.437-.127-.523-.261.632-.995 2.423-2.437 3.443-3.414-.948-.261-1.969-.471-2.959-.696-1.882 1.529-3.46 3.222-5.112 4.81-.483.465-.94 1.072-1.548 1.49-.237.163-.445.195-.797.247-.352-.081-.34-.09-.481-.276.326-.882 5.439-5.431 6.685-6.553-.802-.221-1.64-.415-2.465-.617-.789.727-1.66 1.435-2.44 2.163-.278.259-.488.562-.806.808-.284.219-.565.343-1.057.413-.173-.04-.273-.031-.316-.137-.218-.541 2.74-2.864 3.442-3.517-.637-.161-1.313-.293-1.973-.433-.984.932-1.912 1.906-2.955 2.822-.19.167-.389.255-.739.32-.314-.024-.37-.023-.582-.132.002-.495 2.533-2.732 3.144-3.318a22.7 22.7 0 0 0-2.353-.523c-1.06.957-1.941 1.953-2.996 2.909-.337.305-.722.601-1.38.726-.24-.041-.25-.008-.311-.112-.344-.577 2.76-3.159 3.534-3.822-.996-.257-2.056-.465-3.092-.687-1.046 1.037-5.298 5.33-6.523 5.77-.353.002-.347-.013-.592-.129-.06-.157-.015-.274.11-.432.429-.535 1.146-1.092 1.687-1.612l4.119-3.928c-.913-.342-2.085-.545-3.138-.776-1.176.962-2.036 2.203-3.448 3.074-.338.086-.375.096-.721.079l-.167-.138c.072-.65 2.384-2.56 3.1-3.275-.6-.17-1.255-.303-1.886-.447l-.884.777c-.362.535-2.166 2.34-3.054 2.679-.272.104-.308.1-.595.08-.068-.075-.087-.081-.108-.179-.109-.504 2.581-2.749 3.246-3.29.055-.083.172-.181.106-.258-.265-.313-1.734-.519-2.34-.646-.514.524-3.242 3.308-3.943 3.511-.338.098-.465.085-.77.039l-.102-.133c.138-.59 2.925-3.037 3.666-3.7-.995-.296-2.04-.511-3.123-.726a271.578 271.578 0 0 1-4.541 4.385c-.854.816-1.667 1.717-2.7 2.485-.313.233-.417.304-.94.383-.155-.029-.259-.021-.314-.11-.145-.233.133-.566.33-.799.517-.614 1.246-1.214 1.895-1.801 1.699-1.537 3.647-3.128 4.948-4.739l.063-.08c-.953-.328-2.006-.561-3.062-.805-.702.811-1.67 1.966-2.842 2.636-.247.142-.385.223-.745.246-.017-.02-.04-.037-.05-.058-.303-.575 2.008-2.447 2.681-3.019-.978-.259-2.004-.482-3.011-.716-.793.798-2.641 2.853-3.8 3.415-.365.006-.37.013-.624-.101-.187-.383 2.796-2.988 3.399-3.565-.789-.225-1.62-.414-2.442-.611-.571.659-3.249 3.579-4.18 3.957-.182.074-.146.044-.391.025-.067-.056-.122-.094-.152-.163-.199-.452 3.162-3.387 3.836-4.03a64.491 64.491 0 0 0-2.983-.754 384.757 384.757 0 0 0-4.03 3.94c-.765.767-1.46 1.579-2.335 2.32-.268.226-.513.409-.945.561-.327-.034-.36-.059-.58-.18-.13-.553 5.767-5.911 6.797-6.899-1.08-.31-2.332-.526-3.484-.776-.733.652-2.995 3.177-3.933 3.496-.327-.02-.343-.007-.527-.134.087-.784 2.487-2.808 3.333-3.614-.697-.193-1.446-.354-2.17-.525-.972.912-2.634 2.832-3.727 3.533-.375.102-.4.107-.79.087l-.1-.134c.253-.919 2.605-2.809 3.537-3.76-.694-.214-1.467-.448-2.293-.534-.771.773-2.849 3.108-4.102 3.588-.204.078-.119.063-.323.057-.022-.016-.05-.029-.065-.048-.114-.148.059-.474.185-.632.442-.552 2.522-2.511 3.19-3.061-.014-.166.055-.156-.212-.26-.652-.254-1.535-.41-2.308-.567-1.392 1.377-2.908 2.725-4.314 4.098-.797.779-1.47 1.653-2.385 2.396-.25.202-.647.51-1.075.619-.039.01-.081.015-.121.023-.233-.097-.22-.114-.229-.273-.043-.793 5.744-5.987 7-7.101a126.418 126.418 0 0 0-3.285-.817c-.523.618-1.67 2.209-2.868 2.536-.04.011-.082.017-.123.025-.205-.093-.195-.1-.176-.246.09-.72 1.558-1.841 2.309-2.507-.99-.236-1.969-.481-2.936-.736-.715.744-1.539 1.457-2.292 2.192-.438.427-.809.96-1.339 1.355-.175.131-.3.174-.563.247-.36.009-.346.009-.592-.107-.209-.506 3.064-3.282 3.787-3.935-.813-.221-1.617-.449-2.475-.631-.956.883-1.902 1.768-2.84 2.655-.381.364-.695.805-1.156 1.143-.189.14-.564.359-.869.429-.076.017-.158.018-.238.028-.145-.067-.12-.03-.125-.143-.028-.685 3.399-3.524 4.262-4.331a35.624 35.624 0 0 0-2.834-.65c-1.552 1.355-2.96 2.769-4.336 4.163-.706.715-1.332 1.481-2.172 2.165-.257.209-.47.373-.89.506-.222-.023-.272.003-.368-.11-.276-.327.329-.832.632-1.164 1.784-1.956 3.963-3.921 5.987-5.831a32.164 32.164 0 0 0-3.745-.846c-.832.76-1.705 2.069-2.968 2.642l-.327.033c-.132-.068-.226-.075-.203-.186.138-.676 1.822-2.112 2.561-2.777l-2.252-.553c-1.007.903-2.89 3.097-4.242 3.73l-.34.054c-.22-.11-.282-.129-.245-.312.066-.319 3.17-3.167 3.747-3.741a56.57 56.57 0 0 0-2.388-.558c-.592.554-2.909 3.039-3.754 3.234-.208-.052-.253-.03-.31-.16-.046-.101-.075-.206-.01-.315.217-.37 2.541-2.457 3.072-2.916Z" fill="#78787C"/>
        <path d="m49.004 96.902 72 1.25v17h-74l-12-8.25 14-10Z" fill="#050611"/>
        <path d="M-46.702 144.647c9.215-.173 18.417.235 27.627.496 10.064.284 20.09.434 30.121 1.342 1.257.113 2.98.016 4.148.483.313.125.199.033.343.373l-.323.303a8.19 8.19 0 0 1-.715.097c-3.696.344-7.627-.061-11.33-.208l-16.98-.624c-10.627-.43-21.332-.265-31.941-1-.498-.035-.854-.053-1.242-.371-.034-.448.08-.512.292-.891Z" fill="#fff"/>
        <path d="M50.736 135.039c43.155 6.167 74.78 1.002 97.05-34.644 11.336-18.144 27.675-22.568 34.418-38.672 12.3-29.376-46.73-38.657-64.615-30.406-20.19 9.313-4.356 13.18-57.037 48.74-10.724 7.24-74.175 45.785-9.816 54.982Z" stroke="#FC1447" stroke-width="2.464"/>
        <path d="M105.975-306.084c.968-.092 1.251-.196 2.142.247.673 1.23.424 1.935-.056 3.207-1.444 3.823-3.689 7.299-4.905 11.241-4.434 14.376-.951 32.996 1.732 47.534.465.452 1.322 1.203 1.573 1.803.569 1.361 1.454 14.168 1.692 16.434a2709.85 2709.85 0 0 1 6.864 85.158c1.029 18.618 1.362 37.289 2.648 55.891 18.968-.667 39.416.36 56.695 10.296 8.873-28.519 10.178-65.742 11.547-87.717.768-12.319 5.652-42.429 8.428-58.032 5.268-29.596 13.21-63.616 16.41-93.286.429-3.97 1.76-15.245 4.115-18.102.77-.313.639-.438 1.469-.104.4 1.092.416 2.099.343 3.255-.267 4.201-1.135 8.402-1.764 12.564a2001.71 2001.71 0 0 1-3.008 20.092 1359.594 1359.594 0 0 1-8.103 46.574c-5.372 29.259-11.391 58.245-13.936 87.954-2.705 31.575-2.107 66.51-11.188 96.964-9.295 31.172-16.738 58.367-2.524 99.585 5.135 14.89 2.779 21.796-1.396 26.94-3.653 4.501-8.368 7.23-12.818 10.808-3.939 3.166-7.533 6.834-10.874 10.619-11.42 12.94-24.206 32.937-40.859 39.045-4.086 1.498-8.128 1.497-12.315 2.353-4.19.857-8.003 2.552-12.364 2.698-2.692.092-5.044-.983-7.618-1.053-3.151-.084-6.419 1.389-9.636 1.456-2.976.062-5.366-1.56-8.237-1.704-2.211-.112-4.44.994-6.646 1.169-4.873.389-8.962-2.63-13.487-3.692-2.76-.648-6.397.024-8.619-2.054-1.602-1.499-2.228-4.477-2.2-6.58.035-2.66.955-4.451 2.876-6.222 2.21-2.036 5.381-4.811 8.353-5.509 10.868-2.554 41.553 3.477 53.25 6.636 4.826 1.303 10.067 3.984 15.015 4.166.954-.441 1.917-.885 2.836-1.396 10.967-6.098 26.161-24.253 34.012-34.492 1.639-2.137 4.353-4.896 5.065-7.447l-.345-.329c-1.228.343-2.166 1.097-3.035 2.02-2.274 2.412-4.163 5.36-6.284 7.932-7.719 9.364-21.739 26.273-32.575 31.228l-.494.223c-5.421-1.308-10.562-3.738-16.024-5.028a296.672 296.672 0 0 0-30.946-5.556c-5.288-.628-10.61-.89-15.902-1.504 2.09-2.08 4.728-3.683 7.1-5.428a160.302 160.302 0 0 0 9.022-7.248c11.502-10.004 28.469-23.934 36.234-36.946 32.03-53.674 17.408-116.768 14.151-176.776-2.825-49.807-16.204-103.486-14.15-153.034.396-9.577 3.621-18.792 8.736-26.853ZM-28.98 158.356c3.413-.063 30.87.619 32.736 1.682.27.154.195.065.261.348-.241.236-.52.237-.838.28-4.889.39-9.874-.122-14.768-.292-4.295-.149-8.57-.316-12.857-.613-1.453-.101-3.017-.082-4.447-.324-.42-.071-.745-.162-1.107-.389l-.055-.247c.309-.315.662-.354 1.074-.445Z" fill="#fff"/>
    </g>
</svg>
