<svg focusable="false" width="180" height="180" viewBox="0 0 180 180" fill="none" xmlns="http://www.w3.org/2000/svg">
    <path d="M90 178.5c-48.798 0-88.5-39.702-88.5-88.5S41.202 1.5 90 1.5s88.5 39.702 88.5 88.5-39.702 88.5-88.5 88.5Z" stroke="#fff" stroke-width="3"/>
    <mask id="a" style="mask-type:luminance" maskUnits="userSpaceOnUse" x="2" y="2" width="176" height="176">
        <path d="M90.002 177.785c48.468 0 87.759-39.292 87.759-87.76s-39.291-87.76-87.76-87.76c-48.468 0-87.759 39.292-87.759 87.76s39.291 87.76 87.76 87.76Z" fill="#fff"/>
    </mask>
    <g clip-path="url(#b)" fill="#fff" mask="url(#a)">
        <path d="M104.815 97.34c2.742.066 13.431-.435 15.116.478.242.409.2.55.189 1.014-1.905.073-14.235.214-15.116-.46-.213-.392-.203-.6-.189-1.031ZM111.447 78.124c1.912-.13 12.37-.04 13.797.464.328.116.451.205.607.51l-.103.28c-.35.328-.748.386-1.199.494-3.687.007-7.372-.222-11.06-.254-.887-.007-2.916.162-3.559-.492.002-.325.027-.405.276-.65.349-.346.785-.33 1.241-.352ZM-7.301 135.387c3.414-.063 30.871.619 32.737 1.682.27.154.195.065.261.348-.241.236-.52.237-.839.28-4.888.391-9.873-.122-14.768-.292-4.295-.149-8.569-.315-12.857-.613-1.452-.101-3.017-.082-4.446-.323-.421-.071-.745-.163-1.107-.39l-.055-.246c.309-.315.661-.355 1.074-.446ZM154.235 98.355c5.126-.44 10.582.027 15.74.088 6.775.071 13.548.222 20.319.454 3.103.124 6.394.089 9.453.6.6.1 1.604.184 1.97.698-.292.291-.49.244-.891.291-2.888.146-5.802-.017-8.691-.068l-17.826-.487-14.978-.311c-1.32-.035-2.658.06-3.973-.02-.68-.042-1.695-.14-2.213-.605l.01-.22c.317-.273.685-.326 1.08-.42ZM-5.375 114.345a994.082 994.082 0 0 1 17.864-.029c3.743.049 7.48.243 11.224.257 4.517.016 9.033-.046 13.55.064 1.98.048 4.057-.09 5.99.4l.127.274.043-.199.054.196-.127-.214.072.261c-1.026.53-2.348.469-3.48.56-1.699.055-3.394.214-5.094.237-4.688.064-9.404-.135-14.09-.239l-18.456-.34c-2.024-.043-9.052.148-10.503-.418-.302-.118-.477-.182-.615-.489.68-.438 2.588-.292 3.441-.321ZM116.879 164.555c7.845-.147 15.68.2 23.52.422 8.568.242 17.105.37 25.645 1.142 1.07.097 2.537.014 3.531.412.267.106.169.028.292.318l-.275.258a6.933 6.933 0 0 1-.608.082c-3.147.293-6.494-.052-9.647-.177l-14.456-.531c-9.047-.367-18.161-.226-27.194-.852-.423-.03-.726-.044-1.057-.316-.028-.381.068-.436.249-.758ZM30.097 77.725c2.465-.173 5.006.026 7.486.004 4.66-.043 9.546-.253 14.185.012.462.026.821.007 1.217.26.041.38.044.359-.182.666-.398.192-.73.277-1.17.32-.871.087-1.78.025-2.657.049l-6.35.18c-5.141.119-10.268.335-15.413.307-3.376.18-6.731.052-10.106.102-3.888.057-7.918.292-11.794-.03-.484-.04-.891-.115-1.302-.377L4 78.994c.533-.413 1.214-.533 1.87-.63 1.554-.234 3.24-.197 4.816-.274 6.466-.317 12.941-.038 19.411-.365ZM39.105 97.14c1.318-.052 2.636.121 3.954.149 1.456.03 3.597-.457 4.939.043.345.128.378.135.516.47-.036.104-.083.266-.15.352-.82 1.055-13.791.522-15.844.537-3.989.03-7.971.18-11.962.155l-15.86-.021c-2.126-.059-8.234.268-9.874-.738l.012-.196c.635-.307 1.35-.409 2.049-.478 1.47-.147 2.966-.097 4.443-.13 3.22-.072 6.424-.097 9.647-.067l18.605.106c3.176-.005 6.35-.065 9.525-.181ZM145.656 140.468c4.389-.38 8.995.151 13.396.202 12.525.252 25.047.624 37.565 1.115 1.65.074 12.208.459 12.963 1.286-.244.296-.424.285-.789.38-13.932-.147-27.858-.52-41.778-1.121l-13.52-.404c-2.414-.077-4.87-.083-7.271-.316-.589-.057-1.312-.122-1.802-.462l-.029-.201c.385-.341.771-.384 1.265-.479ZM149.599 117.22c2.247-.18 4.609.051 6.864.081 6.485.085 12.949.373 19.428.608l18.775.569c5.257.138 10.512.224 15.757.633 1.658.129 3.97.159 5.425.983l.038.209c-.392.192-.682.185-1.105.176-11.767-.106-23.527-.851-35.295-1.067a686.871 686.871 0 0 1-21.575-.642c-2.507-.095-6.528.036-8.854-.356-.483-.081-.914-.22-1.198-.631l.141-.202c.529-.271 1.017-.305 1.599-.361ZM5.412 159.892c4.314-.081 8.595.048 12.905.215 6.256.242 60.704 2.986 61.599 3.541.13.36.114.355-.02.718-4.865.148-9.8-.19-14.663-.42l-22.14-1.086-20.644-1.003c-3.24-.143-14.391-.386-16.958-1.334-.173-.285-.139-.297-.079-.631Z"/>
        <path d="M90.333-15.238c.11.05.245.108.338.183.247.2.422.41.378.743-.122.926-1.158 2.267-1.566 3.163-.378.83-.636 1.8-.851 2.682-1.144 4.686-1.097 9.634-1.291 14.432l-.743 21.347c-.357 8.698-.648 17.4-.874 26.102-.157 5-.602 10.106-.251 15.099 6.567.675 17.814 2.745 23.643 5.481 1.352-2.733 2.32-5.85 3.423-8.7 4.894-12.66 9.127-25.551 9.471-39.24.088-4.148.036-8.294-.157-12.437-.178-3.957-.812-8.891-.073-12.756.301-1.574 1.073-3.114 2.085-4.35 1.018-1.247 2.317-2.267 3.637-3.173 2.414-1.658 12.908-7.603 15.26-7.72.335-.017.483-.003.742.225-.096.643-.638 1.045-1.16 1.38-1.205.77-2.653 1.317-3.94 1.952-4.002 1.977-8.566 4.056-11.97 7-1.219 1.053-2.253 2.455-2.731 4.006-.866 2.81-.181 11.155-.017 14.537.375 7.704.209 15.46-1.055 23.089-1.988 11.997-6.661 23.64-11.122 34.892-2.979 7.513-6.204 15.078-7.853 23.02a55.019 55.019 0 0 0-.439 2.278 54.012 54.012 0 0 0-.291 16.182c.472 3.453 1.444 7.052 1.145 10.553a10.493 10.493 0 0 1-.248 1.59 11.268 11.268 0 0 1-.695 2.027 10.233 10.233 0 0 1-.496.952 10.85 10.85 0 0 1-2.425 2.845c-4.246 3.507-7.135 2.785-12.096 2.43a32.095 32.095 0 0 0-5.188.07c-6.614.562-13.334 1.514-19.525 4.006-2.927 1.177-5.539 2.882-8.624 3.742-2.728.76-5.94.095-8.366.828-.741.224-1.458.724-2.116 1.122-1.811 1.094-3.629 1.416-5.722 1.212-1.889-.184-4.245-1.098-5.43-2.632-.946-1.225-.62-2.584-.4-3.992-.804-.445-1.65-.827-2.132-1.65-.855-1.461-.067-3.76.373-5.264 2.226-7.599 8.515-7.818 15.104-9.396 3.788-.907 8.029-2.17 11.442-4.061l.158-.089c-1.284-3.545-2.909-7.088-4.522-10.495-.879-1.858-2.34-4.057-2.763-6.048-.726-3.416 9.267-24.712 9.173-31.558-.036-2.637-2.046-7.845-2.891-10.513L50.329 40.14l-4.75-15.034c-1.039-3.355-1.965-6.772-3.163-10.073C40.92 9.47 38.99 4.016 37.487-1.558c-.427-1.584-1.145-3.552-1.19-5.194-.01-.377-.005-.55.259-.822.332.098.513.204.7.511.454.747.8 2.569 1.093 3.473C39.77.753 41.168 5.105 42.537 9.465l10.189 32.04c2.239 7.012 4.646 13.98 6.602 21.081.731 2.653 1.736 5.796 1.615 8.555-.091 2.098-.833 4.42-1.387 6.444-1.342 4.898-3 9.659-4.678 14.447-1.038 2.961-2.287 5.986-2.93 9.059l-.029.146c.535 2.104 1.901 4.057 2.823 6.015 1.632 3.463 3.193 7.099 4.413 10.728 2.609-1.27 5.122-3.522 6.876-5.811-.319-2.473-.579-5.299-1.42-7.645-1.15-.713-3.572-1.111-4.266-2.346l.195-.153c1.441-.041 2.613.538 3.919 1.062a89.418 89.418 0 0 0-.52-1.895c-.368-1.338-1.703-1.8-2.235-2.975-.112-.248-.1-.139.004-.4.686-.139 1.356.22 1.934.56 3.42 2.022 4.035 15.746 5.016 19.631.309-.325.648-.628.973-.937.759-.024 1.562-.098 2.253.258.362.44.54.919.69 1.466.155.57.536 1.844.246 2.353-.735-.86-.046-2.413-1.255-3.235-.769-.522-1.882-.142-2.702.042.162 1.117-.024 2.397.362 3.462.142.392.402.71.814.84.953.303 2.408-.342 3.29-.716 1.02-2.756 1.27-5.531.894-8.427-.22-1.698-.48-3.299-.212-5.011.297-1.89.65-3.973 1.246-5.79 1.16-3.534 3.026-6.844 3.224-10.638.11-2.127-.051-4.43-.512-6.512-.369-1.662-1.045-3.45-.995-5.16l.153-.145c.043.02.089.036.129.062.92.605 1.588 3.178 1.953 4.253.016-2.978-.153-6.033-.66-8.969-.926-5.367-2.598-10.528-3.367-15.95-1.268-8.94-1.918-18.045-2.7-27.043l-1.43-18.491c-.475-6.435-.965-12.815-1.164-19.268-.04-1.288-.39-3.871-.008-5.02.093-.281.098-.271.378-.404l.194.156c.815 1.776.69 5.29.87 7.318l1.723 21.379c.695 9.851 1.529 19.69 2.501 29.519.366 3.778.572 7.586 1.1 11.345.304 2.157.664 4.326 1.164 6.447 1.234 5.239 3.015 10.777 3.067 16.188.009.885.071 1.887-.067 2.755-.156.983-.563 1.961-.646 2.952-.2 2.396.255 4.706-.394 7.086-1.017 3.73-3.194 6.518-3.337 10.548 3.67-4.523 6.056-17.951 6.723-24.035.293-2.675.35-5.351.443-8.038.2-5.764.205-11.528.326-17.293l.89-30.455c.165-4.82.213-9.673.505-14.486.141-2.34.491-4.67.672-7.008.223-2.87.2-5.773.51-8.633.313-2.893 1.437-8.076 3.831-10.011Z"/>
        <path d="M147.091-14.648c.404.057.53.043.85.311.154.568-.017.832-.338 1.304-.965 1.419-2.223 2.617-3.107 4.107-3.224 5.434-3.632 13.378-3.966 19.578.145.23.421.621.465.89.098.612-.799 5.928-.925 6.877a1136.575 1136.575 0 0 1-5.569 35.443c-1.41 7.703-3.11 15.359-4.413 23.08 1.796.366 3.628.402 5.434.83 5.072 1.204 12.235 4.73 15.991 8.286 2.01-2.206 3.497-3.872 4.703-6.638-1.586.518-3.392 1.252-5.027.524-1.277-.57-1.756-1.691-2.245-2.9.484-3.155 1.96-5.915 2.762-8.96.735-2.789.811-5.708 1.624-8.473 2.16-7.35 9.4-15.693 14.314-21.475 1.928-2.268 6.148-6.969 7.142-9.688.786-2.148.864-6.322 1.045-8.739.247-3.283.481-6.61.952-9.87.586-4.052 1.756-6.28 4.954-8.842a28.834 28.834 0 0 1 4.568-2.94c.843-.425 2.203-.876 2.776-1.665.736-1.014 1.076-2.515 1.496-3.69.566-1.58 2.218-6.052 3.46-6.987.345-.052.304-.116.61.103.056.485-.036.897-.18 1.362-.522 1.689-1.289 3.319-1.955 4.956a833.988 833.988 0 0 1-3.204 7.908 571.541 571.541 0 0 1-7.886 18.219c-1.214 2.734-2.321 5.517-3.643 8.205a49.403 49.403 0 0 1-3.413 5.83c-1.839 2.719-4.058 5.184-6.184 7.679-4.395 5.159-8.792 10.371-11.934 16.42-1.878 3.616-1.977 7.254-2.765 11.158-.333 1.655-.937 3.257-1.48 4.853.426.117.843.26 1.251.429 1.116.452 1.709.949 2.181 2.07-.608 1.05-1.523 2.562-2.615 3.158-.206.112-.389.22-.582.352.217.166.403.203.668.239.819.112 1.483-.232 2.175-.644 3.632-2.16 4.281-7.193 5.621-10.817.783-2.119 1.756-4.128 2.783-6.136.353-.69.907-1.954 1.607-2.335.353-.191.445-.161.811-.074l.09.274c-.303 1.543-1.492 2.986-2.07 4.48-2.254 5.825-3.94 13.413-7.069 18.693-1.593 2.687-3.976 4.74-5.76 7.302-.631.907-2.163 2.997-1.82 4.16.103.35.289.588.631.734 1.144.49 3.209-.596 4.247-1.093 2.916-1.397 7.498-4.81 9.552-7.243 2.854-3.381 5.565-8.695 7.665-12.698.494-.941.877-1.957 1.429-2.864.313-.513.668-1.094 1.237-1.343l.192.218c.033.218-.014.495-.058.713-.199.993-.74 1.87-1.158 2.78-2.044 4.448-5.003 10.423-8.13 14.088-1.76 2.063-3.749 3.663-5.954 5.22 2.316-.575 5.063-.984 7.204-2.024 3.283-1.596 4.9-5.568 6.524-8.616.844-1.584 1.737-3.14 2.576-4.73.531-1.006 1.822-3.785 2.508-4.461l.268.034.189.28c-.146 2.325-2.446 6.572-3.377 8.927 1.855-2.556 4.145-5.253 5.595-8.048 1.035-1.996 1.596-4.32 2.243-6.463a235.225 235.225 0 0 0 3.867-14.193c.742-3.03 1.235-6.197 2.321-9.124 1.717-4.633 6.124-10.73 8.772-15.228 3-5.126 6.253-10.136 9.396-15.177 2.6-4.172 5.117-8.471 7.863-12.545.376-.558.969-1.54 1.657-1.675.282.143.351.255.496.533.022.363-.028.62-.192.941-.316.619-.79 1.18-1.164 1.768-.725 1.136-1.421 2.293-2.126 3.441-2.825 4.62-5.68 9.22-8.567 13.801-3.132 4.989-6.157 10.033-9.216 15.066-1.782 2.932-3.943 5.907-5.236 9.084-1.166 2.864-1.726 6.21-2.465 9.22-1.343 5.47-2.743 10.868-4.418 16.247-.507 1.629-.919 3.516-1.715 5.02-1.792 3.389-4.598 6.592-7.098 9.48-1.67 1.928-5.103 6.112-7.109 7.368-2.407 1.507-8.158 2.658-11.061 3.435-1.912.511-4.567 1.707-6.386 1.836-.633 1.926-1.919 3.693-2.717 5.567-2.533 5.949-5.033 13.365-5.406 19.851-.271 4.702 1.186 9.514.602 14.147-.347 2.757-1.598 5.042-3.808 6.732-1.934 1.479-4.128 2.129-6.296 3.153-1.92.905-3.748 2.05-5.484 3.266-5.935 4.161-13.121 11.068-20.52 11.925-1.816.21-3.466-.188-5.26-.25-1.795-.062-3.518.255-5.313-.114-1.108-.227-1.963-.897-3.007-1.179-1.278-.344-2.757-.064-4.077-.353-1.221-.267-2.038-1.164-3.196-1.505-.891-.263-1.91-.031-2.828-.176-2.028-.32-3.4-1.955-5.143-2.833-1.064-.536-2.615-.619-3.318-1.686-.507-.77-.47-2.047-.251-2.903.276-1.082.827-1.723 1.786-2.257 1.102-.614 2.67-1.436 3.952-1.428 4.688.025 16.623 5.504 21.089 7.944 1.842 1.006 3.718 2.616 5.72 3.176.433-.086.87-.173 1.295-.291 5.078-1.411 13.066-7.33 17.278-10.739.879-.711 2.258-1.571 2.8-2.542l-.109-.168c-.535.019-.992.235-1.437.526-1.166.761-2.227 1.779-3.346 2.621-4.072 3.064-11.458 8.59-16.369 9.547l-.224.043c-2.085-1.067-3.945-2.565-6.048-3.628a124.713 124.713 0 0 0-12.089-5.311c-2.097-.776-4.245-1.406-6.344-2.177 1.057-.644 2.292-1.039 3.432-1.519a66.752 66.752 0 0 0 4.396-2.072c5.68-2.954 10.499-7.304 14.948-11.853 13.597-13.902 15.934-23.672 20.669-41.742 1.62-6.183 2.853-12.429 4.009-18.723.613-3.335 1.341-6.65 1.956-9.988a1104.067 1104.067 0 0 0 7.274-45.427c.847-6.14.272-12.41 1.992-18.446 1.104-3.871 3.326-7.316 6.207-10.104Z"/>
    </g>
    <defs>
        <clipPath id="b">
            <path fill="#fff" transform="translate(-37 -65)" d="M0 0h282v282H0z"/>
        </clipPath>
    </defs>
</svg>
