<svg focusable="false" width="180" height="180" viewBox="0 0 180 180" fill="none" xmlns="http://www.w3.org/2000/svg">
    <path d="M90 178.5c-48.798 0-88.5-39.702-88.5-88.5S41.202 1.5 90 1.5s88.5 39.702 88.5 88.5-39.702 88.5-88.5 88.5Z" stroke="#fff" stroke-width="3"/>
    <mask id="a" style="mask-type:luminance" maskUnits="userSpaceOnUse" x="3" y="2" width="174" height="175">
        <path d="M90 177c48.049 0 87-39.175 87-87.5S138.049 2 90 2 3 41.175 3 89.5 41.951 177 90 177Z" fill="#fff"/>
    </mask>
    <g mask="url(#a)">
        <path fill="url(#b)" fill-opacity=".66" d="M-66.5 68h295v37h-295z"/>
        <path fill="#FC1447" d="M-66.5 96h295v9h-295z"/>
        <path d="M117.982-52.442c.431-.041.557-.088.954.11.299.547.188.861-.025 1.427-.643 1.703-1.643 3.25-2.184 5.005-1.974 6.4-.423 14.69.771 21.163.207.202.589.536.7.803.254.606.648 6.308.754 7.317a1207.88 1207.88 0 0 1 3.056 37.915c.458 8.289.606 16.602 1.179 24.884 8.444-.297 17.549.16 25.242 4.584 3.95-12.698 4.531-29.27 5.141-39.054.342-5.485 2.516-18.89 3.752-25.837 2.345-13.177 5.882-28.324 7.306-41.533.191-1.768.784-6.788 1.832-8.06.343-.14.285-.195.655-.046.178.486.185.934.152 1.449-.119 1.87-.505 3.74-.785 5.594a898.973 898.973 0 0 1-1.34 8.945 603.831 603.831 0 0 1-3.607 20.736c-2.392 13.027-5.072 25.932-6.205 39.16-1.204 14.057-.938 29.612-4.981 43.17-4.138 13.879-7.452 25.987-1.124 44.338 2.286 6.629 1.238 9.704-.621 11.994-1.627 2.004-3.726 3.219-5.707 4.812-1.754 1.41-3.354 3.043-4.841 4.728-5.085 5.761-10.778 14.664-18.192 17.384-1.819.667-3.619.666-5.483 1.048-1.866.381-3.563 1.136-5.505 1.201-1.198.041-2.245-.438-3.392-.469-1.402-.038-2.857.618-4.29.648-1.325.028-2.389-.694-3.667-.758-.984-.05-1.977.442-2.96.52-2.168.173-3.99-1.171-6.004-1.644-1.229-.288-2.848.011-3.837-.914-.713-.668-.992-1.994-.98-2.93.016-1.184.425-1.982 1.281-2.77.984-.906 2.396-2.142 3.719-2.453 4.839-1.137 18.5 1.548 23.708 2.955 2.149.58 4.482 1.774 6.685 1.854a19.18 19.18 0 0 0 1.263-.621c4.882-2.715 11.647-10.798 15.143-15.357.729-.951 1.938-2.18 2.255-3.315l-.154-.147c-.547.153-.964.489-1.351.899-1.012 1.074-1.854 2.387-2.798 3.532-3.436 4.169-9.678 11.698-14.503 13.903l-.22.1c-2.413-.582-4.703-1.664-7.134-2.239a132.12 132.12 0 0 0-13.778-2.473c-2.355-.28-4.724-.396-7.08-.67.93-.926 2.105-1.64 3.16-2.417a71.299 71.299 0 0 0 4.018-3.227c5.121-4.454 9.008-10.134 12.466-15.926 14.26-23.898 11.417-52.511 9.966-79.228-1.257-22.176-7.214-46.075-6.3-68.135.177-4.264 1.613-8.366 3.89-11.955Z" fill="#fff"/>
        <path d="M59.888-55.192c.43-.041.557-.087.953.11.3.547.19.861-.025 1.428-.642 1.702-1.642 3.25-2.183 5.004-1.975 6.401-.424 14.69.771 21.163.207.202.588.536.7.803.253.606.648 6.308.754 7.317a1206.661 1206.661 0 0 1 3.055 37.915c.459 8.289.607 16.602 1.18 24.884 8.444-.297 17.724-.856 25.417 3.568 3.95-12.697 4.356-28.254 4.966-38.038.341-5.485 2.516-18.89 3.752-25.837 2.345-13.177 5.881-28.324 7.306-41.533.191-1.768.784-6.788 1.832-8.06.343-.14.285-.195.654-.046.178.486.186.934.153 1.449-.119 1.87-.505 3.74-.785 5.594a898.973 898.973 0 0 1-1.34 8.945 606.273 606.273 0 0 1-3.607 20.736c-2.392 13.027-5.072 25.932-6.205 39.16-1.205 14.058-.938 29.612-4.981 43.17-4.138 13.879-7.777 26.004 0 44.494 2.379 5.656.114 9.548-1.745 11.838-2.891 3.562-9.388 6.421-12.53 9.979-5.56 6.3-14.475 18.331-23.62 20.201-5.468-.828-8.296 2.424-11.26-.828-4.603.097-8.278-.86-12.63-1.882-2.697-.632-5.815-2.427-2.182-5.774.983-.907 2.313-3.326 3.636-3.637 4.839-1.137 17.228 1.893 22.436 3.299-.214 0 1.927-.502-.814-1.39a132.114 132.114 0 0 0-13.778-2.474c-2.355-.28-4.725-.396-7.08-.67 2.128-2.118 4.897-3.672 7.177-5.644 5.122-4.454 9.01-10.133 12.466-15.926C62.896 86.422 62.88 75.772 63.275 55.972c.136-6.776-.144-13.52-.513-20.294-.196-3.59-.269-7.187-.464-10.78-.92-16.235-2.18-32.444-3.776-48.627-.65-6.54-2.8-12.859-2.524-19.508.177-4.264 1.613-8.366 3.89-11.955ZM84.132 120.305c2.741.066 13.43-.435 15.115.478.242.409.2.55.19 1.014-1.905.073-14.235.214-15.117-.459-.212-.394-.203-.601-.188-1.033ZM-27.98 158.356c3.413-.063 30.87.619 32.736 1.682.27.154.195.065.261.348-.241.236-.52.237-.838.28-4.889.39-9.874-.122-14.768-.292-4.295-.149-8.57-.316-12.857-.613-1.453-.101-3.017-.082-4.447-.324-.42-.071-.745-.162-1.107-.389l-.055-.247c.309-.315.662-.354 1.074-.445ZM133.552 121.328c5.126-.441 10.581.026 15.739.087a865.73 865.73 0 0 1 20.319.454c3.103.124 6.395.089 9.453.6.601.1 1.605.184 1.971.699-.293.291-.49.243-.892.291-2.887.146-5.802-.017-8.69-.069l-17.826-.486-14.978-.312c-1.32-.034-2.658.061-3.974-.02-.68-.042-1.694-.138-2.213-.605l.011-.22c.316-.273.685-.325 1.08-.419ZM-26.058 137.313c5.954-.062 11.909-.072 17.863-.028 3.743.049 7.48.243 11.225.257 4.517.016 9.033-.047 13.55.063 1.98.049 4.057-.089 5.99.4l.126.275.044-.199.054.195-.128-.213.072.26c-1.026.531-2.348.469-3.48.561-1.698.055-3.394.214-5.094.237-4.687.063-9.404-.136-14.09-.239l-18.456-.34c-2.024-.043-9.052.147-10.502-.418-.303-.118-.477-.182-.616-.489.68-.439 2.588-.292 3.442-.322ZM18.421 120.106c1.319-.053 2.637.12 3.954.148 1.456.03 3.597-.457 4.94.043.345.128.377.135.515.469-.035.105-.082.267-.15.353-.82 1.054-13.79.522-15.844.537-3.988.03-7.97.181-11.961.155l-15.861-.021c-2.125-.059-8.234.268-9.873-.738l.012-.196c.635-.307 1.35-.409 2.048-.478 1.471-.147 2.966-.097 4.443-.13 3.221-.073 6.425-.097 9.647-.067l18.605.106c3.176-.005 6.351-.065 9.525-.181ZM128.919 140.193c2.247-.18 4.609.051 6.864.08 6.485.086 12.949.374 19.429.609l18.774.569c5.257.138 10.512.224 15.757.633 1.659.129 3.971.159 5.425.982l.038.21c-.392.192-.682.184-1.104.176-11.767-.107-23.528-.851-35.296-1.067a683.85 683.85 0 0 1-21.575-.643c-2.506-.095-6.527.037-8.854-.355-.483-.081-.914-.221-1.197-.631l.14-.202c.53-.271 1.017-.305 1.599-.361ZM17.575 153.027c6.646-.089 13.242.053 19.882.237 9.64.267 93.526 3.293 94.904 3.905.203.397.176.391-.03.791-7.495.163-15.1-.209-22.591-.462L75.63 156.3l-31.807-1.106c-4.99-.158-22.172-.425-26.126-1.471-.267-.314-.214-.328-.122-.696Z" fill="#fff"/>
    </g>
    <defs>
        <linearGradient id="b" x1="-66.5" y1="86.5" x2="228.5" y2="86.5" gradientUnits="userSpaceOnUse">
            <stop stop-color="#fff"/>
            <stop offset="1" stop-color="#999"/>
        </linearGradient>
    </defs>
</svg>
