<svg width="1015" height="735" viewBox="0 0 1015 735" fill="none" xmlns="http://www.w3.org/2000/svg">
<path d="M672.774 10.8737L617.975 109.964L675.262 109.848L732.55 109.731L672.774 10.8737Z" fill="#989898"/>
<path d="M692.208 109.813L674.476 109.849L657.577 109.884L657.176 208.065L692 206.154L692.208 109.813Z" fill="#989898"/>
<path d="M513.828 225.028C513.828 225.028 542.619 197.131 614.307 205.253C685.995 213.376 756.55 206.928 753.839 178.742C751.127 150.556 745.016 108.942 771.084 102.339C797.179 95.726 813.241 114.785 813.241 114.785C845.495 137.501 858.831 180.111 858.831 180.111L885.317 214.002L910.929 283.051C910.929 283.051 899.161 303.628 834.728 335.4C770.285 367.143 650.535 417.472 585.227 453.93C519.919 490.388 449.167 537.881 316.857 585.694C184.576 633.497 137.069 625.564 113.143 613.791L101.688 580.151C101.688 580.151 99.6156 560.554 165.941 521.462C232.267 482.37 274.681 446.056 274.681 446.056" stroke="white" stroke-width="2" stroke-linejoin="round"/>
<path d="M858.857 180.101C858.857 180.101 844.985 231.588 840.188 234.368C835.391 237.147 792.116 242.728 792.116 242.728L805.161 186.547L794.653 177.089" stroke="white" stroke-width="2" stroke-linejoin="round"/>
<path d="M311.431 421.408C308.234 424.353 306.387 426.002 306.221 426.059C304.174 426.757 299.461 424.162 299.461 424.162L274.725 446.01C274.725 446.01 310.961 465.822 358.957 433.569C406.953 401.315 543.338 280.046 554.411 273.21C565.485 266.374 601.039 268.494 614.915 262C628.792 255.506 652.43 229.706 652.43 229.706" stroke="white" stroke-width="2" stroke-linejoin="round"/>
<path d="M354.789 380.786C344.235 390.69 334.774 399.541 327.104 406.761" stroke="white" stroke-width="2" stroke-linejoin="round"/>
<path d="M395.637 342.595C388.022 349.704 380.517 356.682 373.334 363.428" stroke="white" stroke-width="2" stroke-linejoin="round"/>
<path d="M438.113 303.294C429.956 310.804 421.614 318.501 413.283 326.225" stroke="white" stroke-width="2" stroke-linejoin="round"/>
<path d="M475.984 268.87C468.368 275.702 460.172 283.101 451.674 290.882" stroke="white" stroke-width="2" stroke-linejoin="round"/>
<path d="M509.609 239.661C504.039 244.25 497.173 250.114 489.399 256.937" stroke="white" stroke-width="2" stroke-linejoin="round"/>
<path d="M811.8 113.267C777.427 105.181 783.109 129.666 786.98 143.303C790.852 156.939 809.774 194.461 762.035 219.581C714.305 244.729 667.801 231.849 618.815 224.018C571.338 216.446 544.508 220.899 525.813 228.388" stroke="white" stroke-width="2" stroke-linejoin="round"/>
<path d="M101.704 580.114L96.4568 586.106L111.542 630.406C111.542 630.406 114.104 669.398 232.111 664.01C350.119 658.622 446.702 634.119 535.725 593.034C624.748 551.949 708.9 524.764 788.876 502.092C868.853 479.42 920.872 443.292 943.58 409.866C966.289 376.441 983.14 357.282 970.035 336.843C970.035 336.843 945.155 317.732 930.222 297.546C915.316 277.351 910.927 283.051 910.927 283.051" stroke="white" stroke-width="2" stroke-linejoin="round"/>
<path d="M877.371 203.823C877.371 203.823 861.597 262.419 857.38 263.548C853.173 264.704 811.189 271.266 807.415 273.697C803.642 276.127 629.456 430.932 629.456 430.932" stroke="white" stroke-width="2" stroke-linejoin="round"/>
<path d="M883.602 211.776C883.602 211.776 868.639 268.673 865.125 269.872C861.611 271.07 814.439 279.989 811.589 280.961C808.74 281.933 652.971 419.547 652.971 419.547" stroke="white" stroke-width="2" stroke-linejoin="round"/>
<path d="M598.395 221.372C598.395 221.372 559.832 254.487 555.947 255.411C552.071 256.362 521.489 261.044 520.466 261.393C519.442 261.742 514.439 287.584 514.439 287.584L415.832 370.257L386.34 380.316L380.001 399.969C380.001 399.969 350.2 425.986 333.744 433.885C317.289 441.784 286.937 435.17 286.937 435.17" stroke="white" stroke-width="2" stroke-linejoin="round"/>
<path d="M538.847 231.576C528.633 231.414 488.819 215.696 479.364 214.316C469.908 212.936 462.594 226.37 464.263 228.459C465.941 230.575 512.138 240.284 526.715 243.193C541.292 246.102 545.892 238.754 538.847 231.576Z" stroke="white" stroke-width="2" stroke-linejoin="round"/>
<path d="M464.262 228.46C464.262 228.46 465.102 242.173 470.529 257.566C475.956 272.959 490.052 289.599 498.547 281.355C502.746 276.276 495.184 266.401 491.589 260.922C487.993 255.442 479.061 232.838 479.061 232.838" stroke="white" stroke-width="2" stroke-linejoin="round"/>
<path d="M468.486 275.598C446.704 277.556 431.429 272.599 431.519 269.509C431.609 266.418 435.444 258.003 440.311 255.972C445.178 253.941 469.293 253.937 469.293 253.937" stroke="white" stroke-width="2" stroke-linejoin="round"/>
<path d="M445.957 275.184C455.781 299.862 458.96 317.629 452.486 319.837C443.743 322.819 439.107 308.114 435.242 292.775C431.35 277.446 431.519 269.508 431.519 269.508" stroke="white" stroke-width="2" stroke-linejoin="round"/>
<path d="M481.649 214.772C533.675 136.86 553.327 143.971 567.408 166.734C567.408 166.734 589.084 173.712 599.223 204.031" stroke="white" stroke-width="2" stroke-linejoin="round"/>
<path d="M335.414 398.981C328.561 395.632 331.721 387.23 336.624 380.953C341.527 374.677 355.162 380.441 355.162 380.441" stroke="white" stroke-width="2" stroke-linejoin="round"/>
<path d="M331.664 390.865C317.515 393.93 313.034 405.254 311.465 416.698C309.897 428.142 318.384 434.024 325.188 429.973C331.991 425.922 327.388 406.509 327.388 406.509L334.663 399.67" stroke="white" stroke-width="2" stroke-linejoin="round"/>
<path d="M430.987 309.836C404.271 316.351 403.142 316.025 402.559 311.774C401.976 307.523 410.001 298.173 410.728 297.77C411.456 297.367 434.722 290.607 434.722 290.607" stroke="white" stroke-width="2" stroke-linejoin="round"/>
<path d="M413.347 313.903C413.347 313.903 413.024 335.986 413.873 345.554C414.723 355.123 402.692 357.063 395.755 342.494C388.827 327.952 402.692 309.997 402.692 309.997" stroke="white" stroke-width="2" stroke-linejoin="round"/>
<path d="M373.849 353.611C371.698 364.975 380.311 386.915 371.911 391.356C363.511 395.797 354.69 393.922 356.039 375.94C357.389 357.958 369.125 345.178 369.125 345.178L373.859 353.639L373.849 353.611Z" stroke="white" stroke-width="2" stroke-linejoin="round"/>
<path d="M393.847 334.615C382.57 337.41 369.118 345.15 369.118 345.15L373.851 353.61L382.218 355.145" stroke="white" stroke-width="2" stroke-linejoin="round"/>
<path d="M590.829 203.775C587.484 187.331 556.898 149.925 491.763 217.721" stroke="white" stroke-width="2" stroke-linejoin="round"/>
<path d="M793.578 168.494C793.578 168.494 811.356 182.888 811.705 183.913C812.054 184.937 801.251 233.648 801.251 233.648L836.759 228.831L855.62 171.593" stroke="white" stroke-width="2" stroke-miterlimit="10"/>
<path d="M112.434 633.563C112.434 633.563 138.154 663.482 253.158 652.629C368.161 641.776 466.77 611.977 526.183 584.05C585.596 556.124 660.452 525.217 735.642 504.177C810.805 483.148 812.52 482.562 814.236 481.977C815.951 481.392 948.29 442.191 970.074 336.86" stroke="white" stroke-width="2" stroke-linejoin="round"/>
<path d="M656.535 406.897C656.535 406.897 584.854 439.874 519.624 481.095C454.394 522.317 194.028 644.398 111.113 607.748" stroke="white" stroke-width="2" stroke-miterlimit="10"/>
<path d="M530.615 584.372C535.913 600.925 538.054 617.671 536.191 634.325L473.555 667.173C458.475 583.793 339.657 492.106 268.16 449.872C242.633 434.792 224.24 425.827 217.217 426.061L245.48 364.03C301.371 362.171 494.794 479.825 533.536 594.858C533.776 595.571 530.387 583.659 530.615 584.372Z" fill="#FFCD01"/>
<path fill-rule="evenodd" clip-rule="evenodd" d="M217.217 426.061L232.011 476.465L268.16 449.872C242.633 434.792 224.24 425.827 217.217 426.061Z" fill="white"/>
<path d="M563.004 581.572L536.191 634.325C538.054 617.671 535.913 600.925 530.615 584.372C530.387 583.659 533.776 595.571 533.536 594.858L563.004 581.572Z" fill="white"/>
<path d="M776.013 576.652C778.383 553.059 775.527 529.319 768.549 505.842C768.285 504.955 771.416 515.648 769.496 509.119L812.584 496.416L776.013 576.652Z" fill="white"/>
<path fill-rule="evenodd" clip-rule="evenodd" d="M358.862 280.327C368.029 280.022 371.374 277.554 404.753 299.019L399.467 311.061L394.054 320.91L390.468 332.017L372.702 339.64L358.862 280.327Z" fill="white"/>
<path d="M776.013 576.652L688.992 612.6C668.997 494.384 498.238 359.136 404.753 299.019C371.374 277.554 368.029 280.022 358.862 280.327L395.524 192.527C468.532 190.098 718.759 345.813 769.496 509.119C771.416 515.648 768.285 504.955 768.549 505.842C775.527 529.319 778.383 553.059 776.013 576.652Z" fill="#FFCD01"/>
<path d="M564.191 325.005L567.533 327.482L554.195 345.478L550.853 343.001L564.191 325.005ZM541.547 336.103L538.205 333.626L551.543 315.63L554.885 318.107L541.547 336.103ZM556.827 335.479L546.98 328.181L549.095 325.328L558.942 332.626L556.827 335.479Z" fill="#212121"/>
<path d="M558.631 349.189L580.84 338.695L583.955 341.354L577.104 364.957L573.794 362.131L580.307 341.143L581.573 342.223L561.892 351.972L558.631 349.189ZM565.525 348.258L568.496 346.502L577.697 354.355L576.429 357.565L565.525 348.258Z" fill="#212121"/>
<path d="M583.756 370.624L599.176 354.377L610.201 364.841L607.755 367.372L599.004 359.067L600.384 359.008L586.726 373.444L583.756 370.624Z" fill="#212121"/>
<path d="M601.494 389.048L617.637 373.517L624.026 380.159C625.402 381.588 626.347 383.032 626.862 384.491C627.392 385.965 627.492 387.392 627.164 388.774C626.836 390.156 626.079 391.416 624.896 392.555C623.712 393.694 622.423 394.401 621.03 394.676C619.637 394.95 618.214 394.795 616.762 394.208C615.324 393.637 613.918 392.637 612.542 391.207L607.75 386.226L610.443 386.211L604.379 392.045L601.494 389.048ZM610.121 386.521L610.287 383.786L614.946 388.629C616.218 389.951 617.448 390.676 618.638 390.805C619.858 390.934 620.975 390.51 621.989 389.534C623.019 388.543 623.486 387.443 623.388 386.234C623.306 385.041 622.628 383.783 621.356 382.461L616.697 377.618L619.46 377.536L610.121 386.521Z" fill="#212121"/>
<path d="M634.685 404.395L642.072 412.728L639.509 415L632.122 406.667L634.685 404.395ZM627.713 411.003L636.098 420.462L633.488 422.775L622.343 410.204L639.106 395.345L649.953 407.581L647.343 409.895L639.255 400.771L627.713 411.003Z" fill="#212121"/>
<path d="M645.841 436.286L661.188 423.612L661.03 425.029L655.691 418.564L658.405 416.323L670.469 430.929L667.755 433.171L662.416 426.706L663.816 426.794L648.47 439.469L645.841 436.286Z" fill="#212121"/>
<path d="M677.859 452.077C679.477 454.196 680.251 456.195 680.182 458.073C680.113 459.951 679.129 461.615 677.229 463.065C675.229 464.593 673.226 465.115 671.22 464.633C669.245 464.155 667.396 462.789 665.675 460.533L659.83 452.878L677.634 439.285L680.119 442.54L674.091 447.142L677.859 452.077ZM668.102 458.439C669.072 459.711 670.12 460.468 671.244 460.71C672.381 460.969 673.518 460.665 674.654 459.797C675.773 458.943 676.322 457.974 676.3 456.89C676.295 455.794 675.8 454.601 674.816 453.312L671.573 449.065L664.859 454.191L668.102 458.439ZM673.112 470.275L690.916 456.682L693.402 459.938L675.597 473.531L673.112 470.275Z" fill="#212121"/>
<path d="M684.248 484.821L702.573 471.938L704.928 475.289L691.918 484.436L711.848 485.132L714.075 488.3L695.75 501.182L693.395 497.832L706.379 488.703L686.475 487.989L684.248 484.821ZM709.527 479.215C708.422 477.644 707.92 476.224 708.018 474.955C708.129 473.704 708.781 472.646 709.973 471.782L711.648 474.164C711.014 474.635 710.664 475.194 710.597 475.841C710.543 476.505 710.779 477.213 711.307 477.963C711.834 478.714 712.42 479.176 713.063 479.349C713.719 479.54 714.376 479.417 715.034 478.981L716.69 481.337C715.474 482.166 714.252 482.412 713.024 482.076C711.797 481.739 710.631 480.785 709.527 479.215Z" fill="#212121"/>
<path d="M352.011 466.265L365.465 448.356L373.473 454.371C375.486 455.883 376.754 457.463 377.277 459.11C377.814 460.741 377.525 462.298 376.41 463.782C375.308 465.248 373.919 465.979 372.242 465.974C370.578 465.951 368.867 465.28 367.111 463.96L368.263 463.385C370.259 464.884 371.501 466.445 371.991 468.066C372.48 469.688 372.155 471.258 371.014 472.776C369.848 474.328 368.361 475.118 366.552 475.147C364.755 475.158 362.74 474.325 360.506 472.646L352.011 466.265ZM357.208 466.167L362.325 470.011C363.485 470.882 364.524 471.329 365.441 471.351C366.371 471.356 367.176 470.906 367.855 470.002C368.534 469.098 368.729 468.217 368.439 467.359C368.163 466.485 367.444 465.612 366.284 464.74L361.167 460.896L357.208 466.167ZM362.993 458.466L367.445 461.81C368.52 462.617 369.498 463.019 370.382 463.015C371.278 462.995 372.033 462.575 372.648 461.756C373.289 460.903 373.488 460.052 373.245 459.203C373.003 458.354 372.344 457.526 371.27 456.718L366.818 453.374L362.993 458.466Z" fill="#212121"/>
<path d="M379.948 488.563C378.611 487.435 377.566 486.176 376.813 484.786C376.06 483.396 375.598 481.959 375.427 480.475C375.271 478.974 375.411 477.501 375.849 476.057C376.301 474.595 377.064 473.229 378.137 471.958C379.211 470.686 380.423 469.713 381.774 469.039C383.139 468.349 384.567 467.963 386.059 467.883C387.565 467.786 389.066 467.992 390.562 468.502C392.059 469.011 393.467 469.824 394.787 470.938C396.124 472.067 397.16 473.319 397.897 474.695C398.65 476.085 399.105 477.53 399.262 479.031C399.433 480.515 399.292 481.988 398.841 483.449C398.402 484.894 397.647 486.252 396.573 487.523C395.5 488.795 394.28 489.776 392.916 490.466C391.551 491.157 390.123 491.542 388.631 491.623C387.139 491.703 385.645 491.489 384.148 490.979C382.668 490.483 381.268 489.678 379.948 488.563ZM382.277 485.755C383.141 486.485 384.063 487.012 385.045 487.338C386.026 487.664 387.012 487.785 388.005 487.702C389.01 487.602 389.963 487.317 390.862 486.847C391.791 486.375 392.627 485.699 393.37 484.819C394.113 483.939 394.633 483.009 394.929 482.031C395.255 481.049 395.376 480.063 395.292 479.071C395.222 478.062 394.944 477.102 394.458 476.189C393.972 475.276 393.298 474.455 392.434 473.726C391.57 472.996 390.647 472.469 389.666 472.143C388.701 471.831 387.707 471.718 386.685 471.804C385.693 471.888 384.733 472.165 383.804 472.637C382.905 473.107 382.084 473.782 381.34 474.662C380.611 475.526 380.083 476.449 379.757 477.43C379.448 478.425 379.328 479.426 379.398 480.435C379.482 481.427 379.766 482.379 380.252 483.292C380.738 484.205 381.413 485.026 382.277 485.755Z" fill="#212121"/>
<path d="M394.104 497.516L397.159 496.206C397.411 497.344 397.827 498.431 398.408 499.467C399.019 500.502 399.731 501.412 400.544 502.198C401.357 502.984 402.194 503.588 403.055 504.009C403.931 504.446 404.761 504.65 405.545 504.622C406.329 504.594 407.004 504.275 407.571 503.666C408.254 502.932 408.458 502.102 408.183 501.176C407.938 500.249 407.301 499.306 406.27 498.346L402.451 494.793L404.675 492.404L408.259 495.739C409.18 496.596 410.065 497.07 410.914 497.16C411.778 497.265 412.508 496.997 413.104 496.357C413.598 495.826 413.833 495.229 413.809 494.566C413.801 493.917 413.588 493.238 413.17 492.528C412.768 491.833 412.2 491.159 411.467 490.506C410.764 489.852 409.928 489.279 408.96 488.785C408.006 488.276 406.996 487.905 405.931 487.672L407.259 484.318C408.799 484.731 410.232 485.351 411.56 486.178C412.904 487.021 414.063 487.983 415.038 489.065C416.013 490.147 416.74 491.275 417.22 492.45C417.716 493.64 417.923 494.795 417.843 495.915C417.777 497.019 417.344 498.001 416.545 498.86C415.818 499.641 414.961 500.139 413.972 500.356C413.014 500.572 412.023 500.509 411 500.169C409.976 499.828 408.988 499.215 408.035 498.328L408.85 497.688C409.928 498.69 410.69 499.75 411.138 500.866C411.616 501.981 411.775 503.062 411.617 504.109C411.474 505.171 411.01 506.123 410.225 506.967C409.484 507.763 408.62 508.285 407.633 508.532C406.66 508.763 405.626 508.762 404.531 508.53C403.45 508.282 402.362 507.838 401.267 507.198C400.187 506.543 399.169 505.727 398.213 504.75C397.257 503.773 396.418 502.671 395.694 501.444C394.986 500.232 394.456 498.923 394.104 497.516Z" fill="#212121"/>
<path d="M423.894 526.583L435.998 514.704L429.857 508.446L426.913 511.111C425.802 512.111 424.723 513.037 423.674 513.887C422.655 514.737 421.668 515.452 420.712 516.031C419.771 516.626 418.892 517.025 418.076 517.228C417.259 517.432 416.55 517.395 415.95 517.118L413.268 513.472C413.806 514.081 414.467 514.358 415.252 514.305C416.052 514.268 416.937 513.982 417.908 513.448C418.878 512.914 419.926 512.2 421.05 511.305C422.19 510.395 423.384 509.373 424.632 508.239L429.881 503.445L441.38 515.162L426.763 529.507L423.894 526.583ZM406.815 518.729L412.753 512.947L430.168 530.693L424.253 536.498L421.564 533.757L424.967 530.418L412.93 518.153L409.527 521.493L406.815 518.729Z" fill="#212121"/>
<path d="M435.267 536.062C435.753 537.204 436.367 538.043 437.111 538.58C437.854 539.116 438.873 539.273 440.168 539.052L442.156 538.722L442.767 538.731L459.209 534.4L461.955 537.439L442.017 542.34C440.364 542.77 438.88 542.846 437.565 542.568C436.25 542.289 435.139 541.712 434.232 540.835C433.323 539.988 432.632 538.873 432.159 537.49L435.267 536.062ZM440.043 541.062L447.218 521.126L450.2 524.427L443.941 540.603L440.043 541.062Z" fill="#212121"/>
<path d="M464.267 542.104L467.346 545.787L464.988 554.641L474.12 553.888L477.24 557.619L464.167 558.747L460.446 572.455L457.285 568.674L459.808 558.972L449.833 559.763L446.754 556.081L460.76 554.922L464.267 542.104Z" fill="#212121"/>
<g filter="url(#filter0_d_8051_99296)">
<path d="M320.106 391.033C290.774 318.015 320.681 266.238 308.224 255.495L293.403 259.714L303.642 213.139C315.651 220.304 347.084 239.669 354.662 242.275C349.919 243.625 338.853 246.776 338.853 246.776C351.918 292.671 318.963 345.713 351.723 382.032L344.807 384.001C313.148 321.569 343.663 304.944 333.913 248.182L327.984 249.87C338.845 280.516 307.391 335.115 340.854 385.126L332.95 387.376C301.291 324.944 331.806 308.319 322.056 251.557L316.128 253.245C326.988 283.891 296.351 326.35 327.022 389.064L320.106 391.033Z" fill="#989898"/>
</g>
<g filter="url(#filter1_d_8051_99296)">
<path d="M155.559 524.826C126.227 451.808 156.134 400.031 143.677 389.288L128.856 393.507L139.096 346.932C151.105 354.097 182.537 373.462 190.115 376.068C185.372 377.418 174.306 380.569 174.306 380.569C187.371 426.463 154.416 479.506 187.176 515.825L180.26 517.794C148.601 455.362 179.116 438.737 169.366 381.975L163.438 383.663C174.298 414.309 142.844 468.908 176.307 518.919L168.403 521.169C136.745 458.737 167.259 442.112 157.509 385.35L151.581 387.038C162.442 417.684 131.804 460.143 162.475 522.857L155.559 524.826Z" fill="#989898"/>
</g>
<g filter="url(#filter2_d_8051_99296)">
<path d="M274.537 664.245C248.029 590.156 279.901 539.564 267.864 528.351L252.893 531.999L264.912 485.85C276.637 493.472 307.303 514.028 314.775 516.923C309.985 518.09 298.806 520.813 298.806 520.813C310.101 567.176 275.134 618.915 306.477 656.464L299.49 658.166C270.25 594.565 301.38 579.123 293.815 522.029L287.827 523.488C297.503 554.528 263.978 607.881 295.498 659.139L287.513 661.084C258.273 597.483 289.403 582.041 281.838 524.947L275.849 526.406C285.526 557.446 253.282 598.699 281.524 662.543L274.537 664.245Z" fill="#989898"/>
</g>
<g filter="url(#filter3_d_8051_99296)">
<path d="M532.159 590.284C505.65 516.195 537.522 465.603 525.486 454.39L510.514 458.038L522.533 411.889C534.258 419.511 564.924 440.067 572.397 442.962C567.606 444.129 556.427 446.853 556.427 446.853C567.722 493.215 532.755 544.954 564.098 582.503L557.111 584.205C527.871 520.604 559.002 505.162 551.436 448.068L545.448 449.527C555.124 480.567 521.599 533.92 553.119 585.178L545.134 587.123C515.894 523.522 547.024 508.08 539.459 450.986L533.47 452.445C543.147 483.485 510.903 524.738 539.145 588.582L532.159 590.284Z" fill="#989898"/>
</g>
<g filter="url(#filter4_d_8051_99296)">
<path d="M798.088 497.21C771.58 423.121 803.452 372.529 791.415 361.316L776.444 364.964L788.463 318.815C800.188 326.436 830.854 346.993 838.326 349.888C833.535 351.055 822.357 353.778 822.357 353.778C833.651 400.141 798.685 451.88 830.028 489.429L823.041 491.131C793.801 427.53 824.931 412.088 817.366 354.994L811.377 356.453C821.054 387.493 787.529 440.846 819.048 492.104L811.064 494.049C781.824 430.448 812.954 415.006 805.389 357.912L799.4 359.371C809.077 390.411 776.833 431.664 805.075 495.508L798.088 497.21Z" fill="#989898"/>
</g>
<defs>
<filter id="filter0_d_8051_99296" x="284.461" y="203.808" width="87.6934" height="204.33" filterUnits="userSpaceOnUse" color-interpolation-filters="sRGB">
<feFlood flood-opacity="0" result="BackgroundImageFix"/>
<feColorMatrix in="SourceAlpha" type="matrix" values="0 0 0 0 0 0 0 0 0 0 0 0 0 0 0 0 0 0 127 0" result="hardAlpha"/>
<feOffset dx="4.27634" dy="3.88758"/>
<feGaussianBlur stdDeviation="6.60888"/>
<feComposite in2="hardAlpha" operator="out"/>
<feColorMatrix type="matrix" values="0 0 0 0 0 0 0 0 0 0 0 0 0 0 0 0 0 0 0.61 0"/>
<feBlend mode="normal" in2="BackgroundImageFix" result="effect1_dropShadow_8051_99296"/>
<feBlend mode="normal" in="SourceGraphic" in2="effect1_dropShadow_8051_99296" result="shape"/>
</filter>
<filter id="filter1_d_8051_99296" x="119.914" y="337.601" width="87.6934" height="204.33" filterUnits="userSpaceOnUse" color-interpolation-filters="sRGB">
<feFlood flood-opacity="0" result="BackgroundImageFix"/>
<feColorMatrix in="SourceAlpha" type="matrix" values="0 0 0 0 0 0 0 0 0 0 0 0 0 0 0 0 0 0 127 0" result="hardAlpha"/>
<feOffset dx="4.27634" dy="3.88758"/>
<feGaussianBlur stdDeviation="6.60888"/>
<feComposite in2="hardAlpha" operator="out"/>
<feColorMatrix type="matrix" values="0 0 0 0 0 0 0 0 0 0 0 0 0 0 0 0 0 0 0.61 0"/>
<feBlend mode="normal" in2="BackgroundImageFix" result="effect1_dropShadow_8051_99296"/>
<feBlend mode="normal" in="SourceGraphic" in2="effect1_dropShadow_8051_99296" result="shape"/>
</filter>
<filter id="filter2_d_8051_99296" x="243.953" y="476.52" width="88.3184" height="204.83" filterUnits="userSpaceOnUse" color-interpolation-filters="sRGB">
<feFlood flood-opacity="0" result="BackgroundImageFix"/>
<feColorMatrix in="SourceAlpha" type="matrix" values="0 0 0 0 0 0 0 0 0 0 0 0 0 0 0 0 0 0 127 0" result="hardAlpha"/>
<feOffset dx="4.27634" dy="3.88758"/>
<feGaussianBlur stdDeviation="6.60888"/>
<feComposite in2="hardAlpha" operator="out"/>
<feColorMatrix type="matrix" values="0 0 0 0 0 0 0 0 0 0 0 0 0 0 0 0 0 0 0.61 0"/>
<feBlend mode="normal" in2="BackgroundImageFix" result="effect1_dropShadow_8051_99296"/>
<feBlend mode="normal" in="SourceGraphic" in2="effect1_dropShadow_8051_99296" result="shape"/>
</filter>
<filter id="filter3_d_8051_99296" x="501.574" y="402.559" width="88.3184" height="204.83" filterUnits="userSpaceOnUse" color-interpolation-filters="sRGB">
<feFlood flood-opacity="0" result="BackgroundImageFix"/>
<feColorMatrix in="SourceAlpha" type="matrix" values="0 0 0 0 0 0 0 0 0 0 0 0 0 0 0 0 0 0 127 0" result="hardAlpha"/>
<feOffset dx="4.27634" dy="3.88758"/>
<feGaussianBlur stdDeviation="6.60888"/>
<feComposite in2="hardAlpha" operator="out"/>
<feColorMatrix type="matrix" values="0 0 0 0 0 0 0 0 0 0 0 0 0 0 0 0 0 0 0.61 0"/>
<feBlend mode="normal" in2="BackgroundImageFix" result="effect1_dropShadow_8051_99296"/>
<feBlend mode="normal" in="SourceGraphic" in2="effect1_dropShadow_8051_99296" result="shape"/>
</filter>
<filter id="filter4_d_8051_99296" x="767.504" y="309.485" width="88.3184" height="204.83" filterUnits="userSpaceOnUse" color-interpolation-filters="sRGB">
<feFlood flood-opacity="0" result="BackgroundImageFix"/>
<feColorMatrix in="SourceAlpha" type="matrix" values="0 0 0 0 0 0 0 0 0 0 0 0 0 0 0 0 0 0 127 0" result="hardAlpha"/>
<feOffset dx="4.27634" dy="3.88758"/>
<feGaussianBlur stdDeviation="6.60888"/>
<feComposite in2="hardAlpha" operator="out"/>
<feColorMatrix type="matrix" values="0 0 0 0 0 0 0 0 0 0 0 0 0 0 0 0 0 0 0.61 0"/>
<feBlend mode="normal" in2="BackgroundImageFix" result="effect1_dropShadow_8051_99296"/>
<feBlend mode="normal" in="SourceGraphic" in2="effect1_dropShadow_8051_99296" result="shape"/>
</filter>
</defs>
</svg>
