<svg width="1020" height="882" viewBox="0 0 1020 882" fill="none" xmlns="http://www.w3.org/2000/svg">
<path d="M677.679 158.017L622.88 257.108L680.167 256.991L737.455 256.875L677.679 158.017Z" fill="#989898"/>
<path d="M697.113 256.957L679.381 256.993L662.482 257.027L662.081 355.208L696.905 353.298L697.113 256.957Z" fill="#989898"/>
<path d="M518.732 372.17C518.732 372.17 547.523 344.272 619.211 352.395C690.899 360.518 761.455 354.069 758.743 325.883C756.031 297.697 749.92 256.084 775.988 249.481C802.083 242.868 818.146 261.927 818.146 261.927C850.399 284.642 863.735 327.252 863.735 327.252L890.221 361.144L915.833 430.192C915.833 430.192 904.066 450.77 839.632 482.541C775.189 514.285 655.44 564.613 590.131 601.071C524.823 637.529 454.071 685.022 321.762 732.835C189.48 780.639 141.973 772.706 118.047 760.933L106.592 727.292C106.592 727.292 104.52 707.696 170.846 668.604C237.171 629.512 279.585 593.198 279.585 593.198" stroke="white" stroke-width="2" stroke-linejoin="round"/>
<path d="M863.763 327.242C863.763 327.242 849.892 378.73 845.095 381.509C840.298 384.289 797.022 389.87 797.022 389.87L810.067 333.688L799.559 324.231" stroke="white" stroke-width="2" stroke-linejoin="round"/>
<path d="M316.337 568.55C313.141 571.494 311.294 573.144 311.128 573.201C309.08 573.899 304.368 571.303 304.368 571.303L279.631 593.152C279.631 593.152 315.867 612.964 363.863 580.71C411.86 548.457 548.244 427.188 559.318 420.351C570.391 413.515 605.945 415.636 619.822 409.142C633.698 402.648 657.336 376.848 657.336 376.848" stroke="white" stroke-width="2" stroke-linejoin="round"/>
<path d="M359.693 527.928C349.139 537.831 339.678 546.683 332.008 553.903" stroke="white" stroke-width="2" stroke-linejoin="round"/>
<path d="M400.543 489.736C392.928 496.845 385.423 503.824 378.24 510.569" stroke="white" stroke-width="2" stroke-linejoin="round"/>
<path d="M443.02 450.436C434.862 457.946 426.521 465.643 418.189 473.367" stroke="white" stroke-width="2" stroke-linejoin="round"/>
<path d="M480.889 416.012C473.272 422.843 465.077 430.243 456.579 438.024" stroke="white" stroke-width="2" stroke-linejoin="round"/>
<path d="M514.516 386.803C508.945 391.391 502.08 397.256 494.306 404.079" stroke="white" stroke-width="2" stroke-linejoin="round"/>
<path d="M816.705 260.409C782.331 252.323 788.013 276.807 791.885 290.444C795.756 304.081 814.678 341.603 766.939 366.723C719.21 391.87 672.705 378.991 623.72 371.16C576.243 363.587 549.412 368.041 530.717 375.529" stroke="white" stroke-width="2" stroke-linejoin="round"/>
<path d="M106.61 727.255L101.363 733.248L116.448 777.548C116.448 777.548 119.01 816.539 237.018 811.152C355.025 805.764 451.608 781.261 540.631 740.176C629.654 699.091 713.806 671.905 793.782 649.234C873.759 626.562 925.778 590.433 948.486 557.008C971.195 523.583 988.046 504.423 974.942 483.985C974.942 483.985 950.061 464.874 935.128 444.688C920.222 424.492 915.833 430.192 915.833 430.192" stroke="white" stroke-width="2" stroke-linejoin="round"/>
<path d="M882.277 350.965C882.277 350.965 866.503 409.56 862.286 410.689C858.079 411.846 816.095 418.408 812.322 420.838C808.548 423.269 634.362 578.074 634.362 578.074" stroke="white" stroke-width="2" stroke-linejoin="round"/>
<path d="M888.506 358.918C888.506 358.918 873.543 415.815 870.029 417.013C866.516 418.212 819.343 427.13 816.493 428.102C813.644 429.074 657.875 566.689 657.875 566.689" stroke="white" stroke-width="2" stroke-linejoin="round"/>
<path d="M603.301 368.514C603.301 368.514 564.738 401.629 560.853 402.552C556.977 403.503 526.396 408.185 525.372 408.534C524.348 408.883 519.345 434.725 519.345 434.725L420.738 517.399L391.246 527.457L384.907 547.11C384.907 547.11 355.106 573.127 338.651 581.026C322.195 588.925 291.843 582.311 291.843 582.311" stroke="white" stroke-width="2" stroke-linejoin="round"/>
<path d="M543.752 378.718C533.537 378.555 493.724 362.837 484.268 361.458C474.812 360.078 467.499 373.512 469.167 375.601C470.845 377.717 517.042 387.426 531.619 390.334C546.197 393.243 550.797 385.895 543.752 378.718Z" stroke="white" stroke-width="2" stroke-linejoin="round"/>
<path d="M469.166 375.602C469.166 375.602 470.006 389.314 475.433 404.708C480.86 420.101 494.956 436.74 503.451 428.497C507.65 423.418 500.088 413.543 496.493 408.063C492.898 402.583 483.966 379.98 483.966 379.98" stroke="white" stroke-width="2" stroke-linejoin="round"/>
<path d="M473.39 422.739C451.608 424.698 436.333 419.74 436.423 416.65C436.514 413.56 440.349 405.144 445.215 403.114C450.082 401.083 474.197 401.079 474.197 401.079" stroke="white" stroke-width="2" stroke-linejoin="round"/>
<path d="M450.864 422.325C460.688 447.004 463.866 464.771 457.392 466.979C448.649 469.961 444.013 455.256 440.148 439.917C436.256 424.588 436.425 416.65 436.425 416.65" stroke="white" stroke-width="2" stroke-linejoin="round"/>
<path d="M486.553 361.914C538.579 284.002 558.231 291.113 572.313 313.876C572.313 313.876 593.988 320.854 604.127 351.173" stroke="white" stroke-width="2" stroke-linejoin="round"/>
<path d="M340.32 546.123C333.467 542.774 336.627 534.372 341.53 528.095C346.433 521.818 360.068 527.582 360.068 527.582" stroke="white" stroke-width="2" stroke-linejoin="round"/>
<path d="M336.569 538.007C322.42 541.071 317.939 552.396 316.37 563.84C314.801 575.284 323.289 581.165 330.092 577.114C336.896 573.063 332.292 553.65 332.292 553.65L339.567 546.812" stroke="white" stroke-width="2" stroke-linejoin="round"/>
<path d="M435.891 456.977C409.176 463.493 408.046 463.167 407.463 458.916C406.88 454.665 414.905 445.314 415.633 444.912C416.36 444.509 439.626 437.749 439.626 437.749" stroke="white" stroke-width="2" stroke-linejoin="round"/>
<path d="M418.254 461.045C418.254 461.045 417.93 483.128 418.78 492.696C419.629 502.264 407.598 504.204 400.661 489.635C393.733 475.094 407.598 457.139 407.598 457.139" stroke="white" stroke-width="2" stroke-linejoin="round"/>
<path d="M378.756 500.752C376.604 512.117 385.217 534.056 376.817 538.497C368.417 542.938 359.596 541.064 360.946 523.082C362.295 505.099 374.031 492.32 374.031 492.32L378.765 500.78L378.756 500.752Z" stroke="white" stroke-width="2" stroke-linejoin="round"/>
<path d="M398.753 481.757C387.477 484.552 374.024 492.292 374.024 492.292L378.758 500.752L387.124 502.287" stroke="white" stroke-width="2" stroke-linejoin="round"/>
<path d="M595.733 350.916C592.388 334.473 561.802 297.066 496.667 364.863" stroke="white" stroke-width="2" stroke-linejoin="round"/>
<path d="M798.484 315.635C798.484 315.635 816.263 330.03 816.611 331.054C816.96 332.079 806.157 380.789 806.157 380.789L841.665 375.973L860.526 318.735" stroke="white" stroke-width="2" stroke-miterlimit="10"/>
<path d="M117.34 780.705C117.34 780.705 143.06 810.624 258.064 799.771C373.067 788.918 471.677 759.119 531.089 731.192C590.502 703.265 665.358 672.358 740.549 651.319C815.711 630.289 817.427 629.704 819.142 629.119C820.857 628.534 953.196 589.333 974.98 484.002" stroke="white" stroke-width="2" stroke-linejoin="round"/>
<path d="M661.441 554.039C661.441 554.039 589.76 587.015 524.53 628.237C459.3 669.458 198.935 791.539 116.019 754.89" stroke="white" stroke-width="2" stroke-miterlimit="10"/>
<path d="M535.52 731.516C540.818 748.068 542.958 764.815 541.095 781.468L478.459 814.317C463.379 730.937 344.561 639.25 273.065 597.016C247.537 581.936 229.144 572.971 222.121 573.205L250.384 511.174C306.276 509.315 499.698 626.969 538.44 742.001C538.68 742.714 535.291 730.802 535.52 731.516Z" fill="white"/>
<path fill-rule="evenodd" clip-rule="evenodd" d="M222.121 573.205L236.915 623.609L273.065 597.016C247.537 581.936 229.144 572.971 222.121 573.205Z" fill="#989898"/>
<path d="M567.908 728.715L541.095 781.468C542.958 764.815 540.818 748.068 535.52 731.516C535.291 730.802 538.68 742.714 538.44 742.001L567.908 728.715Z" fill="#989898"/>
<path d="M780.919 723.795C783.289 700.202 780.433 676.462 773.455 652.986C773.192 652.098 776.322 662.791 774.402 656.263L817.49 643.56L780.919 723.795Z" fill="#989898"/>
<path fill-rule="evenodd" clip-rule="evenodd" d="M363.769 427.471C372.935 427.166 376.28 424.697 409.659 446.162L404.373 458.205L398.96 468.054L395.374 479.161L377.608 486.784L363.769 427.471Z" fill="#989898"/>
<path d="M780.919 723.795L693.899 759.743C673.903 641.527 503.144 506.28 409.659 446.162C376.28 424.697 372.935 427.166 363.769 427.471L400.431 339.67C473.438 337.242 723.665 492.957 774.402 656.263C776.322 662.791 773.192 652.098 773.455 652.986C780.433 676.462 783.289 700.202 780.919 723.795Z" fill="white"/>
<path d="M569.095 472.147L572.437 474.624L559.098 492.62L555.756 490.143L569.095 472.147ZM546.45 483.245L543.108 480.768L556.446 462.772L559.788 465.249L546.45 483.245ZM561.73 482.621L551.884 475.323L553.999 472.469L563.845 479.767L561.73 482.621Z" fill="#212121"/>
<path d="M563.534 496.33L585.743 485.837L588.859 488.496L582.008 512.098L578.697 509.273L585.21 488.285L586.476 489.365L566.795 499.114L563.534 496.33ZM570.429 495.4L573.4 493.644L582.6 501.497L581.333 504.707L570.429 495.4Z" fill="#212121"/>
<path d="M588.659 517.765L604.08 501.519L615.104 511.983L612.658 514.514L603.908 506.209L605.287 506.15L591.63 520.585L588.659 517.765Z" fill="#212121"/>
<path d="M606.398 536.189L622.54 520.659L628.93 527.3C630.305 528.73 631.25 530.174 631.765 531.632C632.295 533.106 632.396 534.534 632.067 535.916C631.739 537.297 630.983 538.558 629.799 539.697C628.615 540.835 627.327 541.542 625.933 541.817C624.54 542.092 623.117 541.936 621.665 541.35C620.228 540.779 618.821 539.779 617.446 538.349L612.653 533.368L615.347 533.352L609.282 539.187L606.398 536.189ZM615.024 533.663L615.19 530.927L619.849 535.77C621.121 537.092 622.352 537.818 623.541 537.946C624.761 538.075 625.878 537.652 626.893 536.676C627.923 535.685 628.389 534.585 628.292 533.376C628.209 532.182 627.532 530.925 626.26 529.602L621.601 524.76L624.363 524.677L615.024 533.663Z" fill="#212121"/>
<path d="M639.586 551.537L646.973 559.87L644.411 562.141L637.024 553.808L639.586 551.537ZM632.614 558.145L640.999 567.603L638.389 569.917L627.245 557.345L644.007 542.486L654.854 554.723L652.244 557.036L644.156 547.913L632.614 558.145Z" fill="#212121"/>
<path d="M650.745 583.428L666.091 570.753L665.933 572.17L660.594 565.706L663.308 563.464L675.372 578.071L672.658 580.312L667.319 573.848L668.72 573.936L653.373 586.611L650.745 583.428Z" fill="#212121"/>
<path d="M682.76 599.218C684.378 601.338 685.153 603.337 685.083 605.215C685.014 607.093 684.03 608.757 682.131 610.207C680.13 611.734 678.127 612.257 676.122 611.775C674.146 611.297 672.298 609.93 670.576 607.675L664.731 600.019L682.535 586.426L685.021 589.682L678.993 594.284L682.76 599.218ZM673.003 605.581C673.974 606.852 675.021 607.609 676.146 607.851C677.283 608.11 678.419 607.806 679.556 606.939C680.675 606.084 681.223 605.115 681.201 604.032C681.196 602.935 680.701 601.743 679.718 600.454L676.475 596.206L669.76 601.333L673.003 605.581ZM678.013 617.416L695.817 603.824L698.303 607.079L680.499 620.672L678.013 617.416Z" fill="#212121"/>
<path d="M689.149 631.963L707.474 619.08L709.83 622.431L696.819 631.577L716.749 632.274L718.976 635.441L700.652 648.324L698.296 644.973L711.28 635.845L691.376 635.13L689.149 631.963ZM714.428 626.356C713.324 624.786 712.821 623.366 712.92 622.097C713.031 620.845 713.682 619.787 714.874 618.923L716.549 621.306C715.916 621.777 715.565 622.336 715.499 622.983C715.444 623.647 715.68 624.354 716.208 625.105C716.736 625.855 717.321 626.317 717.965 626.491C718.62 626.682 719.277 626.559 719.935 626.122L721.592 628.478C720.375 629.308 719.153 629.554 717.926 629.217C716.698 628.881 715.532 627.927 714.428 626.356Z" fill="#212121"/>
<path d="M356.915 613.409L370.369 595.499L378.377 601.515C380.39 603.027 381.658 604.606 382.182 606.254C382.718 607.884 382.429 609.441 381.314 610.925C380.212 612.392 378.823 613.123 377.146 613.117C375.482 613.095 373.772 612.423 372.015 611.104L373.167 610.529C375.163 612.028 376.405 613.588 376.895 615.21C377.384 616.831 377.059 618.401 375.919 619.919C374.753 621.472 373.265 622.262 371.456 622.29C369.66 622.302 367.644 621.468 365.41 619.79L356.915 613.409ZM362.112 613.31L367.229 617.154C368.389 618.026 369.428 618.472 370.345 618.494C371.275 618.499 372.08 618.05 372.759 617.146C373.438 616.242 373.633 615.361 373.343 614.503C373.067 613.628 372.349 612.755 371.189 611.884L366.072 608.04L362.112 613.31ZM367.897 605.609L372.349 608.953C373.424 609.761 374.403 610.163 375.286 610.159C376.182 610.138 376.938 609.719 377.553 608.9C378.193 608.047 378.392 607.196 378.15 606.347C377.907 605.497 377.249 604.669 376.174 603.862L371.722 600.518L367.897 605.609Z" fill="#212121"/>
<path d="M384.854 635.707C383.517 634.578 382.473 633.319 381.719 631.929C380.966 630.54 380.504 629.103 380.334 627.618C380.177 626.118 380.317 624.645 380.756 623.2C381.208 621.739 381.97 620.373 383.044 619.101C384.117 617.83 385.329 616.857 386.68 616.183C388.045 615.492 389.474 615.107 390.965 615.026C392.471 614.93 393.972 615.136 395.468 615.645C396.965 616.155 398.373 616.967 399.693 618.082C401.03 619.21 402.067 620.463 402.804 621.839C403.557 623.228 404.012 624.674 404.169 626.174C404.339 627.659 404.199 629.131 403.747 630.592C403.309 632.037 402.553 633.395 401.479 634.667C400.406 635.938 399.187 636.919 397.822 637.61C396.457 638.3 395.029 638.686 393.537 638.766C392.045 638.847 390.551 638.632 389.055 638.123C387.575 637.627 386.174 636.822 384.854 635.707ZM387.183 632.899C388.047 633.628 388.97 634.156 389.951 634.482C390.932 634.808 391.919 634.929 392.911 634.845C393.917 634.745 394.869 634.46 395.768 633.991C396.697 633.519 397.533 632.843 398.276 631.962C399.019 631.082 399.539 630.153 399.835 629.174C400.161 628.193 400.282 627.206 400.198 626.214C400.128 625.206 399.85 624.245 399.364 623.332C398.879 622.42 398.204 621.599 397.34 620.869C396.476 620.14 395.553 619.612 394.572 619.286C393.607 618.974 392.614 618.861 391.592 618.947C390.6 619.031 389.639 619.309 388.71 619.781C387.811 620.251 386.99 620.925 386.247 621.806C385.517 622.669 384.99 623.592 384.664 624.573C384.354 625.568 384.234 626.57 384.304 627.578C384.388 628.57 384.673 629.523 385.159 630.436C385.644 631.348 386.319 632.169 387.183 632.899Z" fill="#212121"/>
<path d="M399.01 644.66L402.065 643.35C402.317 644.488 402.734 645.575 403.314 646.611C403.925 647.645 404.637 648.556 405.45 649.341C406.264 650.127 407.1 650.731 407.961 651.153C408.837 651.589 409.667 651.793 410.451 651.765C411.235 651.737 411.91 651.418 412.477 650.809C413.16 650.075 413.364 649.245 413.089 648.319C412.845 647.392 412.207 646.449 411.176 645.49L407.357 641.937L409.581 639.547L413.165 642.882C414.087 643.74 414.972 644.214 415.82 644.304C416.684 644.409 417.414 644.141 418.01 643.501C418.504 642.97 418.739 642.372 418.716 641.709C418.707 641.06 418.494 640.381 418.076 639.672C417.674 638.977 417.106 638.303 416.373 637.65C415.67 636.996 414.835 636.422 413.866 635.929C412.912 635.42 411.902 635.048 410.837 634.815L412.166 631.462C413.705 631.874 415.139 632.494 416.467 633.322C417.81 634.164 418.969 635.126 419.944 636.208C420.919 637.29 421.646 638.419 422.126 639.594C422.622 640.784 422.83 641.938 422.749 643.058C422.683 644.163 422.251 645.144 421.451 646.003C420.725 646.784 419.867 647.283 418.879 647.5C417.92 647.715 416.929 647.653 415.906 647.312C414.882 646.972 413.894 646.358 412.941 645.472L413.756 644.831C414.834 645.834 415.596 646.893 416.044 648.009C416.522 649.124 416.682 650.205 416.523 651.252C416.38 652.314 415.916 653.267 415.132 654.11C414.39 654.907 413.526 655.428 412.539 655.675C411.566 655.906 410.532 655.906 409.437 655.674C408.356 655.426 407.268 654.982 406.174 654.342C405.093 653.686 404.075 652.87 403.119 651.893C402.164 650.916 401.324 649.814 400.6 648.588C399.893 647.375 399.363 646.066 399.01 644.66Z" fill="#212121"/>
<path d="M428.802 673.727L440.907 661.847L434.765 655.59L431.821 658.255C430.711 659.255 429.631 660.18 428.582 661.03C427.563 661.881 426.576 662.595 425.62 663.175C424.679 663.769 423.8 664.168 422.984 664.372C422.167 664.575 421.459 664.539 420.858 664.261L418.177 660.616C418.714 661.224 419.375 661.502 420.16 661.449C420.96 661.411 421.845 661.125 422.816 660.591C423.786 660.057 424.834 659.343 425.959 658.449C427.099 657.539 428.292 656.517 429.54 655.382L434.79 650.589L446.288 662.305L431.671 676.65L428.802 673.727ZM411.723 665.873L417.661 660.09L435.077 677.836L429.161 683.641L426.472 680.901L429.875 677.561L417.839 665.297L414.436 668.636L411.723 665.873Z" fill="#212121"/>
<path d="M440.173 683.205C440.659 684.348 441.274 685.187 442.017 685.723C442.76 686.259 443.779 686.417 445.074 686.195L447.062 685.866L447.673 685.874L464.115 681.543L466.861 684.583L446.924 689.484C445.27 689.914 443.786 689.989 442.471 689.711C441.156 689.433 440.045 688.855 439.138 687.979C438.23 687.132 437.539 686.017 437.065 684.633L440.173 683.205ZM444.949 688.206L452.124 668.27L455.106 671.57L448.847 687.746L444.949 688.206Z" fill="#212121"/>
<path d="M469.171 689.248L472.25 692.93L469.893 701.784L479.024 701.031L482.144 704.763L469.072 705.891L465.35 719.598L462.189 715.818L464.713 706.115L454.737 706.907L451.658 703.224L465.665 702.066L469.171 689.248Z" fill="#212121"/>
<g filter="url(#filter0_d_119_3042)">
<path d="M325.009 538.176C295.677 465.159 325.585 413.381 313.127 402.639L298.306 406.858L308.546 360.282C320.555 367.448 351.987 386.813 359.565 389.419C354.822 390.769 343.756 393.919 343.756 393.919C356.822 439.814 323.866 492.856 356.626 529.176L349.71 531.144C318.051 468.712 348.566 452.087 338.816 395.326L332.888 397.013C343.748 427.659 312.295 482.259 345.758 532.27L337.853 534.52C306.195 472.088 336.71 455.462 326.96 398.701L321.031 400.388C331.892 431.034 301.255 473.494 331.925 536.207L325.009 538.176Z" fill="#989898"/>
</g>
<g filter="url(#filter1_d_119_3042)">
<path d="M160.464 671.969C131.132 598.952 161.04 547.174 148.582 536.432L133.761 540.651L144.001 494.075C156.01 501.241 187.442 520.606 195.02 523.212C190.277 524.562 179.211 527.712 179.211 527.712C192.277 573.607 159.321 626.649 192.081 662.968L185.165 664.937C153.506 602.505 184.021 585.88 174.271 529.119L168.343 530.806C179.203 561.452 147.75 616.052 181.213 666.063L173.308 668.313C141.65 605.881 172.165 589.255 162.415 532.494L156.486 534.181C167.347 564.827 136.71 607.287 167.38 670L160.464 671.969Z" fill="#989898"/>
</g>
<g filter="url(#filter2_d_119_3042)">
<path d="M279.443 811.389C252.934 737.3 284.806 686.708 272.77 675.495L257.798 679.142L269.817 632.994C281.542 640.615 312.209 661.172 319.681 664.066C314.89 665.234 303.711 667.957 303.711 667.957C315.006 714.319 280.04 766.058 311.382 803.608L304.395 805.31C275.155 741.709 306.286 726.267 298.72 669.173L292.732 670.632C302.409 701.672 268.883 755.024 300.403 806.282L292.418 808.228C263.178 744.627 294.308 729.185 286.743 672.091L280.755 673.55C290.431 704.59 258.188 745.843 286.429 809.687L279.443 811.389Z" fill="#989898"/>
</g>
<g filter="url(#filter3_d_119_3042)">
<path d="M537.065 737.428C510.556 663.339 542.428 612.747 530.392 601.534L515.42 605.181L527.439 559.033C539.164 566.654 569.831 587.211 577.303 590.106C572.512 591.273 561.333 593.996 561.333 593.996C572.628 640.358 537.662 692.097 569.004 729.647L562.017 731.349C532.777 667.748 563.908 652.306 556.343 595.212L550.354 596.671C560.031 627.711 526.505 681.063 558.025 732.321L550.04 734.267C520.8 670.666 551.93 655.224 544.365 598.13L538.377 599.589C548.053 630.629 515.81 671.882 544.052 735.726L537.065 737.428Z" fill="#989898"/>
</g>
<g filter="url(#filter4_d_119_3042)">
<path d="M802.994 644.354C776.485 570.264 808.357 519.672 796.321 508.46L781.349 512.107L793.368 465.959C805.093 473.58 835.759 494.137 843.231 497.031C838.441 498.198 827.262 500.922 827.262 500.922C838.557 547.284 803.59 599.023 834.933 636.572L827.946 638.275C798.706 574.674 829.836 559.232 822.271 502.138L816.283 503.597C825.959 534.637 792.434 587.989 823.954 639.247L815.969 641.192C786.729 577.592 817.859 562.149 810.294 505.056L804.305 506.515C813.982 537.555 781.738 578.807 809.98 642.651L802.994 644.354Z" fill="#989898"/>
</g>
<path d="M569.829 197.233C501.721 190.942 488.605 104.432 571.557 95.3099C562.678 65.1129 600.359 29.2852 631.534 41.8837C641.748 22.5396 668.845 18.2913 681.198 18.5864C693.554 18.7103 720.653 23.8776 730.206 43.5569C761.79 32.0225 798.235 69.1071 788.336 98.9857C870.931 110.915 854.891 196.931 786.608 200.909M727.919 275.416C729.439 185.816 732.095 157.458 781.342 156.649M677.02 274.552L679.771 112.297M626.12 273.689C627.64 184.089 625.947 155.658 576.755 153.18" stroke="white" stroke-width="2"/>
<defs>
<filter id="filter0_d_119_3042" x="289.365" y="350.953" width="87.6934" height="204.328" filterUnits="userSpaceOnUse" color-interpolation-filters="sRGB">
<feFlood flood-opacity="0" result="BackgroundImageFix"/>
<feColorMatrix in="SourceAlpha" type="matrix" values="0 0 0 0 0 0 0 0 0 0 0 0 0 0 0 0 0 0 127 0" result="hardAlpha"/>
<feOffset dx="4.27634" dy="3.88758"/>
<feGaussianBlur stdDeviation="6.60888"/>
<feComposite in2="hardAlpha" operator="out"/>
<feColorMatrix type="matrix" values="0 0 0 0 0 0 0 0 0 0 0 0 0 0 0 0 0 0 0.61 0"/>
<feBlend mode="normal" in2="BackgroundImageFix" result="effect1_dropShadow_119_3042"/>
<feBlend mode="normal" in="SourceGraphic" in2="effect1_dropShadow_119_3042" result="shape"/>
</filter>
<filter id="filter1_d_119_3042" x="124.82" y="484.746" width="87.6934" height="204.328" filterUnits="userSpaceOnUse" color-interpolation-filters="sRGB">
<feFlood flood-opacity="0" result="BackgroundImageFix"/>
<feColorMatrix in="SourceAlpha" type="matrix" values="0 0 0 0 0 0 0 0 0 0 0 0 0 0 0 0 0 0 127 0" result="hardAlpha"/>
<feOffset dx="4.27634" dy="3.88758"/>
<feGaussianBlur stdDeviation="6.60888"/>
<feComposite in2="hardAlpha" operator="out"/>
<feColorMatrix type="matrix" values="0 0 0 0 0 0 0 0 0 0 0 0 0 0 0 0 0 0 0.61 0"/>
<feBlend mode="normal" in2="BackgroundImageFix" result="effect1_dropShadow_119_3042"/>
<feBlend mode="normal" in="SourceGraphic" in2="effect1_dropShadow_119_3042" result="shape"/>
</filter>
<filter id="filter2_d_119_3042" x="248.856" y="623.664" width="88.3184" height="204.83" filterUnits="userSpaceOnUse" color-interpolation-filters="sRGB">
<feFlood flood-opacity="0" result="BackgroundImageFix"/>
<feColorMatrix in="SourceAlpha" type="matrix" values="0 0 0 0 0 0 0 0 0 0 0 0 0 0 0 0 0 0 127 0" result="hardAlpha"/>
<feOffset dx="4.27634" dy="3.88758"/>
<feGaussianBlur stdDeviation="6.60888"/>
<feComposite in2="hardAlpha" operator="out"/>
<feColorMatrix type="matrix" values="0 0 0 0 0 0 0 0 0 0 0 0 0 0 0 0 0 0 0.61 0"/>
<feBlend mode="normal" in2="BackgroundImageFix" result="effect1_dropShadow_119_3042"/>
<feBlend mode="normal" in="SourceGraphic" in2="effect1_dropShadow_119_3042" result="shape"/>
</filter>
<filter id="filter3_d_119_3042" x="506.478" y="549.703" width="88.3184" height="204.83" filterUnits="userSpaceOnUse" color-interpolation-filters="sRGB">
<feFlood flood-opacity="0" result="BackgroundImageFix"/>
<feColorMatrix in="SourceAlpha" type="matrix" values="0 0 0 0 0 0 0 0 0 0 0 0 0 0 0 0 0 0 127 0" result="hardAlpha"/>
<feOffset dx="4.27634" dy="3.88758"/>
<feGaussianBlur stdDeviation="6.60888"/>
<feComposite in2="hardAlpha" operator="out"/>
<feColorMatrix type="matrix" values="0 0 0 0 0 0 0 0 0 0 0 0 0 0 0 0 0 0 0.61 0"/>
<feBlend mode="normal" in2="BackgroundImageFix" result="effect1_dropShadow_119_3042"/>
<feBlend mode="normal" in="SourceGraphic" in2="effect1_dropShadow_119_3042" result="shape"/>
</filter>
<filter id="filter4_d_119_3042" x="772.407" y="456.629" width="88.3184" height="204.83" filterUnits="userSpaceOnUse" color-interpolation-filters="sRGB">
<feFlood flood-opacity="0" result="BackgroundImageFix"/>
<feColorMatrix in="SourceAlpha" type="matrix" values="0 0 0 0 0 0 0 0 0 0 0 0 0 0 0 0 0 0 127 0" result="hardAlpha"/>
<feOffset dx="4.27634" dy="3.88758"/>
<feGaussianBlur stdDeviation="6.60888"/>
<feComposite in2="hardAlpha" operator="out"/>
<feColorMatrix type="matrix" values="0 0 0 0 0 0 0 0 0 0 0 0 0 0 0 0 0 0 0.61 0"/>
<feBlend mode="normal" in2="BackgroundImageFix" result="effect1_dropShadow_119_3042"/>
<feBlend mode="normal" in="SourceGraphic" in2="effect1_dropShadow_119_3042" result="shape"/>
</filter>
</defs>
</svg>
