<svg width="1016" height="735" viewBox="0 0 1016 735" fill="none" xmlns="http://www.w3.org/2000/svg">
<path d="M673.68 11.0173L618.881 110.108L676.168 109.991L733.456 109.875L673.68 11.0173Z" fill="#989898"/>
<path d="M693.114 109.957L675.382 109.993L658.483 110.027L658.082 208.208L692.906 206.298L693.114 109.957Z" fill="#989898"/>
<path d="M514.734 225.172C514.734 225.172 543.525 197.274 615.213 205.397C686.901 213.52 757.457 207.071 754.745 178.885C752.033 150.699 745.922 109.086 771.99 102.483C798.085 95.8698 814.148 114.929 814.148 114.929C846.401 137.644 859.737 180.254 859.737 180.254L886.223 214.146L911.835 283.194C911.835 283.194 900.068 303.772 835.634 335.543C771.191 367.287 651.441 417.615 586.133 454.073C520.825 490.531 450.073 538.025 317.764 585.837C185.482 633.641 137.975 625.708 114.049 613.935L102.594 580.294C102.594 580.294 100.522 560.698 166.848 521.606C233.173 482.514 275.587 446.2 275.587 446.2" stroke="white" stroke-width="2" stroke-linejoin="round"/>
<path d="M859.763 180.244C859.763 180.244 845.892 231.732 841.095 234.511C836.298 237.291 793.022 242.872 793.022 242.872L806.067 186.691L795.559 177.233" stroke="white" stroke-width="2" stroke-linejoin="round"/>
<path d="M312.337 421.552C309.141 424.496 307.294 426.146 307.128 426.203C305.08 426.901 300.368 424.305 300.368 424.305L275.631 446.154C275.631 446.154 311.867 465.966 359.863 433.712C407.86 401.459 544.244 280.19 555.318 273.354C566.391 266.518 601.945 268.638 615.822 262.144C629.698 255.65 653.336 229.85 653.336 229.85" stroke="white" stroke-width="2" stroke-linejoin="round"/>
<path d="M355.695 380.93C345.141 390.834 335.68 399.685 328.01 406.905" stroke="white" stroke-width="2" stroke-linejoin="round"/>
<path d="M396.543 342.739C388.928 349.848 381.423 356.826 374.24 363.572" stroke="white" stroke-width="2" stroke-linejoin="round"/>
<path d="M439.02 303.438C430.862 310.948 422.521 318.645 414.189 326.369" stroke="white" stroke-width="2" stroke-linejoin="round"/>
<path d="M476.891 269.014C469.274 275.845 461.078 283.245 452.581 291.026" stroke="white" stroke-width="2" stroke-linejoin="round"/>
<path d="M510.516 239.805C504.945 244.393 498.08 250.258 490.306 257.081" stroke="white" stroke-width="2" stroke-linejoin="round"/>
<path d="M812.707 113.411C778.333 105.325 784.015 129.81 787.886 143.446C791.758 157.083 810.68 194.605 762.941 219.725C715.212 244.872 668.707 231.993 619.722 224.162C572.245 216.59 545.414 221.043 526.719 228.531" stroke="white" stroke-width="2" stroke-linejoin="round"/>
<path d="M102.61 580.257L97.3631 586.25L112.448 630.55C112.448 630.55 115.01 669.542 233.018 664.154C351.025 658.766 447.608 634.263 536.631 593.178C625.654 552.093 709.806 524.907 789.782 502.236C869.759 479.564 921.778 443.436 944.486 410.01C967.195 376.585 984.046 357.426 970.942 336.987C970.942 336.987 946.061 317.876 931.128 297.69C916.222 277.495 911.833 283.194 911.833 283.194" stroke="white" stroke-width="2" stroke-linejoin="round"/>
<path d="M878.277 203.967C878.277 203.967 862.503 262.562 858.286 263.691C854.079 264.848 812.095 271.41 808.322 273.841C804.548 276.271 630.362 431.076 630.362 431.076" stroke="white" stroke-width="2" stroke-linejoin="round"/>
<path d="M884.508 211.92C884.508 211.92 869.545 268.817 866.031 270.016C862.518 271.214 815.345 280.133 812.495 281.104C809.646 282.076 653.877 419.691 653.877 419.691" stroke="white" stroke-width="2" stroke-linejoin="round"/>
<path d="M599.301 221.516C599.301 221.516 560.738 254.631 556.853 255.554C552.977 256.505 522.396 261.187 521.372 261.537C520.348 261.886 515.345 287.728 515.345 287.728L416.738 370.401L387.246 380.459L380.907 400.113C380.907 400.113 351.106 426.13 334.651 434.029C318.195 441.928 287.843 435.313 287.843 435.313" stroke="white" stroke-width="2" stroke-linejoin="round"/>
<path d="M539.754 231.72C529.539 231.557 489.726 215.839 480.27 214.46C470.814 213.08 463.5 226.514 465.169 228.603C466.847 230.719 513.044 240.428 527.621 243.337C542.199 246.245 546.799 238.898 539.754 231.72Z" stroke="white" stroke-width="2" stroke-linejoin="round"/>
<path d="M465.168 228.604C465.168 228.604 466.008 242.317 471.435 257.71C476.862 273.103 490.958 289.742 499.453 281.499C503.652 276.42 496.09 266.545 492.495 261.065C488.9 255.585 479.968 232.982 479.968 232.982" stroke="white" stroke-width="2" stroke-linejoin="round"/>
<path d="M469.392 275.741C447.61 277.7 432.335 272.743 432.425 269.652C432.516 266.562 436.351 258.147 441.217 256.116C446.084 254.085 470.199 254.081 470.199 254.081" stroke="white" stroke-width="2" stroke-linejoin="round"/>
<path d="M446.864 275.327C456.688 300.006 459.866 317.773 453.392 319.981C444.649 322.963 440.013 308.258 436.148 292.919C432.256 277.59 432.425 269.652 432.425 269.652" stroke="white" stroke-width="2" stroke-linejoin="round"/>
<path d="M482.555 214.916C534.581 137.004 554.233 144.115 568.315 166.878C568.315 166.878 589.99 173.856 600.129 204.175" stroke="white" stroke-width="2" stroke-linejoin="round"/>
<path d="M336.32 399.125C329.467 395.776 332.627 387.374 337.53 381.097C342.433 374.82 356.068 380.584 356.068 380.584" stroke="white" stroke-width="2" stroke-linejoin="round"/>
<path d="M332.571 391.009C318.422 394.073 313.94 405.398 312.372 416.842C310.803 428.286 319.29 434.168 326.094 430.117C332.898 426.066 328.294 406.652 328.294 406.652L335.569 399.814" stroke="white" stroke-width="2" stroke-linejoin="round"/>
<path d="M431.893 309.979C405.178 316.495 404.048 316.169 403.465 311.918C402.882 307.667 410.907 298.317 411.635 297.914C412.362 297.511 435.628 290.751 435.628 290.751" stroke="white" stroke-width="2" stroke-linejoin="round"/>
<path d="M414.254 314.047C414.254 314.047 413.93 336.129 414.78 345.698C415.629 355.266 403.598 357.206 396.661 342.637C389.733 328.096 403.598 310.141 403.598 310.141" stroke="white" stroke-width="2" stroke-linejoin="round"/>
<path d="M374.756 353.755C372.604 365.119 381.217 387.059 372.817 391.5C364.417 395.94 355.596 394.066 356.946 376.084C358.295 358.102 370.031 345.322 370.031 345.322L374.765 353.782L374.756 353.755Z" stroke="white" stroke-width="2" stroke-linejoin="round"/>
<path d="M394.753 334.759C383.477 337.554 370.024 345.294 370.024 345.294L374.758 353.754L383.124 355.289" stroke="white" stroke-width="2" stroke-linejoin="round"/>
<path d="M591.735 203.918C588.39 187.475 557.804 150.068 492.669 217.865" stroke="white" stroke-width="2" stroke-linejoin="round"/>
<path d="M794.484 168.637C794.484 168.637 812.263 183.032 812.611 184.057C812.96 185.081 802.157 233.791 802.157 233.791L837.665 228.975L856.526 171.737" stroke="white" stroke-width="2" stroke-miterlimit="10"/>
<path d="M113.34 633.707C113.34 633.707 139.06 663.626 254.064 652.773C369.067 641.92 467.677 612.121 527.089 584.194C586.502 556.267 661.358 525.36 736.549 504.321C811.711 483.291 813.427 482.706 815.142 482.121C816.857 481.536 949.196 442.335 970.98 337.004" stroke="white" stroke-width="2" stroke-linejoin="round"/>
<path d="M657.441 407.041C657.441 407.041 585.76 440.018 520.53 481.239C455.3 522.461 194.935 644.541 112.019 607.892" stroke="white" stroke-width="2" stroke-miterlimit="10"/>
<path d="M531.522 584.516C536.82 601.068 538.96 617.815 537.097 634.468L474.461 667.317C459.381 583.937 340.563 492.25 269.067 450.016C243.539 434.936 225.146 425.971 218.123 426.205L246.386 364.174C302.278 362.315 495.7 479.969 534.442 595.001C534.682 595.714 531.293 583.802 531.522 584.516Z" fill="#FC1447"/>
<path fill-rule="evenodd" clip-rule="evenodd" d="M218.123 426.205L232.917 476.609L269.067 450.016C243.539 434.936 225.146 425.971 218.123 426.205Z" fill="#81001C"/>
<path d="M563.91 581.715L537.097 634.468C538.96 617.815 536.82 601.068 531.522 584.516C531.293 583.802 534.682 595.714 534.442 595.001L563.91 581.715Z" fill="#81001C"/>
<path d="M776.919 576.795C779.289 553.202 776.433 529.462 769.455 505.986C769.192 505.098 772.322 515.791 770.402 509.263L813.49 496.56L776.919 576.795Z" fill="#81001C"/>
<path fill-rule="evenodd" clip-rule="evenodd" d="M359.769 280.471C368.935 280.166 372.28 277.697 405.659 299.162L400.373 311.205L394.96 321.054L391.374 332.161L373.608 339.784L359.769 280.471Z" fill="#81001C"/>
<path d="M776.919 576.795L689.899 612.743C669.903 494.527 499.144 359.28 405.659 299.162C372.28 277.697 368.935 280.166 359.769 280.471L396.431 192.67C469.438 190.242 719.665 345.957 770.402 509.263C772.322 515.791 769.192 505.098 769.455 505.986C776.433 529.462 779.289 553.202 776.919 576.795Z" fill="#FC1447"/>
<path d="M565.098 325.149L568.44 327.626L555.101 345.622L551.759 343.145L565.098 325.149ZM542.453 336.247L539.111 333.77L552.449 315.774L555.791 318.251L542.453 336.247ZM557.733 335.623L547.886 328.325L550.002 325.471L559.848 332.769L557.733 335.623Z" fill="#212121"/>
<path d="M559.537 349.332L581.746 338.839L584.862 341.498L578.011 365.1L574.7 362.275L581.213 341.287L582.479 342.367L562.798 352.116L559.537 349.332ZM566.432 348.402L569.402 346.646L578.603 354.499L577.336 357.709L566.432 348.402Z" fill="#212121"/>
<path d="M584.662 370.767L600.083 354.521L611.107 364.985L608.661 367.516L599.911 359.211L601.29 359.152L587.633 373.587L584.662 370.767Z" fill="#212121"/>
<path d="M602.401 389.191L618.543 373.661L624.932 380.302C626.308 381.732 627.253 383.176 627.768 384.634C628.298 386.108 628.399 387.536 628.07 388.918C627.742 390.299 626.986 391.56 625.802 392.699C624.618 393.837 623.33 394.544 621.936 394.819C620.543 395.094 619.12 394.938 617.668 394.352C616.23 393.781 614.824 392.781 613.448 391.351L608.656 386.37L611.35 386.354L605.285 392.189L602.401 389.191ZM611.027 386.665L611.193 383.929L615.852 388.772C617.124 390.094 618.355 390.82 619.544 390.948C620.764 391.077 621.881 390.654 622.896 389.678C623.926 388.687 624.392 387.587 624.295 386.378C624.212 385.184 623.535 383.926 622.263 382.604L617.604 377.762L620.366 377.679L611.027 386.665Z" fill="#212121"/>
<path d="M635.591 404.539L642.978 412.872L640.416 415.143L633.029 406.81L635.591 404.539ZM628.619 411.146L637.004 420.605L634.394 422.919L623.25 410.347L640.012 395.488L650.859 407.725L648.249 410.038L640.161 400.915L628.619 411.146Z" fill="#212121"/>
<path d="M646.747 436.43L662.094 423.755L661.936 425.172L656.597 418.708L659.311 416.466L671.375 431.073L668.661 433.314L663.322 426.85L664.723 426.938L649.376 439.613L646.747 436.43Z" fill="#212121"/>
<path d="M678.765 452.22C680.383 454.34 681.158 456.339 681.088 458.217C681.019 460.095 680.035 461.759 678.136 463.209C676.135 464.736 674.132 465.259 672.127 464.777C670.151 464.299 668.303 462.932 666.581 460.677L660.736 453.021L678.54 439.428L681.026 442.684L674.998 447.286L678.765 452.22ZM669.008 458.583C669.979 459.854 671.026 460.611 672.151 460.853C673.288 461.112 674.424 460.808 675.56 459.941C676.68 459.086 677.228 458.117 677.206 457.034C677.201 455.937 676.706 454.745 675.723 453.456L672.48 449.208L665.765 454.335L669.008 458.583ZM674.018 470.418L691.822 456.825L694.308 460.081L676.504 473.674L674.018 470.418Z" fill="#212121"/>
<path d="M685.154 484.965L703.479 472.082L705.835 475.433L692.824 484.579L712.754 485.276L714.981 488.443L696.656 501.326L694.301 497.975L707.285 488.847L687.381 488.132L685.154 484.965ZM710.433 479.358C709.329 477.788 708.826 476.368 708.925 475.099C709.036 473.847 709.687 472.789 710.879 471.925L712.554 474.308C711.92 474.779 711.57 475.338 711.503 475.985C711.449 476.649 711.685 477.356 712.213 478.107C712.74 478.857 713.326 479.319 713.97 479.493C714.625 479.684 715.282 479.561 715.94 479.124L717.597 481.48C716.38 482.309 715.158 482.556 713.93 482.219C712.703 481.883 711.537 480.929 710.433 479.358Z" fill="#212121"/>
<path d="M352.917 466.409L366.371 448.499L374.379 454.515C376.392 456.027 377.66 457.606 378.184 459.254C378.72 460.884 378.431 462.441 377.316 463.925C376.214 465.392 374.825 466.123 373.148 466.117C371.484 466.095 369.774 465.423 368.017 464.104L369.169 463.529C371.165 465.028 372.407 466.588 372.897 468.21C373.386 469.831 373.061 471.401 371.92 472.919C370.754 474.472 369.267 475.262 367.458 475.29C365.662 475.302 363.646 474.468 361.412 472.79L352.917 466.409ZM358.114 466.31L363.231 470.154C364.391 471.026 365.43 471.472 366.347 471.494C367.277 471.499 368.082 471.05 368.761 470.146C369.44 469.242 369.635 468.361 369.345 467.503C369.069 466.628 368.35 465.755 367.191 464.884L362.074 461.04L358.114 466.31ZM363.899 458.609L368.351 461.953C369.426 462.761 370.405 463.163 371.288 463.159C372.184 463.138 372.939 462.719 373.555 461.9C374.195 461.047 374.394 460.196 374.152 459.347C373.909 458.497 373.251 457.669 372.176 456.862L367.724 453.518L363.899 458.609Z" fill="#212121"/>
<path d="M380.854 488.707C379.517 487.578 378.473 486.319 377.719 484.929C376.966 483.54 376.504 482.103 376.334 480.618C376.177 479.118 376.317 477.645 376.756 476.2C377.208 474.739 377.97 473.373 379.044 472.101C380.117 470.83 381.329 469.857 382.68 469.183C384.045 468.492 385.474 468.107 386.965 468.026C388.471 467.93 389.972 468.136 391.468 468.645C392.965 469.155 394.373 469.967 395.693 471.082C397.03 472.21 398.067 473.463 398.804 474.839C399.557 476.228 400.012 477.674 400.169 479.174C400.339 480.659 400.199 482.131 399.747 483.592C399.309 485.037 398.553 486.395 397.479 487.667C396.406 488.938 395.187 489.919 393.822 490.61C392.457 491.3 391.029 491.686 389.537 491.766C388.045 491.847 386.551 491.632 385.055 491.123C383.575 490.627 382.174 489.822 380.854 488.707ZM383.183 485.899C384.047 486.628 384.97 487.156 385.951 487.482C386.932 487.808 387.919 487.929 388.911 487.845C389.917 487.745 390.869 487.46 391.768 486.991C392.697 486.519 393.533 485.843 394.276 484.962C395.019 484.082 395.539 483.153 395.835 482.174C396.161 481.193 396.282 480.206 396.198 479.214C396.128 478.206 395.85 477.245 395.364 476.332C394.879 475.42 394.204 474.599 393.34 473.869C392.476 473.14 391.553 472.612 390.572 472.286C389.607 471.974 388.614 471.861 387.592 471.947C386.6 472.031 385.639 472.309 384.71 472.781C383.811 473.251 382.99 473.925 382.247 474.806C381.517 475.669 380.99 476.592 380.664 477.573C380.354 478.568 380.234 479.57 380.304 480.578C380.388 481.57 380.673 482.523 381.159 483.436C381.644 484.348 382.319 485.169 383.183 485.899Z" fill="#212121"/>
<path d="M395.01 497.66L398.065 496.35C398.317 497.488 398.734 498.575 399.314 499.611C399.925 500.645 400.637 501.556 401.45 502.341C402.264 503.127 403.1 503.731 403.961 504.153C404.837 504.589 405.667 504.793 406.451 504.765C407.235 504.737 407.91 504.418 408.477 503.809C409.16 503.075 409.364 502.245 409.089 501.319C408.845 500.392 408.207 499.449 407.176 498.49L403.357 494.937L405.581 492.547L409.165 495.882C410.087 496.74 410.972 497.214 411.82 497.304C412.684 497.409 413.414 497.141 414.01 496.501C414.504 495.97 414.739 495.372 414.716 494.709C414.707 494.06 414.494 493.381 414.076 492.672C413.674 491.977 413.106 491.303 412.373 490.65C411.67 489.996 410.835 489.422 409.866 488.929C408.912 488.42 407.902 488.048 406.837 487.815L408.166 484.462C409.705 484.874 411.139 485.494 412.467 486.322C413.81 487.164 414.969 488.126 415.944 489.208C416.919 490.29 417.646 491.419 418.126 492.594C418.622 493.784 418.83 494.938 418.749 496.058C418.683 497.163 418.251 498.144 417.451 499.003C416.725 499.784 415.867 500.283 414.879 500.5C413.92 500.715 412.929 500.653 411.906 500.312C410.882 499.972 409.894 499.358 408.941 498.472L409.756 497.831C410.834 498.834 411.596 499.893 412.044 501.009C412.522 502.124 412.682 503.205 412.523 504.252C412.38 505.314 411.916 506.267 411.132 507.11C410.39 507.907 409.526 508.428 408.539 508.675C407.566 508.906 406.532 508.906 405.437 508.674C404.356 508.426 403.268 507.982 402.174 507.342C401.093 506.686 400.075 505.87 399.119 504.893C398.164 503.916 397.324 502.814 396.6 501.588C395.893 500.375 395.363 499.066 395.01 497.66Z" fill="#212121"/>
<path d="M424.8 526.727L436.905 514.847L430.763 508.59L427.819 511.255C426.709 512.255 425.629 513.18 424.58 514.03C423.561 514.881 422.574 515.595 421.618 516.175C420.677 516.769 419.798 517.168 418.982 517.372C418.165 517.575 417.457 517.539 416.856 517.261L414.175 513.616C414.712 514.224 415.373 514.502 416.158 514.449C416.958 514.411 417.843 514.125 418.814 513.591C419.784 513.057 420.832 512.343 421.957 511.449C423.097 510.539 424.29 509.517 425.538 508.382L430.788 503.589L442.286 515.305L427.669 529.65L424.8 526.727ZM407.721 518.873L413.659 513.09L431.075 530.836L425.159 536.641L422.47 533.901L425.873 530.561L413.837 518.297L410.434 521.636L407.721 518.873Z" fill="#212121"/>
<path d="M436.173 536.205C436.659 537.348 437.274 538.187 438.017 538.723C438.76 539.259 439.779 539.417 441.074 539.195L443.062 538.866L443.673 538.874L460.115 534.543L462.861 537.583L442.924 542.484C441.27 542.914 439.786 542.989 438.471 542.711C437.156 542.433 436.045 541.855 435.138 540.979C434.23 540.132 433.539 539.017 433.065 537.633L436.173 536.205ZM440.949 541.206L448.124 521.27L451.106 524.57L444.847 540.746L440.949 541.206Z" fill="#212121"/>
<path d="M465.173 542.248L468.252 545.93L465.894 554.784L475.026 554.031L478.146 557.763L465.074 558.891L461.352 572.598L458.191 568.818L460.715 559.115L450.739 559.907L447.66 556.224L461.667 555.066L465.173 542.248Z" fill="#212121"/>
<g filter="url(#filter0_d_8036_21076)">
<path d="M321.012 391.176C291.68 318.159 321.587 266.381 309.13 255.639L294.309 259.858L304.549 213.282C316.558 220.448 347.99 239.813 355.568 242.419C350.825 243.769 339.759 246.919 339.759 246.919C352.824 292.814 319.869 345.856 352.629 382.176L345.713 384.144C314.054 321.712 344.569 305.087 334.819 248.326L328.891 250.013C339.751 280.659 308.298 335.259 341.761 385.27L333.856 387.52C302.198 325.088 332.713 308.462 322.962 251.701L317.034 253.388C327.895 284.034 297.258 326.494 327.928 389.207L321.012 391.176Z" fill="#989898"/>
</g>
<g filter="url(#filter1_d_8036_21076)">
<path d="M156.465 524.969C127.133 451.952 157.041 400.174 144.583 389.432L129.762 393.651L140.002 347.075C152.011 354.241 183.443 373.606 191.021 376.212C186.278 377.562 175.212 380.712 175.212 380.712C188.278 426.607 155.322 479.649 188.082 515.968L181.166 517.937C149.507 455.505 180.022 438.88 170.272 382.119L164.344 383.806C175.204 414.452 143.751 469.052 177.214 519.063L169.309 521.313C137.651 458.881 168.166 442.255 158.416 385.494L152.487 387.181C163.348 417.827 132.711 460.287 163.381 523L156.465 524.969Z" fill="#989898"/>
</g>
<g filter="url(#filter2_d_8036_21076)">
<path d="M275.444 664.389C248.935 590.3 280.807 539.708 268.771 528.495L253.799 532.142L265.818 485.994C277.543 493.615 308.209 514.172 315.682 517.066C310.891 518.234 299.712 520.957 299.712 520.957C311.007 567.319 276.041 619.058 307.383 656.608L300.396 658.31C271.156 594.709 302.287 579.267 294.721 522.173L288.733 523.632C298.41 554.672 264.884 608.024 296.404 659.282L288.419 661.228C259.179 597.627 290.309 582.185 282.744 525.091L276.756 526.55C286.432 557.59 254.189 598.843 282.43 662.687L275.444 664.389Z" fill="#989898"/>
</g>
<g filter="url(#filter3_d_8036_21076)">
<path d="M533.065 590.428C506.556 516.339 538.428 465.747 526.392 454.534L511.42 458.181L523.439 412.033C535.164 419.654 565.831 440.211 573.303 443.106C568.512 444.273 557.333 446.996 557.333 446.996C568.628 493.358 533.662 545.097 565.004 582.647L558.017 584.349C528.777 520.748 559.908 505.306 552.343 448.212L546.354 449.671C556.031 480.711 522.505 534.063 554.025 585.321L546.04 587.267C516.8 523.666 547.93 508.224 540.365 451.13L534.377 452.589C544.053 483.629 511.81 524.882 540.052 588.726L533.065 590.428Z" fill="#989898"/>
</g>
<g filter="url(#filter4_d_8036_21076)">
<path d="M798.994 497.354C772.486 423.264 804.358 372.672 792.322 361.46L777.35 365.107L789.369 318.959C801.094 326.58 831.76 347.137 839.232 350.031C834.442 351.198 823.263 353.922 823.263 353.922C834.558 400.284 799.591 452.023 830.934 489.572L823.947 491.275C794.707 427.674 825.837 412.232 818.272 355.138L812.284 356.597C821.96 387.637 788.435 440.989 819.955 492.247L811.97 494.192C782.73 430.592 813.86 415.149 806.295 358.056L800.306 359.515C809.983 390.555 777.739 431.807 805.981 495.651L798.994 497.354Z" fill="#989898"/>
</g>
<defs>
<filter id="filter0_d_8036_21076" x="285.367" y="203.952" width="87.6934" height="204.33" filterUnits="userSpaceOnUse" color-interpolation-filters="sRGB">
<feFlood flood-opacity="0" result="BackgroundImageFix"/>
<feColorMatrix in="SourceAlpha" type="matrix" values="0 0 0 0 0 0 0 0 0 0 0 0 0 0 0 0 0 0 127 0" result="hardAlpha"/>
<feOffset dx="4.27634" dy="3.88758"/>
<feGaussianBlur stdDeviation="6.60888"/>
<feComposite in2="hardAlpha" operator="out"/>
<feColorMatrix type="matrix" values="0 0 0 0 0 0 0 0 0 0 0 0 0 0 0 0 0 0 0.61 0"/>
<feBlend mode="normal" in2="BackgroundImageFix" result="effect1_dropShadow_8036_21076"/>
<feBlend mode="normal" in="SourceGraphic" in2="effect1_dropShadow_8036_21076" result="shape"/>
</filter>
<filter id="filter1_d_8036_21076" x="120.82" y="337.745" width="87.6934" height="204.33" filterUnits="userSpaceOnUse" color-interpolation-filters="sRGB">
<feFlood flood-opacity="0" result="BackgroundImageFix"/>
<feColorMatrix in="SourceAlpha" type="matrix" values="0 0 0 0 0 0 0 0 0 0 0 0 0 0 0 0 0 0 127 0" result="hardAlpha"/>
<feOffset dx="4.27634" dy="3.88758"/>
<feGaussianBlur stdDeviation="6.60888"/>
<feComposite in2="hardAlpha" operator="out"/>
<feColorMatrix type="matrix" values="0 0 0 0 0 0 0 0 0 0 0 0 0 0 0 0 0 0 0.61 0"/>
<feBlend mode="normal" in2="BackgroundImageFix" result="effect1_dropShadow_8036_21076"/>
<feBlend mode="normal" in="SourceGraphic" in2="effect1_dropShadow_8036_21076" result="shape"/>
</filter>
<filter id="filter2_d_8036_21076" x="244.859" y="476.664" width="88.3184" height="204.83" filterUnits="userSpaceOnUse" color-interpolation-filters="sRGB">
<feFlood flood-opacity="0" result="BackgroundImageFix"/>
<feColorMatrix in="SourceAlpha" type="matrix" values="0 0 0 0 0 0 0 0 0 0 0 0 0 0 0 0 0 0 127 0" result="hardAlpha"/>
<feOffset dx="4.27634" dy="3.88758"/>
<feGaussianBlur stdDeviation="6.60888"/>
<feComposite in2="hardAlpha" operator="out"/>
<feColorMatrix type="matrix" values="0 0 0 0 0 0 0 0 0 0 0 0 0 0 0 0 0 0 0.61 0"/>
<feBlend mode="normal" in2="BackgroundImageFix" result="effect1_dropShadow_8036_21076"/>
<feBlend mode="normal" in="SourceGraphic" in2="effect1_dropShadow_8036_21076" result="shape"/>
</filter>
<filter id="filter3_d_8036_21076" x="502.48" y="402.703" width="88.3184" height="204.83" filterUnits="userSpaceOnUse" color-interpolation-filters="sRGB">
<feFlood flood-opacity="0" result="BackgroundImageFix"/>
<feColorMatrix in="SourceAlpha" type="matrix" values="0 0 0 0 0 0 0 0 0 0 0 0 0 0 0 0 0 0 127 0" result="hardAlpha"/>
<feOffset dx="4.27634" dy="3.88758"/>
<feGaussianBlur stdDeviation="6.60888"/>
<feComposite in2="hardAlpha" operator="out"/>
<feColorMatrix type="matrix" values="0 0 0 0 0 0 0 0 0 0 0 0 0 0 0 0 0 0 0.61 0"/>
<feBlend mode="normal" in2="BackgroundImageFix" result="effect1_dropShadow_8036_21076"/>
<feBlend mode="normal" in="SourceGraphic" in2="effect1_dropShadow_8036_21076" result="shape"/>
</filter>
<filter id="filter4_d_8036_21076" x="768.41" y="309.629" width="88.3184" height="204.83" filterUnits="userSpaceOnUse" color-interpolation-filters="sRGB">
<feFlood flood-opacity="0" result="BackgroundImageFix"/>
<feColorMatrix in="SourceAlpha" type="matrix" values="0 0 0 0 0 0 0 0 0 0 0 0 0 0 0 0 0 0 127 0" result="hardAlpha"/>
<feOffset dx="4.27634" dy="3.88758"/>
<feGaussianBlur stdDeviation="6.60888"/>
<feComposite in2="hardAlpha" operator="out"/>
<feColorMatrix type="matrix" values="0 0 0 0 0 0 0 0 0 0 0 0 0 0 0 0 0 0 0.61 0"/>
<feBlend mode="normal" in2="BackgroundImageFix" result="effect1_dropShadow_8036_21076"/>
<feBlend mode="normal" in="SourceGraphic" in2="effect1_dropShadow_8036_21076" result="shape"/>
</filter>
</defs>
</svg>
