<svg width="1162" height="1021" viewBox="0 0 1162 1021" fill="none"
    xmlns="http://www.w3.org/2000/svg">
    <path d="M766.228 183.131L702.718 297.973L769.112 297.838L835.506 297.703L766.228 183.131Z" fill="#3F3840"/>
    <path d="M788.751 297.798L768.201 297.84L748.616 297.88L748.151 411.668L788.51 409.454L788.751 297.798Z" fill="#3F3840"/>
    <path d="M582.01 430.821C582.01 430.821 615.377 398.514 698.461 407.92C781.545 417.327 863.316 409.859 860.173 377.218C857.03 344.577 849.948 296.387 880.16 288.74C910.403 281.081 929.019 303.153 929.019 303.153C966.399 329.459 981.855 378.804 981.855 378.804L1012.55 418.052L1042.23 498.014C1042.23 498.014 1028.6 521.844 953.921 558.637C879.234 595.398 740.448 653.681 664.759 695.902C589.069 738.122 507.07 793.122 353.728 848.492C200.419 903.851 145.36 894.664 117.631 881.03L104.355 842.073C104.355 842.073 101.954 819.379 178.823 774.108C255.692 728.837 304.848 686.784 304.848 686.784" stroke="white" stroke-width="2" stroke-linejoin="round"/>
    <path d="M981.887 378.793C981.887 378.793 965.811 438.418 960.251 441.637C954.691 444.856 904.536 451.319 904.536 451.319L919.655 386.258L907.477 375.306" stroke="white" stroke-width="2" stroke-linejoin="round"/>
    <path d="M347.442 658.239C343.737 661.649 341.597 663.56 341.404 663.625C339.032 664.434 333.57 661.428 333.57 661.428L304.901 686.73C304.901 686.73 346.897 709.673 402.523 672.322C458.149 634.97 616.213 494.534 629.047 486.617C641.881 478.701 683.086 481.156 699.169 473.636C715.251 466.115 742.646 436.237 742.646 436.237" stroke="white" stroke-width="2" stroke-linejoin="round"/>
    <path d="M397.689 611.197C385.458 622.666 374.493 632.917 365.604 641.278" stroke="white" stroke-width="2" stroke-linejoin="round"/>
    <path d="M445.032 566.97C436.207 575.202 427.509 583.284 419.184 591.096" stroke="white" stroke-width="2" stroke-linejoin="round"/>
    <path d="M494.262 521.456C484.807 530.153 475.14 539.067 465.484 548.012" stroke="white" stroke-width="2" stroke-linejoin="round"/>
    <path d="M538.151 481.591C529.324 489.502 519.826 498.071 509.977 507.082" stroke="white" stroke-width="2" stroke-linejoin="round"/>
    <path d="M577.121 447.769C570.665 453.082 562.708 459.874 553.698 467.775" stroke="white" stroke-width="2" stroke-linejoin="round"/>
    <path d="M927.346 301.396C887.509 292.033 894.094 320.387 898.581 336.179C903.068 351.971 924.998 395.424 869.67 424.514C814.353 453.636 760.456 438.721 703.684 429.653C648.66 420.883 617.565 426.04 595.898 434.712" stroke="white" stroke-width="2" stroke-linejoin="round"/>
    <path d="M104.376 842.03L98.2954 848.97L115.778 900.272C115.778 900.272 118.748 945.426 255.514 939.187C392.28 932.948 504.217 904.571 607.39 856.993C710.564 809.414 808.093 777.932 900.783 751.677C993.473 725.422 1053.76 683.583 1080.08 644.874C1106.4 606.166 1125.93 583.978 1110.74 560.309C1110.74 560.309 1081.9 538.177 1064.6 514.801C1047.32 491.414 1042.24 498.014 1042.24 498.014" stroke="white" stroke-width="2" stroke-linejoin="round"/>
    <path d="M1003.35 406.266C1003.35 406.266 985.064 474.122 980.177 475.43C975.301 476.769 926.643 484.369 922.27 487.183C917.896 489.998 716.022 669.27 716.022 669.27" stroke="white" stroke-width="2" stroke-linejoin="round"/>
    <path d="M1010.56 415.473C1010.56 415.473 993.222 481.363 989.15 482.75C985.078 484.138 930.406 494.466 927.104 495.592C923.801 496.717 743.272 656.083 743.272 656.083" stroke="white" stroke-width="2" stroke-linejoin="round"/>
    <path d="M680.021 426.587C680.021 426.587 635.329 464.936 630.826 466.006C626.334 467.107 590.891 472.529 589.705 472.933C588.519 473.337 582.72 503.264 582.72 503.264L468.438 599.004L434.258 610.653L426.912 633.412C426.912 633.412 392.373 663.541 373.302 672.689C354.231 681.836 319.054 674.177 319.054 674.177" stroke="white" stroke-width="2" stroke-linejoin="round"/>
    <path d="M611.006 438.404C599.167 438.215 553.025 420.013 542.066 418.415C531.108 416.817 522.631 432.375 524.565 434.793C526.509 437.244 580.05 448.488 596.945 451.856C613.839 455.224 619.171 446.715 611.006 438.404Z" stroke="white" stroke-width="2" stroke-linejoin="round"/>
    <path d="M524.565 434.794C524.565 434.794 525.539 450.673 531.829 468.5C538.119 486.326 554.455 505.595 564.3 496.049C569.167 490.167 560.403 478.732 556.236 472.386C552.07 466.04 541.718 439.864 541.718 439.864" stroke="white" stroke-width="2" stroke-linejoin="round"/>
    <path d="M529.461 489.383C504.217 491.652 486.514 485.911 486.618 482.332C486.723 478.753 491.168 469.008 496.808 466.656C502.448 464.304 530.397 464.299 530.397 464.299" stroke="white" stroke-width="2" stroke-linejoin="round"/>
    <path d="M503.352 488.905C514.738 517.484 518.421 538.059 510.918 540.616C500.786 544.069 495.412 527.04 490.933 509.277C486.422 491.525 486.618 482.332 486.618 482.332" stroke="white" stroke-width="2" stroke-linejoin="round"/>
    <path d="M544.716 418.944C605.012 328.717 627.789 336.952 644.108 363.313C644.108 363.313 669.229 371.394 680.98 406.505" stroke="white" stroke-width="2" stroke-linejoin="round"/>
    <path d="M375.238 632.269C367.296 628.39 370.958 618.661 376.641 611.392C382.323 604.123 398.126 610.798 398.126 610.798" stroke="white" stroke-width="2" stroke-linejoin="round"/>
    <path d="M370.89 622.871C354.492 626.42 349.299 639.534 347.48 652.787C345.662 666.039 355.499 672.851 363.384 668.16C371.269 663.469 365.934 640.987 365.934 640.987L374.365 633.068" stroke="white" stroke-width="2" stroke-linejoin="round"/>
    <path d="M485.999 529.032C455.037 536.577 453.727 536.2 453.052 531.277C452.376 526.354 461.677 515.526 462.52 515.059C463.363 514.593 490.327 506.764 490.327 506.764" stroke="white" stroke-width="2" stroke-linejoin="round"/>
    <path d="M465.56 533.743C465.56 533.743 465.185 559.316 466.169 570.396C467.154 581.477 453.211 583.723 445.171 566.852C437.142 550.012 453.21 529.219 453.21 529.219" stroke="white" stroke-width="2" stroke-linejoin="round"/>
    <path d="M419.783 579.726C417.289 592.887 427.272 618.294 417.536 623.437C407.801 628.58 397.578 626.41 399.142 605.585C400.706 584.76 414.308 569.961 414.308 569.961L419.794 579.759L419.783 579.726Z" stroke="white" stroke-width="2" stroke-linejoin="round"/>
    <path d="M442.956 557.728C429.887 560.965 414.296 569.929 414.296 569.929L419.782 579.726L429.478 581.504" stroke="white" stroke-width="2" stroke-linejoin="round"/>
    <path d="M671.251 406.206C667.375 387.164 631.927 343.845 556.437 422.358" stroke="white" stroke-width="2" stroke-linejoin="round"/>
    <path d="M906.232 365.351C906.232 365.351 926.837 382.021 927.241 383.207C927.645 384.394 915.125 440.803 915.125 440.803L956.277 435.225L978.136 368.941" stroke="white" stroke-width="2" stroke-miterlimit="10"/>
    <path d="M116.81 903.929C116.81 903.929 146.619 938.576 279.904 926.008C413.189 913.44 527.473 878.931 596.33 846.59C665.187 814.249 751.943 778.457 839.086 754.093C926.196 729.739 928.184 729.061 930.172 728.384C932.16 727.706 1085.54 682.309 1110.78 560.33" stroke="white" stroke-width="2" stroke-linejoin="round"/>
    <path d="M747.405 641.434C747.405 641.434 664.329 679.622 588.73 727.359C513.131 775.096 211.377 916.472 115.282 874.03" stroke="white" stroke-width="2" stroke-miterlimit="10"/>
    <path d="M601.885 847.884C608.026 867.068 610.506 886.476 608.347 905.777L535.755 943.847C518.278 847.213 380.571 740.951 297.71 692.003C268.124 674.527 246.808 664.136 238.669 664.407L271.424 592.516C336.2 590.361 560.369 726.718 605.27 860.036C605.548 860.862 601.62 847.057 601.885 847.884Z" fill="currentColor"/>
    <path fill-rule="evenodd" clip-rule="evenodd" d="M238.669 664.407L255.814 722.824L297.71 692.003C268.124 674.527 246.808 664.136 238.669 664.407Z" fill="currentColor" filter="url(#filter-darken)"/>
    <path d="M639.422 844.638L608.347 905.777C610.506 886.476 608.026 867.068 601.885 847.884C601.62 847.057 605.548 860.862 605.27 860.036L639.422 844.638Z" fill="currentColor" filter="url(#filter-darken)"/>
    <path d="M886.295 838.936C889.042 811.592 885.731 784.079 877.645 756.87C877.339 755.842 880.967 768.235 878.742 760.668L928.68 745.946L886.295 838.936Z" fill="currentColor" filter="url(#filter-darken)"/>
    <path fill-rule="evenodd" clip-rule="evenodd" d="M402.834 495.507C413.457 495.154 417.334 492.293 456.019 517.17L449.892 531.127L443.619 542.541L439.463 555.414L418.873 564.248L402.834 495.507Z" fill="currentColor" filter="url(#filter-darken)"/>
    <path d="M886.295 838.936L785.442 880.598C762.268 743.59 564.365 586.844 456.019 517.17C417.334 492.293 413.457 495.154 402.834 495.507L445.323 393.749C529.937 390.935 819.939 571.403 878.742 760.668C880.967 768.235 877.339 755.842 877.645 756.87C885.731 784.079 889.042 811.592 886.295 838.936Z" fill="currentColor"/>
    <g filter="url(#filter0_d_7916_9437)">
        <path d="M636.802 545.765L640.966 548.852L627.628 566.847L623.463 563.761L628.932 556.382L620.757 550.323L615.288 557.701L611.123 554.614L624.462 536.619L628.626 539.705L623.367 546.801L631.543 552.86L636.802 545.765Z" fill="#212121"/>
    </g>
    <g filter="url(#filter1_d_7916_9437)">
        <path d="M650.528 585.994L652.136 581.055L644.225 574.303L639.6 576.666L635.56 573.217L657.696 562.661L661.59 565.985L654.666 589.525L650.528 585.994ZM648.046 572.389L653.45 577.001L656.315 568.172L648.046 572.389Z" fill="#212121"/>
    </g>
    <g filter="url(#filter2_d_7916_9437)">
        <path d="M691.081 592.226L688.149 595.267L680.421 587.931L667.931 601.137L664.194 597.59L679.615 581.343L691.081 592.226Z" fill="#212121"/>
    </g>
    <g filter="url(#filter3_d_7916_9437)">
        <path d="M707.757 610.479C711.906 614.791 712.265 619.641 708.644 623.124C705.047 626.585 700.214 626.039 696.065 621.727L692.937 618.476L688.487 622.757L684.892 619.022L701.035 603.491L707.757 610.479ZM698.91 618.591C701.106 620.874 703.253 621.029 705.006 619.342C706.781 617.634 706.71 615.483 704.513 613.2L701.585 610.156L695.981 615.547L698.91 618.591Z" fill="#212121"/>
    </g>
    <g filter="url(#filter4_d_7916_9437)">
        <path d="M715.677 644.693L723.765 653.817L720.652 656.576L709.147 643.598L725.909 628.739L737.138 641.406L734.025 644.166L726.214 635.353L722.574 638.58L729.473 646.362L726.456 649.037L719.557 641.255L715.677 644.693Z" fill="#212121"/>
    </g>
    <g filter="url(#filter5_d_7916_9437)">
        <path d="M761.167 668.606L757.91 671.296L753.346 665.769L739.331 677.344L736.071 673.396L750.085 661.822L745.541 656.319L748.798 653.63L761.167 668.606Z" fill="#212121"/>
    </g>
    <g filter="url(#filter6_d_7916_9437)">
        <path d="M771.276 692.627C774.558 696.926 774.515 700.824 770.674 703.756C766.579 706.882 762.371 705.747 758.875 701.169L752.739 693.132L770.543 679.539L773.67 683.634L767.82 688.1L771.276 692.627ZM766.196 710.758L784 697.165L787.127 701.26L769.323 714.853L766.196 710.758ZM761.753 698.61C763.365 700.721 765.423 701.202 767.432 699.668C769.391 698.173 769.234 696.28 767.603 694.144L764.768 690.43L758.918 694.896L761.753 698.61Z" fill="#212121"/>
    </g>
    <g filter="url(#filter7_d_7916_9437)">
        <path d="M806.577 724.959C804.129 721.477 804.465 718.894 807.012 717.064L809.055 719.97C807.817 720.88 807.659 722.046 808.671 723.486C809.647 724.874 810.835 725.173 812.11 724.316L814.153 727.221C811.569 728.999 808.988 728.388 806.577 724.959ZM781.13 730.214L799.455 717.331L802.418 721.546L790.48 729.938L808.564 730.289L811.362 734.269L793.037 747.151L790.092 742.963L802.004 734.589L783.946 734.219L781.13 730.214Z" fill="#212121"/>
    </g>
    <g filter="url(#filter8_d_7916_9437)">
        <path d="M414.673 708.39C416.367 710.664 416.455 713.051 414.821 715.226C412.477 718.347 408.604 718.44 404.076 715.038L395.249 708.408L408.703 690.498L417.043 696.764C421.188 699.877 422.395 703.385 420.166 706.353C418.801 708.17 416.836 708.815 414.673 708.39ZM410.516 696.663L407.248 701.012L411.112 703.914C412.903 705.26 414.407 705.229 415.483 703.796C416.54 702.389 416.17 700.91 414.379 699.565L410.516 696.663ZM406.229 711.853C408.148 713.294 409.703 713.302 410.875 711.741C412.009 710.232 411.549 708.766 409.631 707.324L405.076 703.903L401.675 708.432L406.229 711.853Z" fill="#212121"/>
    </g>
    <g filter="url(#filter9_d_7916_9437)">
        <path d="M426.748 733.449C421.345 728.887 420.563 721.777 424.857 716.691C429.151 711.606 436.291 711.185 441.695 715.747C447.074 720.289 447.9 727.395 443.586 732.505C439.271 737.615 432.127 737.991 426.748 733.449ZM429.597 730.075C432.653 732.655 436.83 732.371 439.576 729.119C442.322 725.867 441.902 721.702 438.846 719.121C435.789 716.541 431.612 716.825 428.867 720.077C426.121 723.329 426.541 727.494 429.597 730.075Z" fill="#212121"/>
    </g>
    <g filter="url(#filter10_d_7916_9437)">
        <path d="M461.732 748.487C463.019 750.908 462.816 753.429 461.094 755.28C458.216 758.372 453.186 757.013 449.25 753.351C447.072 751.324 445.254 748.627 444.306 745.559L448.006 743.932C448.655 746.24 450.09 748.362 451.683 749.845C453.838 751.85 456.336 752.689 457.753 751.166C458.908 749.924 458.351 748.269 456.64 746.677L452.635 742.95L455.294 740.092L459.019 743.558C460.565 744.997 462.087 745.146 463.09 744.068C464.333 742.733 463.534 740.678 461.683 738.956C460.301 737.67 458.336 736.541 456.189 736.029L457.788 732.009C460.419 732.752 462.779 734.162 464.653 735.906C468.448 739.437 470.115 744.223 467.346 747.198C465.864 748.791 463.773 749.206 461.732 748.487Z" fill="#212121"/>
    </g>
    <g filter="url(#filter11_d_7916_9437)">
        <path d="M482.292 779.027L484.488 781.265L478.162 787.474L474.8 784.048L478.111 780.798L467.039 769.515L463.727 772.765L460.365 769.34L466.714 763.154L467.342 763.793C469.45 765.804 473.391 762.968 478.025 758.734L483.206 754.008L495.264 766.296L482.292 779.027ZM480.887 762.337C477.35 765.539 474.068 768.043 471.69 768.224L478.706 775.373L488.663 765.6L483.284 760.119L480.887 762.337Z" fill="#212121"/>
    </g>
    <g filter="url(#filter12_d_7916_9437)">
        <path d="M515.725 788.196L519.135 791.971L499.588 796.779C495.779 797.718 492.717 796.906 490.7 794.674C489.906 793.795 489.281 792.721 488.825 791.452L492.582 789.74C492.95 790.529 493.324 791.182 493.775 791.681C494.633 792.63 495.725 792.98 497.302 792.721L497.62 792.691L503.905 775.112L507.616 779.22L502.678 791.702L515.725 788.196Z" fill="#212121"/>
    </g>
    <g filter="url(#filter13_d_7916_9437)">
        <path d="M523.582 799.321L527.421 803.912L525.193 811.823L533.374 811.031L537.274 815.695L524.267 816.852L520.48 830.531L516.559 825.842L518.908 817.078L509.908 817.888L506.07 813.298L519.99 812.086L523.582 799.321Z" fill="#212121"/>
    </g>
    <g filter="url(#filter14_d_7916_9437)">
        <path d="M357.495 623.721C323.501 539.097 358.162 479.088 343.724 466.638L326.548 471.528L338.415 417.549C352.333 425.853 388.762 448.297 397.544 451.317C392.047 452.882 379.222 456.533 379.222 456.533C394.364 509.723 356.17 571.197 394.138 613.29L386.122 615.572C349.431 543.215 384.797 523.947 373.497 458.163L366.626 460.119C379.213 495.636 342.759 558.915 381.542 616.875L372.381 619.483C335.69 547.127 371.056 527.859 359.756 462.074L352.885 464.03C365.472 499.548 329.964 548.757 365.51 621.439L357.495 623.721Z" fill="#3F3840"/>
    </g>
    <g filter="url(#filter15_d_7916_9437)">
        <path d="M166.795 778.785C132.801 694.161 167.462 634.153 153.024 621.702L135.847 626.592L147.714 572.613C161.632 580.918 198.061 603.361 206.844 606.381C201.347 607.946 188.522 611.597 188.522 611.597C203.664 664.787 165.47 726.261 203.438 768.354L195.422 770.636C158.731 698.279 194.097 679.011 182.797 613.227L175.926 615.183C188.513 650.7 152.059 713.979 190.842 771.94L181.681 774.548C144.99 702.191 180.355 682.923 169.055 617.139L162.185 619.095C174.772 654.612 139.264 703.821 174.81 776.504L166.795 778.785Z" fill="#3F3840"/>
    </g>
    <g filter="url(#filter16_d_7916_9437)">
        <path d="M304.689 940.367C273.967 854.501 310.905 795.867 296.955 782.872L279.604 787.099L293.533 733.615C307.122 742.447 342.663 766.272 351.323 769.626C345.771 770.979 332.815 774.135 332.815 774.135C345.905 827.868 305.381 887.831 341.705 931.349L333.608 933.322C299.72 859.611 335.799 841.714 327.031 775.544L320.091 777.235C331.305 813.21 292.451 875.043 328.981 934.449L319.727 936.704C285.839 862.993 321.918 845.096 313.15 778.926L306.209 780.617C317.424 816.591 280.055 864.402 312.786 938.395L304.689 940.367Z" fill="#3F3840"/>
    </g>
    <g filter="url(#filter17_d_7916_9437)">
        <path d="M603.259 854.648C572.537 768.782 609.475 710.148 595.526 697.153L578.174 701.38L592.103 647.896C605.692 656.728 641.234 680.553 649.893 683.908C644.341 685.26 631.385 688.417 631.385 688.417C644.476 742.149 603.951 802.112 640.276 845.631L632.178 847.603C598.29 773.892 634.369 755.995 625.601 689.826L618.661 691.517C629.876 727.491 591.021 789.324 627.551 848.73L618.297 850.985C584.409 777.274 620.488 759.377 611.72 693.207L604.78 694.898C615.995 730.873 578.625 778.683 611.357 852.676L603.259 854.648Z" fill="#3F3840"/>
    </g>
    <g filter="url(#filter18_d_7916_9437)">
        <path d="M911.462 746.778C880.74 660.912 917.678 602.278 903.728 589.283L886.377 593.51L900.306 540.026C913.895 548.858 949.436 572.683 958.096 576.038C952.544 577.39 939.588 580.547 939.588 580.547C952.678 634.279 912.154 694.242 948.478 737.76L940.381 739.733C906.493 666.022 942.572 648.125 933.804 581.956L926.863 583.646C938.078 619.621 899.224 681.454 935.754 740.86L926.5 743.115C892.612 669.404 928.691 651.507 919.923 585.337L912.982 587.028C924.197 623.003 886.828 670.813 919.559 744.806L911.462 746.778Z" fill="#3F3840"/>
    </g>
    <path d="M641.235 228.582C562.3 221.291 547.1 121.029 643.238 110.456C632.946 75.4592 676.617 33.9362 712.748 48.5375C724.586 26.1184 755.991 21.1948 770.307 21.5367C784.627 21.6803 816.034 27.669 827.105 50.4766C863.71 37.1087 905.948 80.0884 894.476 114.717C990.201 128.543 971.61 228.231 892.473 232.842M824.455 319.192C826.216 215.349 829.294 182.483 886.37 181.546M765.465 318.192L768.653 130.144M706.474 317.191C708.235 213.348 706.273 180.397 649.262 177.526" stroke="white" stroke-width="2"/>
    <defs>
        <filter id="filter-darken">
            <feColorMatrix in="SourceGraphic" type="saturate" values="0.1"/>
        </filter>
    </defs>
</svg>
