<svg width="386" height="353" viewBox="0 0 386 353" fill="none" xmlns="http://www.w3.org/2000/svg">
<path d="M6.17887 180.715L158.726 194.243L239.845 251.179L251.83 263.524L247.278 270.009C245.675 272.293 246.229 275.455 248.512 277.057C250.796 278.66 253.958 278.106 255.56 275.823L259.012 270.904L267.96 280.114L261.967 288.652C260.365 290.935 260.919 294.097 263.202 295.7C265.485 297.302 268.647 296.748 270.25 294.465L275.132 287.51L284.339 297C284.339 297.001 284.34 297.001 284.341 297.002C285.394 298.1 286.881 298.643 288.384 298.524C289.89 298.405 291.259 297.634 292.128 296.397L306.96 275.264L321.793 254.131C322.656 252.901 322.935 251.336 322.52 249.882C322.116 248.418 321.085 247.233 319.726 246.607L319.718 246.603L307.658 241.168L312.82 233.813C314.423 231.53 313.869 228.368 311.586 226.765C309.302 225.163 306.14 225.717 304.538 228L298.276 236.922L286.558 231.628L290.28 226.325C291.882 224.042 291.328 220.88 289.045 219.277C286.762 217.675 283.6 218.228 281.997 220.512L277.165 227.396L261.481 220.321L180.362 163.385L115.813 24.5151L115.811 24.511C115.041 22.8743 113.477 21.7764 111.676 21.6087C109.861 21.4398 108.13 22.2663 107.089 23.7488L2.51388 172.742C1.48115 174.213 1.30249 176.145 2.05764 177.777L2.06029 177.783C2.5978 178.926 3.52258 179.806 4.64477 180.29L4.45373 180.562L6.17887 180.715Z" stroke="white" stroke-width="2"/>
<path d="M62.3679 134.428L91.3389 93.1514" stroke="white" stroke-width="2"/>
<path d="M139.734 157.912C149.473 144.036 146.106 124.814 132.23 115.074C118.354 105.335 99.1317 108.702 89.3924 122.578C79.6531 136.454 83.0202 155.677 96.8963 165.416C103.626 170.14 111.792 171.95 119.869 170.536C127.946 169.121 135.01 164.642 139.734 157.912Z" stroke="white" stroke-width="2"/>
<mask id="path-4-inside-1_806_108" fill="white">
<path d="M373.275 83.5602C373.221 77.6871 370.73 73.563 368.096 69.2009L367.848 68.7914C366.08 65.8585 363.489 62.9278 360.751 59.8263C353.568 51.7013 344.679 41.6461 344.287 24.5946C344.325 24.576 344.369 24.5671 344.406 24.5485C344.524 24.5024 344.635 24.4548 344.755 24.4005C347.367 23.2257 349.234 20.847 349.75 18.0265C350.613 13.3038 347.477 8.76531 342.762 7.90372C338.048 7.04213 333.501 10.1766 332.638 14.8993C332.089 17.9002 333.149 20.9577 335.432 22.9764C329.036 38.779 317.164 45.0483 307.571 50.1076C303.914 52.0404 300.463 53.8585 297.762 55.983L297.386 56.2786C293.379 59.427 289.588 62.4115 287.453 67.8846C284.208 76.2305 287.216 85.965 295.287 93.9134C294.377 94.7214 293.682 95.9248 293.42 97.3596C292.93 100.041 294.104 102.475 296.139 103.254L289.332 140.503C289.146 141.519 289.823 142.499 290.839 142.685L343.642 152.334C344.659 152.52 345.638 151.843 345.824 150.827L352.631 113.578C354.81 113.569 356.77 111.699 357.259 109.026C357.521 107.591 357.305 106.222 356.732 105.142C367.091 100.571 373.347 92.5294 373.265 83.5669L373.275 83.5602ZM336.327 15.5736C336.817 12.8925 339.399 11.1019 342.088 11.5933C344.777 12.0848 346.551 14.6629 346.06 17.3522C345.768 18.951 344.706 20.3077 343.22 20.9765C343.165 21.0003 343.11 21.0241 343.019 21.0583C342.827 21.1335 342.627 21.2071 342.432 21.2561C342.316 21.2858 342.202 21.3073 342.088 21.3288C342.072 21.3259 342.052 21.3393 342.036 21.3363C340.898 21.535 339.685 21.3133 338.691 20.7249C338.674 20.7219 338.653 20.701 338.638 20.6898C338.585 20.6547 338.53 20.6278 338.492 20.604L338.363 20.5211C338.266 20.4524 338.168 20.3837 338.087 20.3181C336.669 19.1777 336.001 17.361 336.327 15.5736ZM338.732 24.8081C339.319 24.983 339.934 25.0954 340.544 25.1392C340.705 30.2863 341.564 34.8153 342.898 38.872L336.223 43.6849L331.68 36.8304C334.354 33.5146 336.768 29.5753 338.739 24.8178L338.732 24.8081ZM329.115 39.7422L334.176 47.3778C334.454 47.8014 334.9 48.0948 335.4 48.1862C335.901 48.2776 336.422 48.1611 336.832 47.8632L344.258 42.5098C347.781 50.8216 353.208 56.965 357.933 62.3107C358.25 62.6651 358.558 63.018 358.868 63.3627L352.428 67.9984L345.409 57.4037C345.13 56.98 344.684 56.6866 344.184 56.5952C343.684 56.5038 343.162 56.6204 342.752 56.9182L332.439 64.3453L325.419 53.7506C324.854 52.9017 323.583 52.6694 322.763 53.2651L312.449 60.6922L308.066 54.0786C308.477 53.8658 308.891 53.6447 309.314 53.417C315.624 50.088 322.873 46.2612 329.108 39.7325L329.115 39.7422ZM290.951 69.2356C292.709 64.7187 295.954 62.1683 299.704 59.2187L300.08 58.9231C301.426 57.8642 303.013 56.8749 304.771 55.8827L310.409 64.3947C310.974 65.2436 312.244 65.4759 313.065 64.8802L323.37 57.4516L330.39 68.0464C330.955 68.8952 332.218 69.126 333.046 68.5318L343.36 61.1048L350.379 71.6995C350.658 72.1232 351.104 72.4166 351.604 72.508C352.104 72.5994 352.626 72.4828 353.036 72.185L361.32 66.2172C362.611 67.775 363.748 69.2536 364.631 70.7283L364.878 71.1378C367.342 75.2231 369.477 78.7483 369.524 83.5949C369.548 86.1497 368.919 88.619 367.726 90.926L361.622 81.7187C361.057 80.8699 359.795 80.6391 358.966 81.2333L348.652 88.6603L341.633 78.0656C341.354 77.6419 340.908 77.3485 340.408 77.2571C339.908 77.1657 339.386 77.2823 338.976 77.5801L328.663 85.0072L321.643 74.4125C321.078 73.5636 319.807 73.3314 318.987 73.927L308.682 81.3556L301.662 70.7609C301.383 70.3372 300.937 70.0438 300.437 69.9524C299.937 69.861 299.416 69.9776 299.005 70.2754L290.039 76.7285C289.74 74.1488 290.026 71.6084 290.951 69.2356ZM353.185 106.604C353.316 106.628 353.777 107.263 353.58 108.337C353.384 109.411 352.729 109.842 352.598 109.818L297.508 99.7504C297.377 99.7265 296.916 99.0916 297.113 98.0175C297.309 96.9434 297.964 96.5124 298.095 96.5364L353.185 106.604ZM342.481 148.301L293.368 139.325L299.825 103.995L348.938 112.971L342.481 148.301ZM352.728 102.708L299.917 93.0565C295.488 89.29 292.451 84.9983 290.976 80.6873L299.621 74.4634L306.641 85.0581C307.206 85.907 308.477 86.1393 309.297 85.5436L319.602 78.1151L326.622 88.7098C327.187 89.5586 328.45 89.7894 329.279 89.1952L339.592 81.7682L346.612 92.3629C346.89 92.7866 347.336 93.08 347.837 93.1714C348.337 93.2628 348.858 93.1462 349.268 92.8484L359.581 85.4213L365.466 94.3003C362.554 97.8097 358.195 100.75 352.728 102.708Z"/>
</mask>
<path d="M373.275 83.5602C373.221 77.6871 370.73 73.563 368.096 69.2009L367.848 68.7914C366.08 65.8585 363.489 62.9278 360.751 59.8263C353.568 51.7013 344.679 41.6461 344.287 24.5946C344.325 24.576 344.369 24.5671 344.406 24.5485C344.524 24.5024 344.635 24.4548 344.755 24.4005C347.367 23.2257 349.234 20.847 349.75 18.0265C350.613 13.3038 347.477 8.76531 342.762 7.90372C338.048 7.04213 333.501 10.1766 332.638 14.8993C332.089 17.9002 333.149 20.9577 335.432 22.9764C329.036 38.779 317.164 45.0483 307.571 50.1076C303.914 52.0404 300.463 53.8585 297.762 55.983L297.386 56.2786C293.379 59.427 289.588 62.4115 287.453 67.8846C284.208 76.2305 287.216 85.965 295.287 93.9134C294.377 94.7214 293.682 95.9248 293.42 97.3596C292.93 100.041 294.104 102.475 296.139 103.254L289.332 140.503C289.146 141.519 289.823 142.499 290.839 142.685L343.642 152.334C344.659 152.52 345.638 151.843 345.824 150.827L352.631 113.578C354.81 113.569 356.77 111.699 357.259 109.026C357.521 107.591 357.305 106.222 356.732 105.142C367.091 100.571 373.347 92.5294 373.265 83.5669L373.275 83.5602ZM336.327 15.5736C336.817 12.8925 339.399 11.1019 342.088 11.5933C344.777 12.0848 346.551 14.6629 346.06 17.3522C345.768 18.951 344.706 20.3077 343.22 20.9765C343.165 21.0003 343.11 21.0241 343.019 21.0583C342.827 21.1335 342.627 21.2071 342.432 21.2561C342.316 21.2858 342.202 21.3073 342.088 21.3288C342.072 21.3259 342.052 21.3393 342.036 21.3363C340.898 21.535 339.685 21.3133 338.691 20.7249C338.674 20.7219 338.653 20.701 338.638 20.6898C338.585 20.6547 338.53 20.6278 338.492 20.604L338.363 20.5211C338.266 20.4524 338.168 20.3837 338.087 20.3181C336.669 19.1777 336.001 17.361 336.327 15.5736ZM338.732 24.8081C339.319 24.983 339.934 25.0954 340.544 25.1392C340.705 30.2863 341.564 34.8153 342.898 38.872L336.223 43.6849L331.68 36.8304C334.354 33.5146 336.768 29.5753 338.739 24.8178L338.732 24.8081ZM329.115 39.7422L334.176 47.3778C334.454 47.8014 334.9 48.0948 335.4 48.1862C335.901 48.2776 336.422 48.1611 336.832 47.8632L344.258 42.5098C347.781 50.8216 353.208 56.965 357.933 62.3107C358.25 62.6651 358.558 63.018 358.868 63.3627L352.428 67.9984L345.409 57.4037C345.13 56.98 344.684 56.6866 344.184 56.5952C343.684 56.5038 343.162 56.6204 342.752 56.9182L332.439 64.3453L325.419 53.7506C324.854 52.9017 323.583 52.6694 322.763 53.2651L312.449 60.6922L308.066 54.0786C308.477 53.8658 308.891 53.6447 309.314 53.417C315.624 50.088 322.873 46.2612 329.108 39.7325L329.115 39.7422ZM290.951 69.2356C292.709 64.7187 295.954 62.1683 299.704 59.2187L300.08 58.9231C301.426 57.8642 303.013 56.8749 304.771 55.8827L310.409 64.3947C310.974 65.2436 312.244 65.4759 313.065 64.8802L323.37 57.4516L330.39 68.0464C330.955 68.8952 332.218 69.126 333.046 68.5318L343.36 61.1048L350.379 71.6995C350.658 72.1232 351.104 72.4166 351.604 72.508C352.104 72.5994 352.626 72.4828 353.036 72.185L361.32 66.2172C362.611 67.775 363.748 69.2536 364.631 70.7283L364.878 71.1378C367.342 75.2231 369.477 78.7483 369.524 83.5949C369.548 86.1497 368.919 88.619 367.726 90.926L361.622 81.7187C361.057 80.8699 359.795 80.6391 358.966 81.2333L348.652 88.6603L341.633 78.0656C341.354 77.6419 340.908 77.3485 340.408 77.2571C339.908 77.1657 339.386 77.2823 338.976 77.5801L328.663 85.0072L321.643 74.4125C321.078 73.5636 319.807 73.3314 318.987 73.927L308.682 81.3556L301.662 70.7609C301.383 70.3372 300.937 70.0438 300.437 69.9524C299.937 69.861 299.416 69.9776 299.005 70.2754L290.039 76.7285C289.74 74.1488 290.026 71.6084 290.951 69.2356ZM353.185 106.604C353.316 106.628 353.777 107.263 353.58 108.337C353.384 109.411 352.729 109.842 352.598 109.818L297.508 99.7504C297.377 99.7265 296.916 99.0916 297.113 98.0175C297.309 96.9434 297.964 96.5124 298.095 96.5364L353.185 106.604ZM342.481 148.301L293.368 139.325L299.825 103.995L348.938 112.971L342.481 148.301ZM352.728 102.708L299.917 93.0565C295.488 89.29 292.451 84.9983 290.976 80.6873L299.621 74.4634L306.641 85.0581C307.206 85.907 308.477 86.1393 309.297 85.5436L319.602 78.1151L326.622 88.7098C327.187 89.5586 328.45 89.7894 329.279 89.1952L339.592 81.7682L346.612 92.3629C346.89 92.7866 347.336 93.08 347.837 93.1714C348.337 93.2628 348.858 93.1462 349.268 92.8484L359.581 85.4213L365.466 94.3003C362.554 97.8097 358.195 100.75 352.728 102.708Z" fill="white" stroke="black" stroke-width="2" mask="url(#path-4-inside-1_806_108)"/>
</svg>
