<svg width="320" height="319" viewBox="0 0 320 319" fill="none" xmlns="http://www.w3.org/2000/svg">
<g clip-path="url(#clip0_79_42053)">
<path d="M123.314 303.664L123.698 160.301L169.884 78.7688L180.312 66.3418L186.608 69.8514C188.908 71.1339 191.82 70.2412 193.121 67.9445C194.422 65.6478 193.677 62.7159 191.376 61.4334L186.634 58.7896L194.368 49.5665L202.675 54.1976C204.976 55.4801 207.888 54.5875 209.189 52.2908C210.49 49.9941 209.744 47.0621 207.444 45.7796L200.704 42.0225L208.708 32.4903C208.709 32.4894 208.71 32.4884 208.711 32.4875C209.645 31.3858 210.034 29.9366 209.802 28.5358C209.569 27.1301 208.735 25.9119 207.491 25.2186L186.775 13.6699L166.059 2.12122C164.823 1.43208 163.324 1.34171 161.996 1.89006C160.661 2.42718 159.642 3.52158 159.169 4.85721L159.169 4.85719L159.166 4.8652L155.119 16.6097L147.989 12.6347C145.688 11.3522 142.776 12.2449 141.475 14.5416C140.174 16.8383 140.92 19.7702 143.22 21.0527L151.904 25.8936L147.976 37.2583L142.857 34.4045C140.556 33.122 137.644 34.0147 136.343 36.3114C135.042 38.6081 135.788 41.54 138.088 42.8225L144.775 46.5499L139.497 61.8479L93.3109 143.38L-29.9361 218.23L-29.94 218.233C-31.4024 219.13 -32.2978 220.71 -32.3098 222.416C-32.3219 224.139 -31.4095 225.694 -29.9193 226.525L116.134 307.947C117.614 308.771 119.447 308.724 120.91 307.839L120.915 307.836C121.918 307.22 122.655 306.283 123.022 305.204L123.309 305.364L123.314 303.664Z" stroke="white" stroke-width="2"/>
<path d="M77.3197 255.694L36.2107 232.574" stroke="white" stroke-width="2"/>
<path d="M92.272 181.12C78.5572 173.478 60.9558 178.716 53.0241 192.711C45.0923 206.706 49.7326 224.337 63.4475 231.979C77.1623 239.621 94.7637 234.383 102.695 220.388C106.544 213.597 107.577 205.772 105.616 198.367C103.654 190.962 98.9206 184.825 92.272 181.12Z" stroke="white" stroke-width="2"/>
<mask id="path-4-outside-1_79_42053" maskUnits="userSpaceOnUse" x="-43.2611" y="-7.62876" width="130.588" height="143.516" fill="black">
<rect fill="white" x="-43.2611" y="-7.62876" width="130.588" height="143.516"/>
<path d="M-9.95937 14.9829L10.6623 6.76117L10.7485 8.6177C10.7575 8.81397 10.8023 9.00365 10.8828 9.18675C11.8509 11.4065 12.9388 14.2551 13.0013 14.9911C13.0233 15.3743 12.6001 16.7037 12.1123 17.7745C11.9382 18.1667 11.9204 18.6043 12.0722 19.005L13.1494 21.8654C8.64839 23.7752 3.73523 25.7494 -1.40967 27.6238L-2.57044 24.8429C-2.73551 24.4475 -3.05175 24.1354 -3.44505 23.9771C-4.52827 23.5327 -5.74632 22.8653 -6.00031 22.5746C-6.4606 21.9971 -7.62797 19.1803 -8.45025 16.9024C-8.52155 16.7233 -8.61537 16.5454 -8.74369 16.3968L-9.95674 14.9895L-9.95937 14.9829ZM-12.2478 43.5979C-10.9892 42.7271 -7.80051 41.2252 -6.68151 40.7176C-6.64174 40.7018 -6.60197 40.6859 -6.57147 40.666L-6.00393 40.3552C-5.55044 40.1052 -5.24639 39.6535 -5.18075 39.1431C-4.93814 37.1477 -4.88184 36.6717 -3.61643 33.7921C-3.32666 33.1308 -2.29147 31.911 -1.48736 31.0754C1.45559 30.0173 4.34031 28.9288 7.10445 27.8267C10.0873 26.6375 12.9775 25.4467 15.6927 24.2797C16.8307 24.3409 18.341 24.5075 18.9806 24.7828C21.8806 26.0095 22.2459 26.3097 23.793 27.5915C24.194 27.9235 24.7252 28.0423 25.2235 27.9051L25.8492 27.7402C25.8889 27.7244 25.9314 27.7151 25.9645 27.7019C27.1257 27.3004 30.4729 26.1966 31.985 25.9626C33.5754 25.7129 34.9216 25.6989 36.0093 25.7879C32.0353 27.9411 24.0798 31.92 10.8291 37.2029C0.0907397 41.4842 -9.90129 44.5533 -15.1371 46.0643C-14.4219 45.2948 -13.4852 44.4448 -12.2545 43.6005L-12.2478 43.5979ZM-14.2683 49.1538C-8.96352 47.623 1.15312 44.5196 12.0241 40.1855C24.9963 35.0136 32.9133 31.1115 37.1074 28.8552C36.7953 29.3255 36.4117 29.809 35.9407 30.3043C35.7828 30.4672 34.4199 31.9636 34.5748 33.9542C34.5904 34.1478 34.6233 34.3654 34.6812 34.5882C30.3442 36.7555 23.4471 39.9588 13.5174 43.9177C5.10569 47.2714 -2.80015 49.8699 -8.34891 51.5595C-8.43616 51.4175 -8.52741 51.2848 -8.61736 51.1746C-9.87524 49.6161 -11.897 49.4767 -12.1262 49.4604C-12.9238 49.4248 -13.6311 49.3071 -14.255 49.1485L-14.2683 49.1538ZM-9.37492 57.5875C-8.61177 56.6683 -7.94815 55.8657 -7.79177 54.8886C-7.7811 54.8382 -7.78369 54.7931 -7.77566 54.7361C-2.14471 53.0215 6.01034 50.3543 14.6939 46.8923C25.061 42.759 32.1702 39.4326 36.5418 37.2362C37.3254 37.8155 38.3388 37.9495 39.5152 38.0877C40.5737 38.2192 41.5222 38.3637 42.3287 38.6724C38.7723 40.6592 30.6151 44.8645 16.1779 50.6205C4.5712 55.248 -6.16304 58.4592 -10.9601 59.8183C-10.5867 59.0776 -10.0292 58.3557 -9.37757 57.5809L-9.37492 57.5875ZM-10.9341 70.6307C-11.2841 70.7549 -11.6168 70.8645 -11.9389 70.9622C-17.3538 72.6214 -19.1905 69.9562 -20.2664 67.1183C-20.5001 66.512 -20.6714 65.8501 -20.8586 65.1483C-20.9798 64.6894 -21.0984 64.237 -21.2369 63.7926C-21.415 63.2102 -21.9007 62.7812 -22.5034 62.6756C-22.8001 62.6248 -23.1009 62.6602 -23.3661 62.7659C-23.6312 62.8716 -23.8806 63.0556 -24.0651 63.306C-24.3757 63.7219 -24.6729 63.9787 -25.0043 64.1109C-26.1842 64.5813 -27.5283 64.0026 -27.9983 62.8218C-28.4684 61.6409 -27.8901 60.2958 -26.7102 59.8254C-26.2197 59.6299 -24.2351 58.8463 -23.5339 58.6206C-22.2891 58.2165 -20.3415 59.231 -18.5929 63.2765C-17.9853 64.6869 -16.936 66.6283 -14.8712 67.2425C-14.209 67.4397 -13.4007 67.3865 -12.7049 67.2628C-12.6745 67.3199 -12.6348 67.3809 -12.6044 67.438L-10.9368 70.6241L-10.9341 70.6307ZM46.1716 101.908C46.1172 101.945 46.0629 101.982 46.0177 102.023C44.2134 103.703 41.2876 104.862 40.8474 105.03C40.8275 105.038 40.8077 105.046 40.7944 105.051L35.6705 107.094C35.6108 107.118 35.5445 107.144 35.4849 107.168C34.4574 107.578 31.9573 108.436 29.9049 108.47C29.8439 108.472 29.7856 108.479 29.7273 108.487C29.1509 108.486 28.6316 108.417 28.2065 108.256C27.1246 107.834 26.4139 107.226 25.9523 106.664C27.0003 106.692 28.3836 106.655 30.0243 106.416C31.6226 106.187 36.5114 104.537 37.4925 104.146C38.4735 103.755 43.1564 101.588 44.4747 100.655C45.8129 99.7142 46.8491 98.7861 47.6014 98.0327C47.6547 98.7647 47.5606 99.6861 47.0583 100.74C46.8749 101.128 46.563 101.521 46.1756 101.899L46.1716 101.908ZM57.9203 108.539C58.611 109.193 59.197 109.913 59.6689 110.693L54.1473 112.895C50.8971 110.055 45.435 109.435 40.3973 111.443C35.3595 113.452 31.8132 117.664 31.3713 121.975C30.0124 122.517 27.5267 123.508 25.8894 124.161C25.0298 120.13 26.7468 115.51 30.5973 111.676C33.0488 111.506 35.4628 110.643 36.4703 110.242C36.6824 110.157 36.8349 110.096 36.9078 110.067L41.9323 108.064C42.395 107.895 45.4189 106.751 47.7377 104.819C51.8913 104.931 55.4855 106.243 57.9296 108.543L57.9203 108.539ZM50.6653 84.351C49.4994 89.9505 47.282 93.3712 46.3885 94.5807C46.3885 94.5807 46.3819 94.5833 46.3779 94.5926C46.3275 94.6588 45.0943 96.2881 42.6181 98.0363C41.6884 98.6914 37.3515 100.743 36.2975 101.164C35.2436 101.584 30.6848 103.078 29.5597 103.243C26.554 103.68 24.5325 103.348 24.457 103.332L24.4504 103.335C22.9681 103.065 19.0077 102.107 14.3139 98.844C6.87335 93.678 -6.15026 72.0748 -9.81442 65.8414L-10.4408 64.6537C-10.5241 64.5024 -10.6246 64.3657 -10.7463 64.2528C-10.7767 64.1957 -10.7992 64.1586 -10.8018 64.152C-10.967 63.8335 -11.0977 63.5244 -11.2007 63.2272C-7.06247 62.0846 4.63529 58.6891 17.3689 53.6123C33.3108 47.2565 41.6127 42.8166 44.7541 41.003C44.8611 41.2525 44.9601 41.5204 45.0498 41.8229C45.0551 41.8362 45.0656 41.9012 45.0893 41.9993C45.0851 42.1624 45.0968 42.3269 45.1403 42.494L45.5002 43.7648C47.1373 50.868 52.5141 75.4892 50.6653 84.351ZM55.348 32.0751C55.0165 32.2073 54.6243 32.2253 54.113 32.1371C53.5169 32.0288 52.9071 32.272 52.5486 32.7608C52.1809 33.2456 52.1257 33.8979 52.3965 34.4433C52.6013 34.8612 52.826 35.2713 53.0533 35.688C53.3996 36.3263 53.73 36.9248 53.9769 37.5258C55.1364 40.3227 55.6433 43.5258 50.5717 46.0474C50.2641 46.2008 49.9472 46.3502 49.6145 46.4982L48.6282 43.0174C48.6111 42.955 48.6032 42.8967 48.5861 42.8343C49.1762 42.4453 49.8023 41.9343 50.145 41.3288C51.2222 39.4619 50.6502 37.3302 50.1222 35.8881C48.6122 31.7475 49.3292 29.6706 50.504 29.11C51.1749 28.7887 53.1475 27.9945 53.6381 27.799C54.818 27.3285 56.162 27.9072 56.6321 29.0881C57.1021 30.2689 56.5239 31.614 55.344 32.0844L55.348 32.0751Z"/>
</mask>
<path d="M-9.95937 14.9829L10.6623 6.76117L10.7485 8.6177C10.7575 8.81397 10.8023 9.00365 10.8828 9.18675C11.8509 11.4065 12.9388 14.2551 13.0013 14.9911C13.0233 15.3743 12.6001 16.7037 12.1123 17.7745C11.9382 18.1667 11.9204 18.6043 12.0722 19.005L13.1494 21.8654C8.64839 23.7752 3.73523 25.7494 -1.40967 27.6238L-2.57044 24.8429C-2.73551 24.4475 -3.05175 24.1354 -3.44505 23.9771C-4.52827 23.5327 -5.74632 22.8653 -6.00031 22.5746C-6.4606 21.9971 -7.62797 19.1803 -8.45025 16.9024C-8.52155 16.7233 -8.61537 16.5454 -8.74369 16.3968L-9.95674 14.9895L-9.95937 14.9829ZM-12.2478 43.5979C-10.9892 42.7271 -7.80051 41.2252 -6.68151 40.7176C-6.64174 40.7018 -6.60197 40.6859 -6.57147 40.666L-6.00393 40.3552C-5.55044 40.1052 -5.24639 39.6535 -5.18075 39.1431C-4.93814 37.1477 -4.88184 36.6717 -3.61643 33.7921C-3.32666 33.1308 -2.29147 31.911 -1.48736 31.0754C1.45559 30.0173 4.34031 28.9288 7.10445 27.8267C10.0873 26.6375 12.9775 25.4467 15.6927 24.2797C16.8307 24.3409 18.341 24.5075 18.9806 24.7828C21.8806 26.0095 22.2459 26.3097 23.793 27.5915C24.194 27.9235 24.7252 28.0423 25.2235 27.9051L25.8492 27.7402C25.8889 27.7244 25.9314 27.7151 25.9645 27.7019C27.1257 27.3004 30.4729 26.1966 31.985 25.9626C33.5754 25.7129 34.9216 25.6989 36.0093 25.7879C32.0353 27.9411 24.0798 31.92 10.8291 37.2029C0.0907397 41.4842 -9.90129 44.5533 -15.1371 46.0643C-14.4219 45.2948 -13.4852 44.4448 -12.2545 43.6005L-12.2478 43.5979ZM-14.2683 49.1538C-8.96352 47.623 1.15312 44.5196 12.0241 40.1855C24.9963 35.0136 32.9133 31.1115 37.1074 28.8552C36.7953 29.3255 36.4117 29.809 35.9407 30.3043C35.7828 30.4672 34.4199 31.9636 34.5748 33.9542C34.5904 34.1478 34.6233 34.3654 34.6812 34.5882C30.3442 36.7555 23.4471 39.9588 13.5174 43.9177C5.10569 47.2714 -2.80015 49.8699 -8.34891 51.5595C-8.43616 51.4175 -8.52741 51.2848 -8.61736 51.1746C-9.87524 49.6161 -11.897 49.4767 -12.1262 49.4604C-12.9238 49.4248 -13.6311 49.3071 -14.255 49.1485L-14.2683 49.1538ZM-9.37492 57.5875C-8.61177 56.6683 -7.94815 55.8657 -7.79177 54.8886C-7.7811 54.8382 -7.78369 54.7931 -7.77566 54.7361C-2.14471 53.0215 6.01034 50.3543 14.6939 46.8923C25.061 42.759 32.1702 39.4326 36.5418 37.2362C37.3254 37.8155 38.3388 37.9495 39.5152 38.0877C40.5737 38.2192 41.5222 38.3637 42.3287 38.6724C38.7723 40.6592 30.6151 44.8645 16.1779 50.6205C4.5712 55.248 -6.16304 58.4592 -10.9601 59.8183C-10.5867 59.0776 -10.0292 58.3557 -9.37757 57.5809L-9.37492 57.5875ZM-10.9341 70.6307C-11.2841 70.7549 -11.6168 70.8645 -11.9389 70.9622C-17.3538 72.6214 -19.1905 69.9562 -20.2664 67.1183C-20.5001 66.512 -20.6714 65.8501 -20.8586 65.1483C-20.9798 64.6894 -21.0984 64.237 -21.2369 63.7926C-21.415 63.2102 -21.9007 62.7812 -22.5034 62.6756C-22.8001 62.6248 -23.1009 62.6602 -23.3661 62.7659C-23.6312 62.8716 -23.8806 63.0556 -24.0651 63.306C-24.3757 63.7219 -24.6729 63.9787 -25.0043 64.1109C-26.1842 64.5813 -27.5283 64.0026 -27.9983 62.8218C-28.4684 61.6409 -27.8901 60.2958 -26.7102 59.8254C-26.2197 59.6299 -24.2351 58.8463 -23.5339 58.6206C-22.2891 58.2165 -20.3415 59.231 -18.5929 63.2765C-17.9853 64.6869 -16.936 66.6283 -14.8712 67.2425C-14.209 67.4397 -13.4007 67.3865 -12.7049 67.2628C-12.6745 67.3199 -12.6348 67.3809 -12.6044 67.438L-10.9368 70.6241L-10.9341 70.6307ZM46.1716 101.908C46.1172 101.945 46.0629 101.982 46.0177 102.023C44.2134 103.703 41.2876 104.862 40.8474 105.03C40.8275 105.038 40.8077 105.046 40.7944 105.051L35.6705 107.094C35.6108 107.118 35.5445 107.144 35.4849 107.168C34.4574 107.578 31.9573 108.436 29.9049 108.47C29.8439 108.472 29.7856 108.479 29.7273 108.487C29.1509 108.486 28.6316 108.417 28.2065 108.256C27.1246 107.834 26.4139 107.226 25.9523 106.664C27.0003 106.692 28.3836 106.655 30.0243 106.416C31.6226 106.187 36.5114 104.537 37.4925 104.146C38.4735 103.755 43.1564 101.588 44.4747 100.655C45.8129 99.7142 46.8491 98.7861 47.6014 98.0327C47.6547 98.7647 47.5606 99.6861 47.0583 100.74C46.8749 101.128 46.563 101.521 46.1756 101.899L46.1716 101.908ZM57.9203 108.539C58.611 109.193 59.197 109.913 59.6689 110.693L54.1473 112.895C50.8971 110.055 45.435 109.435 40.3973 111.443C35.3595 113.452 31.8132 117.664 31.3713 121.975C30.0124 122.517 27.5267 123.508 25.8894 124.161C25.0298 120.13 26.7468 115.51 30.5973 111.676C33.0488 111.506 35.4628 110.643 36.4703 110.242C36.6824 110.157 36.8349 110.096 36.9078 110.067L41.9323 108.064C42.395 107.895 45.4189 106.751 47.7377 104.819C51.8913 104.931 55.4855 106.243 57.9296 108.543L57.9203 108.539ZM50.6653 84.351C49.4994 89.9505 47.282 93.3712 46.3885 94.5807C46.3885 94.5807 46.3819 94.5833 46.3779 94.5926C46.3275 94.6588 45.0943 96.2881 42.6181 98.0363C41.6884 98.6914 37.3515 100.743 36.2975 101.164C35.2436 101.584 30.6848 103.078 29.5597 103.243C26.554 103.68 24.5325 103.348 24.457 103.332L24.4504 103.335C22.9681 103.065 19.0077 102.107 14.3139 98.844C6.87335 93.678 -6.15026 72.0748 -9.81442 65.8414L-10.4408 64.6537C-10.5241 64.5024 -10.6246 64.3657 -10.7463 64.2528C-10.7767 64.1957 -10.7992 64.1586 -10.8018 64.152C-10.967 63.8335 -11.0977 63.5244 -11.2007 63.2272C-7.06247 62.0846 4.63529 58.6891 17.3689 53.6123C33.3108 47.2565 41.6127 42.8166 44.7541 41.003C44.8611 41.2525 44.9601 41.5204 45.0498 41.8229C45.0551 41.8362 45.0656 41.9012 45.0893 41.9993C45.0851 42.1624 45.0968 42.3269 45.1403 42.494L45.5002 43.7648C47.1373 50.868 52.5141 75.4892 50.6653 84.351ZM55.348 32.0751C55.0165 32.2073 54.6243 32.2253 54.113 32.1371C53.5169 32.0288 52.9071 32.272 52.5486 32.7608C52.1809 33.2456 52.1257 33.8979 52.3965 34.4433C52.6013 34.8612 52.826 35.2713 53.0533 35.688C53.3996 36.3263 53.73 36.9248 53.9769 37.5258C55.1364 40.3227 55.6433 43.5258 50.5717 46.0474C50.2641 46.2008 49.9472 46.3502 49.6145 46.4982L48.6282 43.0174C48.6111 42.955 48.6032 42.8967 48.5861 42.8343C49.1762 42.4453 49.8023 41.9343 50.145 41.3288C51.2222 39.4619 50.6502 37.3302 50.1222 35.8881C48.6122 31.7475 49.3292 29.6706 50.504 29.11C51.1749 28.7887 53.1475 27.9945 53.6381 27.799C54.818 27.3285 56.162 27.9072 56.6321 29.0881C57.1021 30.2689 56.5239 31.614 55.344 32.0844L55.348 32.0751Z" stroke="white" stroke-width="2" mask="url(#path-4-outside-1_79_42053)"/>
<path d="M287.783 90.0082C287.767 89.7545 287.585 89.5428 287.338 89.4811L271.606 85.5833L270.548 69.5438C270.548 69.5438 270.545 69.5242 270.545 69.5135C270.543 69.4996 270.54 69.4882 270.538 69.4743C270.533 69.4516 270.528 69.4289 270.521 69.4055C270.518 69.3967 270.515 69.3853 270.512 69.3765C270.488 69.3114 270.452 69.2514 270.405 69.1996C270.399 69.1927 270.39 69.1851 270.381 69.1775C270.364 69.1598 270.346 69.1446 270.328 69.1294C270.319 69.1218 270.308 69.1136 270.299 69.106C270.278 69.0927 270.26 69.0801 270.238 69.0693C270.229 69.0642 270.216 69.0585 270.207 69.0535C270.176 69.0376 270.141 69.0262 270.105 69.0173C270.07 69.0084 270.033 69.0046 269.998 69.0013C269.988 68.9988 269.974 69.0007 269.963 69.0006C269.939 69 269.914 69.0018 269.892 69.0043C269.878 69.0062 269.866 69.0087 269.852 69.0105C269.83 69.0155 269.807 69.0205 269.783 69.0281C269.772 69.0306 269.763 69.0337 269.751 69.0387C269.717 69.0519 269.687 69.0657 269.658 69.0827C269.629 69.0997 269.603 69.1198 269.575 69.1425C269.568 69.1488 269.561 69.1576 269.55 69.1658C269.533 69.1828 269.517 69.2004 269.502 69.2181C269.494 69.2294 269.486 69.2382 269.478 69.2496C269.473 69.259 269.466 69.2653 269.46 69.2748L260.858 82.9007L245.141 78.9423C244.894 78.8806 244.633 78.9842 244.497 79.1972C244.361 79.4127 244.38 79.691 244.544 79.885L254.96 92.2016L246.304 105.793C246.168 106.008 246.186 106.287 246.351 106.481C246.411 106.552 246.49 106.601 246.574 106.636C246.579 106.637 246.587 106.639 246.591 106.643C246.613 106.651 246.634 106.664 246.66 106.67C246.662 106.671 246.667 106.672 246.67 106.673C246.844 106.724 247.038 106.695 247.191 106.581L262.001 100.66C262.019 100.664 262.036 100.674 262.053 100.678C262.071 100.683 262.09 100.684 262.108 100.686L272.323 112.864C272.402 113.024 272.544 113.137 272.707 113.177C272.712 113.179 272.719 113.181 272.725 113.179C272.849 113.213 272.98 113.211 273.106 113.162C273.344 113.068 273.493 112.832 273.476 112.578L272.357 96.545L287.419 90.5905C287.656 90.497 287.806 90.2606 287.789 90.007L287.783 90.0082ZM260.936 84.1249L263.281 89.4969L248.595 81.0178L260.936 84.1249ZM261.916 83.4226L268.469 73.046L264.389 89.087L261.916 83.4226ZM261.741 99.5002L249.993 104.198L263.466 92.717L261.741 99.5002ZM264.612 93.0031L270.988 109.443L262.887 99.7863L264.612 93.0031ZM269.614 73.3321L270.419 85.5469L265.535 89.3731L269.614 73.3321ZM270.949 86.6262L283.301 89.6879L266.315 90.2548L270.949 86.6262ZM247.799 81.9135L262.747 90.5439L255.859 91.4443L247.799 81.9135ZM256.106 92.5924L262.836 91.7144L249.349 103.205L256.108 92.5931L256.106 92.5924ZM272.029 108.869L265.662 92.4499L271.162 96.472L272.029 108.869ZM271.819 95.4984L266.254 91.4308L283.573 90.8532L271.818 95.501L271.819 95.4984Z" fill="white"/>
<path d="M227.486 178.616L227.448 178.69C225.683 182.155 222.671 184.682 218.967 185.783L227.486 178.616ZM227.486 178.616L227.487 178.609M227.486 178.616L227.487 178.609M227.487 178.609C229.219 175.162 229.516 171.198 228.329 167.438L228.329 167.437C227.27 164.084 225.083 161.178 222.165 159.252C220.634 158.208 219.778 157.112 219.25 156.031C218.716 154.938 218.508 153.84 218.304 152.745L218.304 152.743C218.3 152.72 218.295 152.697 218.291 152.673C218.182 152.097 218.074 151.522 217.911 150.964L217.911 150.964L217.908 150.954C216.297 145.849 210.914 142.873 205.892 144.373L205.892 144.373L205.885 144.375L205.885 144.375L205.884 144.375L205.884 144.375L205.884 144.375L205.884 144.375L205.884 144.375L205.883 144.375L205.883 144.375L205.883 144.375L205.883 144.376L205.882 144.376L205.882 144.376L205.882 144.376L205.882 144.376L205.882 144.376L205.881 144.376L205.881 144.376L205.881 144.376L205.881 144.376L205.88 144.376L205.88 144.376L205.88 144.376L205.88 144.376L205.879 144.377L205.879 144.377L205.879 144.377L205.879 144.377L205.879 144.377L205.878 144.377L205.878 144.377L205.878 144.377L205.878 144.377L205.877 144.377L205.877 144.377L205.877 144.377L205.877 144.377L205.876 144.378L205.876 144.378L205.876 144.378L205.876 144.378L205.876 144.378L205.875 144.378L205.875 144.378L205.875 144.378L205.875 144.378L205.874 144.378L205.874 144.378L205.874 144.378L205.874 144.378L205.873 144.378L205.873 144.379L205.873 144.379L205.873 144.379L205.873 144.379L205.872 144.379L205.872 144.379L205.872 144.379L205.872 144.379L205.871 144.379L205.871 144.379L205.871 144.379L205.871 144.379L205.87 144.379L205.87 144.379L205.87 144.38L205.87 144.38L205.869 144.38L205.869 144.38L205.869 144.38L205.869 144.38L205.869 144.38L205.868 144.38L205.868 144.38L205.868 144.38L205.868 144.38L205.867 144.38L205.867 144.38L205.867 144.381L205.867 144.381L205.866 144.381L205.866 144.381L205.866 144.381L205.866 144.381L205.866 144.381L205.865 144.381L205.865 144.381L205.865 144.381L205.865 144.381L205.864 144.381L205.864 144.381L205.864 144.381L205.864 144.382L205.863 144.382L205.863 144.382L205.863 144.382L205.863 144.382L205.863 144.382L205.862 144.382L205.862 144.382L205.862 144.382L205.862 144.382L205.861 144.382L205.861 144.382L205.861 144.382L205.861 144.382L205.86 144.383L205.86 144.383L205.86 144.383L205.86 144.383L205.859 144.383L205.859 144.383L205.859 144.383L205.859 144.383L205.859 144.383L205.858 144.383L205.858 144.383L205.858 144.383L205.858 144.383L205.857 144.384L205.857 144.384L205.857 144.384L205.857 144.384L205.856 144.384L205.856 144.384L205.856 144.384L205.856 144.384L205.855 144.384L205.855 144.384L205.855 144.384L205.855 144.384L205.855 144.384L205.854 144.384L205.854 144.385L205.854 144.385L205.854 144.385L205.853 144.385L205.853 144.385L205.853 144.385L205.853 144.385L205.852 144.385L205.852 144.385L205.852 144.385L205.852 144.385L205.851 144.385L205.851 144.385L205.851 144.386L205.851 144.386L205.851 144.386L205.85 144.386L205.85 144.386L205.85 144.386L205.85 144.386L205.849 144.386L205.849 144.386L205.849 144.386L205.849 144.386L205.848 144.386L205.848 144.386L205.848 144.386L205.848 144.387L205.847 144.387L205.847 144.387L205.847 144.387L205.847 144.387L205.847 144.387L205.846 144.387L205.846 144.387L205.846 144.387L205.846 144.387L205.845 144.387L205.845 144.387L205.845 144.387L205.845 144.388L205.844 144.388L205.844 144.388L205.844 144.388L205.844 144.388L205.843 144.388L205.843 144.388L205.843 144.388L205.843 144.388L205.842 144.388L205.842 144.388L205.842 144.388L205.842 144.388L205.842 144.389L205.841 144.389L205.841 144.389L205.841 144.389L205.841 144.389L205.84 144.389L205.84 144.389L205.84 144.389L205.84 144.389L205.839 144.389L205.839 144.389L205.839 144.389L205.839 144.389L205.838 144.389L205.838 144.39L205.838 144.39L205.838 144.39L205.837 144.39L205.837 144.39L205.837 144.39L205.837 144.39L205.837 144.39L205.836 144.39L205.836 144.39L205.836 144.39L205.836 144.39L205.835 144.39L205.835 144.391L205.835 144.391L205.835 144.391L205.834 144.391L205.834 144.391L205.834 144.391L205.834 144.391L205.833 144.391L205.833 144.391L205.833 144.391L205.833 144.391L205.832 144.391L205.832 144.391L205.832 144.392L205.832 144.392L205.832 144.392L205.831 144.392L205.831 144.392L205.831 144.392L205.831 144.392L205.83 144.392L205.83 144.392L205.83 144.392L205.83 144.392L205.829 144.392L205.829 144.392L205.829 144.392L205.829 144.393L205.828 144.393L205.828 144.393L205.828 144.393L205.828 144.393L205.827 144.393L205.827 144.393L205.827 144.393L205.827 144.393L205.827 144.393L205.826 144.393L205.826 144.393L205.826 144.393L205.826 144.394L205.825 144.394L205.825 144.394L205.825 144.394L205.825 144.394L205.824 144.394L205.824 144.394L205.824 144.394L205.824 144.394L205.823 144.394L205.823 144.394L205.823 144.394L205.823 144.394L205.822 144.395L205.822 144.395L205.822 144.395L205.822 144.395L205.821 144.395L205.821 144.395L205.821 144.395L205.821 144.395L205.821 144.395L205.82 144.395L205.82 144.395L205.82 144.395L205.82 144.395L205.819 144.396L205.819 144.396L205.819 144.396L205.819 144.396L205.818 144.396L205.818 144.396L205.818 144.396L205.818 144.396L205.817 144.396L205.817 144.396L205.817 144.396L205.817 144.396L205.816 144.396L205.816 144.396L205.816 144.397L205.816 144.397L205.815 144.397L205.815 144.397L205.815 144.397L205.815 144.397L205.815 144.397L205.814 144.397L205.814 144.397L205.814 144.397L205.814 144.397L205.813 144.397L205.813 144.397L205.813 144.398L205.813 144.398L205.812 144.398L205.812 144.398L205.812 144.398L205.812 144.398L205.811 144.398L205.811 144.398L205.811 144.398L205.811 144.398L205.81 144.398L205.81 144.398L205.81 144.398L205.81 144.399L205.809 144.399L205.809 144.399L205.809 144.399L205.809 144.399L205.808 144.399L205.808 144.399L205.808 144.399L205.808 144.399L205.808 144.399L205.807 144.399L205.807 144.399L205.807 144.399L205.807 144.4L205.806 144.4L205.806 144.4L205.806 144.4L205.806 144.4L205.805 144.4L205.805 144.4L205.805 144.4L205.805 144.4L205.804 144.4L205.804 144.4L205.804 144.4L205.804 144.4L205.803 144.401L205.803 144.401L205.803 144.401L205.803 144.401L205.802 144.401L205.802 144.401L205.802 144.401L205.802 144.401L205.801 144.401L205.801 144.401L205.801 144.401L205.801 144.401L205.801 144.401L205.8 144.402L205.8 144.402L205.8 144.402L205.8 144.402L205.799 144.402L205.799 144.402L205.799 144.402L205.799 144.402L205.798 144.402L205.798 144.402L205.798 144.402L205.798 144.402L205.797 144.402L205.797 144.402L205.797 144.403L205.797 144.403L205.796 144.403L205.796 144.403L205.796 144.403L205.796 144.403L205.795 144.403L205.795 144.403L205.795 144.403L205.795 144.403L205.794 144.403L205.794 144.403L205.794 144.403L205.794 144.404L205.794 144.404L205.793 144.404L205.793 144.404L205.793 144.404L205.793 144.404L205.792 144.404L205.792 144.404L205.792 144.404L205.792 144.404L205.791 144.404L205.791 144.404L205.791 144.404L205.791 144.405L205.79 144.405L205.79 144.405L205.79 144.405L205.79 144.405L205.789 144.405L205.789 144.405L205.789 144.405L205.789 144.405L205.788 144.405L205.788 144.405L205.788 144.405L205.788 144.405L205.787 144.406L205.787 144.406L205.787 144.406L205.787 144.406L205.786 144.406L205.786 144.406L205.786 144.406L205.786 144.406L205.785 144.406L205.785 144.406L205.785 144.406L205.785 144.406L205.785 144.406L205.784 144.407L205.784 144.407L205.784 144.407L205.784 144.407L205.783 144.407L205.783 144.407L205.783 144.407L205.783 144.407L205.782 144.407L205.782 144.407L205.782 144.407L205.782 144.407L205.781 144.407L205.781 144.408L205.781 144.408L205.781 144.408L205.78 144.408L205.78 144.408L205.78 144.408L205.78 144.408L205.779 144.408L205.779 144.408L205.779 144.408L205.779 144.408L205.778 144.408L205.778 144.408L205.778 144.409L205.778 144.409L205.777 144.409L205.777 144.409L205.777 144.409L205.777 144.409L205.777 144.409L205.776 144.409L205.776 144.409L205.776 144.409L205.776 144.409L205.775 144.409L205.775 144.409L205.775 144.41L205.775 144.41L205.774 144.41L205.774 144.41L205.774 144.41L205.774 144.41L205.773 144.41L205.773 144.41L205.773 144.41L205.773 144.41L205.772 144.41L205.772 144.41L205.772 144.41L205.772 144.411L205.771 144.411L205.771 144.411L205.771 144.411L205.771 144.411L205.77 144.411L205.77 144.411L205.77 144.411L205.77 144.411L205.769 144.411L205.769 144.411L205.769 144.411L205.769 144.411L205.768 144.412L205.768 144.412L205.768 144.412L205.768 144.412L205.768 144.412L205.767 144.412L205.767 144.412L205.767 144.412L205.767 144.412L205.766 144.412L205.766 144.412L205.766 144.412L205.766 144.412L205.765 144.413L205.765 144.413L205.765 144.413L205.765 144.413L205.764 144.413L205.764 144.413L205.764 144.413L205.764 144.413L205.763 144.413L205.763 144.413L205.763 144.413C200.824 145.969 198.148 151.324 199.751 156.398L199.751 156.398L199.755 156.409C199.946 156.969 200.197 157.522 200.452 158.082L227.487 178.609ZM201.016 165.568C201.679 163.872 201.755 162.499 201.567 161.318C201.377 160.122 200.915 159.1 200.452 158.082L201.016 165.568ZM201.016 165.568C199.711 168.766 199.579 172.368 200.638 175.719L201.016 165.568ZM200.638 175.719C203.106 183.536 211.318 188.068 218.967 185.783L200.638 175.719Z" stroke="white"/>
<path d="M214.48 158.332C213.669 159.424 212.545 160.23 211.227 160.645L211.226 160.645L211.226 160.645L211.226 160.645L211.226 160.645L211.226 160.645L211.226 160.645L211.225 160.645L211.225 160.645L211.225 160.645L211.225 160.645L211.225 160.645L211.224 160.645L211.224 160.645L211.224 160.645L211.224 160.646L211.224 160.646L211.224 160.646L211.223 160.646L211.223 160.646L211.223 160.646L211.223 160.646L211.223 160.646L211.223 160.646L211.222 160.646L211.222 160.646L211.222 160.646L211.222 160.646L211.222 160.646L211.222 160.646L211.221 160.646L211.221 160.646L211.221 160.646L211.221 160.647L211.221 160.647L211.221 160.647L211.22 160.647L211.22 160.647L211.22 160.647L211.22 160.647L211.22 160.647L211.219 160.647L211.219 160.647L211.219 160.647L211.219 160.647L211.219 160.647L211.219 160.647L211.218 160.647L211.218 160.647L211.218 160.647L211.218 160.647L211.218 160.648L211.218 160.648L211.217 160.648L211.217 160.648L211.217 160.648L211.217 160.648L211.217 160.648L211.217 160.648L211.216 160.648L211.216 160.648L211.216 160.648L211.216 160.648L211.216 160.648L211.216 160.648L211.215 160.648L211.215 160.648L211.215 160.648L211.215 160.648L211.215 160.648L211.214 160.649L211.214 160.649L211.214 160.649L211.214 160.649L211.214 160.649L211.214 160.649L211.213 160.649L211.213 160.649L211.213 160.649L211.213 160.649L211.213 160.649L211.213 160.649L211.212 160.649L211.212 160.649L211.212 160.649L211.212 160.649L211.212 160.649L211.212 160.649L211.211 160.65L211.211 160.65L211.211 160.65L211.211 160.65L211.211 160.65L211.211 160.65L211.21 160.65L211.21 160.65L211.21 160.65L211.21 160.65L211.21 160.65L211.209 160.65L211.209 160.65L211.209 160.65L211.209 160.65L211.209 160.65L211.209 160.65L211.208 160.65L211.208 160.65L211.208 160.651L211.208 160.651L211.208 160.651L211.208 160.651L211.207 160.651L211.207 160.651L211.207 160.651L211.207 160.651L211.207 160.651L211.207 160.651L211.206 160.651L211.206 160.651L211.206 160.651L211.206 160.651L211.206 160.651L211.206 160.651L211.205 160.651L211.205 160.651L211.205 160.652L211.205 160.652L211.205 160.652L211.204 160.652L211.204 160.652L211.204 160.652L211.204 160.652L211.204 160.652L211.204 160.652L211.203 160.652L211.203 160.652L211.203 160.652L211.203 160.652L211.203 160.652L211.203 160.652L211.202 160.652L211.202 160.652L211.202 160.652L211.202 160.652L211.202 160.653L211.202 160.653L211.201 160.653L211.201 160.653L211.201 160.653L211.201 160.653L211.201 160.653L211.201 160.653L211.2 160.653L211.2 160.653L211.2 160.653L211.2 160.653L211.2 160.653L211.2 160.653L211.199 160.653L211.199 160.653L211.199 160.653L211.199 160.653L211.199 160.654L211.198 160.654L211.198 160.654L211.198 160.654L211.198 160.654L211.198 160.654L211.198 160.654L211.197 160.654L211.197 160.654L211.197 160.654L211.197 160.654L211.197 160.654L211.197 160.654L211.196 160.654L211.196 160.654L211.196 160.654L211.196 160.654L211.196 160.654L211.196 160.654L211.195 160.655L211.195 160.655L211.195 160.655L211.195 160.655L211.195 160.655L211.195 160.655L211.194 160.655L211.194 160.655L211.194 160.655L211.194 160.655L211.194 160.655L211.193 160.655L211.193 160.655L211.193 160.655L211.193 160.655L211.193 160.655L211.193 160.655L211.192 160.655L211.192 160.656L211.192 160.656L211.192 160.656L211.192 160.656L211.192 160.656L211.191 160.656L211.191 160.656L211.191 160.656L211.191 160.656L211.191 160.656L211.191 160.656L211.19 160.656L211.19 160.656L211.19 160.656L211.19 160.656L211.19 160.656L211.19 160.656L211.189 160.656L211.189 160.657L211.189 160.657L211.189 160.657L211.189 160.657L211.188 160.657L211.188 160.657L211.188 160.657L211.188 160.657L211.188 160.657L211.188 160.657L211.187 160.657L211.187 160.657L211.187 160.657L211.187 160.657L211.187 160.657L211.187 160.657L211.186 160.657L211.186 160.657L211.186 160.657L211.186 160.658L211.186 160.658L211.186 160.658L211.185 160.658L211.185 160.658L211.185 160.658L211.185 160.658L211.185 160.658L211.185 160.658L211.184 160.658L211.184 160.658L211.184 160.658L211.184 160.658L211.184 160.658L211.183 160.658L211.183 160.658L211.183 160.658L211.183 160.658L211.183 160.659L211.183 160.659L211.182 160.659L211.182 160.659L211.182 160.659L211.182 160.659L211.182 160.659L211.182 160.659L211.181 160.659L211.181 160.659L211.181 160.659L211.181 160.659L211.181 160.659L211.181 160.659L211.18 160.659L211.18 160.659L211.18 160.659L211.18 160.659L211.18 160.659L211.18 160.66L211.179 160.66L211.179 160.66L211.179 160.66L211.179 160.66L211.179 160.66L211.178 160.66L211.178 160.66L211.178 160.66L211.178 160.66L211.178 160.66L211.178 160.66L211.177 160.66L211.177 160.66L211.177 160.66L211.177 160.66L211.177 160.66L211.177 160.66L211.176 160.661L211.176 160.661L211.176 160.661L211.176 160.661L211.176 160.661L211.176 160.661L211.175 160.661L211.175 160.661L211.175 160.661L211.175 160.661L211.175 160.661L211.175 160.661L211.174 160.661L211.174 160.661L211.174 160.661L211.174 160.661L211.174 160.661L211.174 160.661L211.173 160.661L211.173 160.662L211.173 160.662L211.173 160.662L211.173 160.662L211.172 160.662L211.172 160.662L211.172 160.662L211.172 160.662L211.172 160.662L211.172 160.662L211.171 160.662L211.171 160.662L211.171 160.662L211.171 160.662L211.171 160.662L211.171 160.662L211.17 160.662L211.17 160.662L211.17 160.663L211.17 160.663L211.17 160.663L211.17 160.663L211.169 160.663L211.169 160.663L211.169 160.663L211.169 160.663L211.169 160.663L211.169 160.663L211.168 160.663L211.168 160.663L211.168 160.663L211.168 160.663L211.168 160.663L211.167 160.663L211.167 160.663L211.167 160.663L211.167 160.663L211.167 160.664L211.167 160.664L211.166 160.664L211.166 160.664L211.166 160.664L211.166 160.664L211.166 160.664L211.166 160.664L211.165 160.664L211.165 160.664L211.165 160.664L211.165 160.664L211.165 160.664L211.165 160.664L211.164 160.664L211.164 160.664L211.164 160.664L211.164 160.664L211.164 160.665L211.164 160.665L211.163 160.665L211.163 160.665L211.163 160.665L211.163 160.665L211.163 160.665L211.162 160.665L211.162 160.665L211.162 160.665L211.162 160.665L211.162 160.665L211.162 160.665L211.161 160.665L211.161 160.665L211.161 160.665L211.161 160.665L211.161 160.665L211.161 160.665L211.16 160.666L211.16 160.666L211.16 160.666L211.16 160.666L211.16 160.666L211.16 160.666L211.159 160.666L211.159 160.666L211.159 160.666L211.159 160.666L211.159 160.666L211.159 160.666L211.158 160.666L211.158 160.666L211.158 160.666L211.158 160.666L211.158 160.666L211.157 160.666L211.157 160.667L211.157 160.667L211.157 160.667L211.157 160.667L211.157 160.667L211.156 160.667L211.156 160.667L211.156 160.667L211.156 160.667L211.156 160.667L211.156 160.667L211.155 160.667L211.155 160.667L211.155 160.667L211.155 160.667L211.155 160.667L211.155 160.667L211.154 160.667L211.154 160.668L211.154 160.668L211.154 160.668L211.154 160.668L211.154 160.668L211.153 160.668L211.153 160.668L211.153 160.668L211.153 160.668L211.153 160.668L211.152 160.668L211.152 160.668L211.152 160.668L211.152 160.668L211.152 160.668L211.152 160.668L211.151 160.668L211.151 160.668L211.151 160.668L211.151 160.669L211.151 160.669L211.151 160.669L211.15 160.669L211.15 160.669L211.15 160.669L211.15 160.669L211.15 160.669L211.15 160.669L211.149 160.669L211.149 160.669L211.149 160.669L211.149 160.669L211.149 160.669L211.149 160.669L211.148 160.669L211.148 160.669L211.148 160.669L211.148 160.67L211.148 160.67L211.148 160.67L211.147 160.67L211.147 160.67L211.147 160.67L211.147 160.67L211.147 160.67L211.146 160.67L211.146 160.67L211.146 160.67L211.146 160.67L211.146 160.67L211.146 160.67L211.145 160.67L211.145 160.67L211.145 160.67L211.145 160.67L211.145 160.67L211.145 160.671L211.144 160.671L211.144 160.671L211.144 160.671L211.144 160.671L211.144 160.671L211.144 160.671L211.143 160.671L211.143 160.671L211.143 160.671L211.143 160.671L211.143 160.671L211.143 160.671L211.142 160.671L211.142 160.671L211.142 160.671L211.142 160.671L211.142 160.671L211.141 160.672L211.141 160.672L211.141 160.672L211.141 160.672L211.141 160.672L211.141 160.672L211.14 160.672L211.14 160.672L211.14 160.672L211.14 160.672L211.14 160.672L211.14 160.672L211.139 160.672L211.139 160.672L211.139 160.672L211.139 160.672L211.139 160.672L211.139 160.672L211.138 160.672L211.131 160.675L211.131 160.675C207.578 161.736 203.776 159.632 202.635 156.023L214.48 158.332ZM214.48 158.332L214.521 158.458L215.067 157.389C215.884 155.787 216.027 153.938 215.474 152.188L215.474 152.187C215.349 151.794 215.192 151.416 215.006 151.057L214.831 150.718L214.457 150.792C211.975 151.281 209.371 150.319 207.714 148.327L206.931 147.386L206.828 148.592C206.609 151.146 205.01 153.363 202.674 154.31L202.321 154.453L202.371 154.83C202.423 155.225 202.509 155.625 202.635 156.023L214.48 158.332ZM203.082 152.076L203.082 152.076C203.067 152.122 203.053 152.168 203.041 152.213L202.988 152.421C202.983 152.443 202.978 152.463 202.974 152.484L203.082 152.076ZM203.082 152.076C203.115 151.971 203.148 151.869 203.185 151.766M203.082 152.076L203.185 151.766M203.185 151.766C203.206 151.706 203.226 151.647 203.251 151.589L203.185 151.766ZM211.182 160.86L211.033 160.907L210.939 161.029L210.933 161.036L211.344 161.35L211.496 161.809L211.496 161.809L211.496 161.809L211.497 161.809L211.497 161.809L211.497 161.809L211.497 161.809L211.497 161.809L211.498 161.809L211.498 161.808L211.498 161.808L211.498 161.808L211.498 161.808L211.499 161.808L211.499 161.808L211.499 161.808L211.499 161.808L211.5 161.808L211.5 161.808L211.5 161.808L211.5 161.808L211.5 161.808L211.501 161.808L211.501 161.808L211.501 161.807L211.501 161.807L211.501 161.807L211.502 161.807L211.502 161.807L211.502 161.807L211.502 161.807L211.503 161.807L211.503 161.807L211.503 161.807L211.503 161.807L211.503 161.807L211.504 161.807L211.504 161.807L211.504 161.806L211.504 161.806L211.505 161.806L211.505 161.806L211.505 161.806L211.505 161.806L211.506 161.806L211.506 161.806L211.506 161.806L211.506 161.806L211.506 161.806L211.507 161.806L211.507 161.806L211.507 161.806L211.507 161.805L211.508 161.805L211.508 161.805L211.508 161.805L211.508 161.805L211.509 161.805L211.509 161.805L211.509 161.805L211.509 161.805L211.51 161.805L211.51 161.805L211.51 161.805L211.51 161.805L211.51 161.804L211.511 161.804L211.511 161.804L211.511 161.804L211.511 161.804L211.512 161.804L211.512 161.804L211.512 161.804L211.512 161.804L211.513 161.804L211.513 161.804L211.513 161.804L211.513 161.804L211.514 161.803L211.514 161.803L211.514 161.803L211.514 161.803L211.515 161.803L211.515 161.803L211.515 161.803L211.515 161.803L211.516 161.803L211.516 161.803L211.516 161.803L211.516 161.803L211.517 161.803L211.517 161.802L211.517 161.802L211.517 161.802L211.518 161.802L211.518 161.802L211.518 161.802L211.518 161.802L211.519 161.802L211.519 161.802L211.519 161.802L211.519 161.802L211.52 161.802L211.52 161.801L211.52 161.801L211.521 161.801L211.521 161.801L211.521 161.801L211.521 161.801L211.522 161.801L211.522 161.801L211.522 161.801L211.522 161.801L211.523 161.801L211.523 161.801L211.523 161.8L211.523 161.8L211.524 161.8L211.524 161.8L211.524 161.8L211.524 161.8L211.525 161.8L211.525 161.8L211.525 161.8L211.525 161.8L211.526 161.8L211.526 161.8L211.526 161.799L211.527 161.799L211.527 161.799L211.527 161.799L211.527 161.799L211.528 161.799L211.528 161.799L211.528 161.799L211.528 161.799L211.529 161.799L211.529 161.799L211.529 161.799L211.529 161.798L211.53 161.798L211.53 161.798L211.53 161.798L211.53 161.798L211.531 161.798L211.531 161.798L211.531 161.798L211.532 161.798L211.532 161.798L211.532 161.798L211.532 161.798L211.533 161.797L211.533 161.797L211.533 161.797L211.533 161.797L211.534 161.797L211.534 161.797L211.534 161.797L211.534 161.797L211.535 161.797L211.535 161.797L211.535 161.797L211.536 161.797L211.536 161.796L211.536 161.796L211.536 161.796L211.537 161.796L211.537 161.796L211.537 161.796L211.537 161.796L211.538 161.796L211.538 161.796L211.538 161.796L211.539 161.796L211.539 161.796L211.539 161.795L211.539 161.795L211.54 161.795L211.54 161.795L211.54 161.795L211.54 161.795L211.541 161.795L211.541 161.795L211.541 161.795L211.541 161.795L211.542 161.795L211.542 161.795L211.542 161.794L211.543 161.794L211.543 161.794L211.543 161.794L211.543 161.794L211.544 161.794L211.544 161.794L211.544 161.794L211.544 161.794L211.545 161.794L211.545 161.794L211.545 161.794L211.545 161.793L211.546 161.793L211.546 161.793L211.546 161.793L211.547 161.793L211.547 161.793L211.547 161.793L211.547 161.793L211.548 161.793L211.548 161.793L211.548 161.793L211.548 161.793L211.549 161.792L211.549 161.792L211.549 161.792L211.549 161.792L211.55 161.792L211.55 161.792L211.55 161.792L211.55 161.792L211.551 161.792L211.551 161.792L211.551 161.792L211.552 161.792L211.552 161.791L211.552 161.791L211.552 161.791L211.553 161.791L211.553 161.791L211.553 161.791L211.553 161.791L211.554 161.791L211.554 161.791L211.554 161.791L211.554 161.791L211.555 161.791L211.555 161.79L211.555 161.79L211.555 161.79L211.556 161.79L211.556 161.79L211.556 161.79L211.556 161.79L211.557 161.79L211.557 161.79L211.557 161.79L211.557 161.79L211.558 161.79L211.558 161.79L211.558 161.789L211.558 161.789L211.559 161.789L211.559 161.789L211.559 161.789L211.56 161.789L211.56 161.789L211.56 161.789L211.56 161.789L211.561 161.789L211.561 161.789L211.561 161.789L211.561 161.788L211.562 161.788L211.562 161.788L211.562 161.788L211.562 161.788L211.563 161.788L211.563 161.788L211.563 161.788L211.563 161.788L211.563 161.788L211.564 161.788L211.564 161.788L211.564 161.788L211.564 161.787L211.565 161.787L211.565 161.787L211.565 161.787L211.565 161.787L211.566 161.787L211.566 161.787L211.566 161.787L211.566 161.787L211.567 161.787L211.567 161.787L211.567 161.787L211.567 161.787L211.568 161.786L211.568 161.786L211.568 161.786L211.568 161.786L211.569 161.786L211.569 161.786L211.569 161.786L211.569 161.786L211.569 161.786L211.57 161.786L211.57 161.786L211.57 161.786L211.57 161.786L211.571 161.786L211.571 161.785L211.571 161.785L211.571 161.785L211.572 161.785L211.572 161.785L211.572 161.785L211.572 161.785L211.572 161.785L211.573 161.785L211.573 161.785L211.573 161.785L211.573 161.785L211.574 161.785L211.574 161.785L211.574 161.784L211.574 161.784L211.574 161.784L211.575 161.784L211.575 161.784L211.575 161.784L211.575 161.784L211.576 161.784L211.576 161.784L211.576 161.784L211.576 161.784L211.576 161.784L211.577 161.784L211.577 161.784L211.577 161.784L211.577 161.783L211.577 161.783L211.578 161.783L211.578 161.783L211.578 161.783L211.578 161.783L211.578 161.783L211.579 161.783L211.579 161.783L211.579 161.783L211.579 161.783L211.58 161.783L211.58 161.783L211.58 161.783L211.58 161.783L211.58 161.782L211.581 161.782L211.581 161.782L211.581 161.782L211.581 161.782L211.581 161.782L211.581 161.782L211.582 161.782L211.582 161.782L211.582 161.782L211.582 161.782L211.582 161.782L211.583 161.782L211.583 161.782L211.583 161.782L211.583 161.782L211.583 161.782L211.584 161.781L211.584 161.781L211.584 161.781L211.584 161.781L211.584 161.781L211.584 161.781L211.585 161.781L211.585 161.781L211.585 161.781L211.585 161.781L211.585 161.781L211.586 161.781L211.586 161.781L211.586 161.781L211.586 161.781L211.586 161.781L211.586 161.781L211.587 161.781L211.587 161.78L211.587 161.78L211.587 161.78L211.587 161.78L211.587 161.78L211.588 161.78L211.588 161.78L211.588 161.78L211.588 161.78L211.588 161.78L211.588 161.78L211.589 161.78L211.589 161.78L211.589 161.78L211.589 161.78L211.589 161.78L211.589 161.78L211.589 161.78L211.59 161.78L211.59 161.779L211.59 161.779L211.59 161.779L211.59 161.779L211.59 161.779L211.59 161.779L211.591 161.779L211.591 161.779L211.591 161.779L211.591 161.779L211.591 161.779L211.591 161.779L211.591 161.779L211.592 161.779L211.592 161.779L211.592 161.779L211.592 161.779L211.592 161.779L211.592 161.779L211.592 161.779L211.593 161.779L211.593 161.779L211.593 161.779L211.593 161.779L211.593 161.778L211.593 161.778L211.593 161.778L211.593 161.778L211.594 161.778L211.594 161.778L211.594 161.778L211.594 161.778L211.594 161.778L211.594 161.778L211.594 161.778L211.594 161.778L211.594 161.778L211.595 161.778L211.595 161.778L211.595 161.778L211.595 161.778L211.595 161.778L211.595 161.778L211.595 161.778L211.595 161.778L211.595 161.778L211.595 161.778L211.596 161.778L211.596 161.778L211.596 161.778L211.596 161.778L211.596 161.778L211.596 161.778L211.596 161.778L211.596 161.777L211.596 161.777L211.596 161.777L211.596 161.777L211.597 161.777L211.597 161.777L211.597 161.777L211.597 161.777L211.597 161.777L211.597 161.777L211.597 161.777L211.597 161.777L211.597 161.777L211.597 161.777L211.597 161.777L211.597 161.777L211.597 161.777L211.597 161.777L211.598 161.777L211.598 161.777L211.598 161.777L211.598 161.777L211.598 161.777L211.598 161.777L211.598 161.777L211.598 161.777L211.598 161.777L211.598 161.777L211.598 161.777L211.598 161.777L211.598 161.777L211.598 161.777L211.598 161.777L211.598 161.777L211.598 161.777L211.598 161.777L211.598 161.777L211.598 161.777L211.598 161.777L211.598 161.777L211.599 161.777L211.599 161.777L211.599 161.777L211.599 161.777L211.599 161.777L211.599 161.777L211.599 161.777L211.599 161.777L211.599 161.777L211.599 161.777L211.599 161.777L211.599 161.777L211.599 161.777L211.599 161.777L211.599 161.777L211.599 161.777L211.599 161.777L211.599 161.777L211.496 161.467L211.733 161.648L211.738 161.64L211.491 161.451L211.442 161.302L211.284 160.828L211.284 160.828L211.284 160.828L211.284 160.828L211.284 160.828L211.284 160.828L211.284 160.828L211.284 160.828L211.284 160.828L211.284 160.828L211.284 160.828L211.284 160.828L211.284 160.828L211.284 160.828L211.284 160.828L211.284 160.828L211.284 160.828L211.284 160.828L211.284 160.828L211.284 160.828L211.284 160.828L211.284 160.828L211.284 160.828L211.284 160.828L211.284 160.828L211.284 160.828L211.284 160.828L211.284 160.828L211.284 160.828L211.284 160.828L211.284 160.828L211.284 160.828L211.284 160.828L211.283 160.828L211.283 160.828L211.283 160.828L211.283 160.828L211.283 160.828L211.283 160.828L211.283 160.828L211.283 160.828L211.283 160.828L211.283 160.828L211.283 160.828L211.283 160.828L211.283 160.828L211.283 160.828L211.283 160.828L211.283 160.828L211.282 160.828L211.282 160.828L211.282 160.828L211.282 160.829L211.282 160.829L211.282 160.829L211.282 160.829L211.282 160.829L211.282 160.829L211.282 160.829L211.282 160.829L211.282 160.829L211.281 160.829L211.281 160.829L211.281 160.829L211.281 160.829L211.281 160.829L211.281 160.829L211.281 160.829L211.281 160.829L211.281 160.829L211.281 160.829L211.28 160.829L211.28 160.829L211.28 160.829L211.28 160.829L211.28 160.829L211.28 160.829L211.28 160.829L211.28 160.829L211.28 160.829L211.28 160.829L211.279 160.829L211.279 160.829L211.279 160.829L211.279 160.83L211.279 160.83L211.279 160.83L211.279 160.83L211.279 160.83L211.278 160.83L211.278 160.83L211.278 160.83L211.278 160.83L211.278 160.83L211.278 160.83L211.278 160.83L211.278 160.83L211.277 160.83L211.277 160.83L211.277 160.83L211.277 160.83L211.277 160.83L211.277 160.83L211.277 160.83L211.276 160.83L211.276 160.83L211.276 160.83L211.276 160.83L211.276 160.831L211.276 160.831L211.276 160.831L211.275 160.831L211.275 160.831L211.275 160.831L211.275 160.831L211.275 160.831L211.275 160.831L211.275 160.831L211.274 160.831L211.274 160.831L211.274 160.831L211.274 160.831L211.274 160.831L211.274 160.831L211.273 160.831L211.273 160.831L211.273 160.831L211.273 160.831L211.273 160.831L211.273 160.832L211.272 160.832L211.272 160.832L211.272 160.832L211.272 160.832L211.272 160.832L211.272 160.832L211.271 160.832L211.271 160.832L211.271 160.832L211.271 160.832L211.271 160.832L211.27 160.832L211.27 160.832L211.27 160.832L211.27 160.832L211.27 160.832L211.27 160.832L211.269 160.833L211.269 160.833L211.269 160.833L211.269 160.833L211.269 160.833L211.268 160.833L211.268 160.833L211.268 160.833L211.268 160.833L211.268 160.833L211.268 160.833L211.267 160.833L211.267 160.833L211.267 160.833L211.267 160.833L211.267 160.833L211.266 160.833L211.266 160.834L211.266 160.834L211.266 160.834L211.266 160.834L211.265 160.834L211.265 160.834L211.265 160.834L211.265 160.834L211.265 160.834L211.264 160.834L211.264 160.834L211.264 160.834L211.264 160.834L211.264 160.834L211.263 160.834L211.263 160.835L211.263 160.835L211.263 160.835L211.262 160.835L211.262 160.835L211.262 160.835L211.262 160.835L211.262 160.835L211.261 160.835L211.261 160.835L211.261 160.835L211.261 160.835L211.261 160.835L211.26 160.835L211.26 160.835L211.26 160.836L211.26 160.836L211.259 160.836L211.259 160.836L211.259 160.836L211.259 160.836L211.259 160.836L211.258 160.836L211.258 160.836L211.258 160.836L211.258 160.836L211.257 160.836L211.257 160.836L211.257 160.836L211.257 160.837L211.257 160.837L211.256 160.837L211.256 160.837L211.256 160.837L211.256 160.837L211.255 160.837L211.255 160.837L211.255 160.837L211.255 160.837L211.254 160.837L211.254 160.837L211.254 160.837L211.254 160.837L211.253 160.838L211.253 160.838L211.253 160.838L211.253 160.838L211.253 160.838L211.252 160.838L211.252 160.838L211.252 160.838L211.252 160.838L211.251 160.838L211.251 160.838L211.251 160.838L211.251 160.838L211.25 160.839L211.25 160.839L211.25 160.839L211.25 160.839L211.249 160.839L211.249 160.839L211.249 160.839L211.249 160.839L211.248 160.839L211.248 160.839L211.248 160.839L211.248 160.839L211.247 160.839L211.247 160.84L211.247 160.84L211.247 160.84L211.246 160.84L211.246 160.84L211.246 160.84L211.246 160.84L211.245 160.84L211.245 160.84L211.245 160.84L211.245 160.84L211.244 160.84L211.244 160.84L211.244 160.841L211.244 160.841L211.243 160.841L211.243 160.841L211.243 160.841L211.243 160.841L211.242 160.841L211.242 160.841L211.242 160.841L211.242 160.841L211.241 160.841L211.241 160.841L211.241 160.842L211.241 160.842L211.24 160.842L211.24 160.842L211.24 160.842L211.24 160.842L211.239 160.842L211.239 160.842L211.239 160.842L211.238 160.842L211.238 160.842L211.238 160.842L211.238 160.843L211.237 160.843L211.237 160.843L211.237 160.843L211.237 160.843L211.236 160.843L211.236 160.843L211.236 160.843L211.236 160.843L211.235 160.843L211.235 160.843L211.235 160.843L211.235 160.844L211.234 160.844L211.234 160.844L211.234 160.844L211.233 160.844L211.233 160.844L211.233 160.844L211.233 160.844L211.232 160.844L211.232 160.844L211.232 160.844L211.232 160.844L211.231 160.845L211.231 160.845L211.231 160.845L211.231 160.845L211.23 160.845L211.23 160.845L211.23 160.845L211.23 160.845L211.229 160.845L211.229 160.845L211.229 160.845L211.228 160.845L211.228 160.846L211.228 160.846L211.228 160.846L211.227 160.846L211.227 160.846L211.227 160.846L211.227 160.846L211.226 160.846L211.226 160.846L211.226 160.846L211.225 160.846L211.225 160.846L211.225 160.847L211.225 160.847L211.224 160.847L211.224 160.847L211.224 160.847L211.224 160.847L211.223 160.847L211.223 160.847L211.223 160.847L211.223 160.847L211.222 160.847L211.222 160.847L211.222 160.848L211.221 160.848L211.221 160.848L211.221 160.848L211.221 160.848L211.22 160.848L211.22 160.848L211.22 160.848L211.22 160.848L211.219 160.848L211.219 160.848L211.219 160.848L211.219 160.849L211.218 160.849L211.218 160.849L211.218 160.849L211.217 160.849L211.217 160.849L211.217 160.849L211.217 160.849L211.216 160.849L211.216 160.849L211.216 160.849L211.216 160.849L211.215 160.85L211.215 160.85L211.215 160.85L211.215 160.85L211.214 160.85L211.214 160.85L211.214 160.85L211.213 160.85L211.213 160.85L211.213 160.85L211.213 160.85L211.212 160.85L211.212 160.851L211.212 160.851L211.212 160.851L211.211 160.851L211.211 160.851L211.211 160.851L211.211 160.851L211.21 160.851L211.21 160.851L211.21 160.851L211.21 160.851L211.209 160.851L211.209 160.852L211.209 160.852L211.208 160.852L211.208 160.852L211.208 160.852L211.208 160.852L211.207 160.852L211.207 160.852L211.207 160.852L211.207 160.852L211.206 160.852L211.206 160.852L211.206 160.853L211.206 160.853L211.205 160.853L211.205 160.853L211.205 160.853L211.205 160.853L211.204 160.853L211.204 160.853L211.204 160.853L211.204 160.853L211.203 160.853L211.203 160.853L211.203 160.853L211.203 160.854L211.202 160.854L211.202 160.854L211.202 160.854L211.202 160.854L211.201 160.854L211.201 160.854L211.201 160.854L211.201 160.854L211.2 160.854L211.2 160.854L211.2 160.854L211.2 160.855L211.199 160.855L211.199 160.855L211.199 160.855L211.199 160.855L211.198 160.855L211.198 160.855L211.198 160.855L211.198 160.855L211.197 160.855L211.197 160.855L211.197 160.855L211.197 160.855L211.196 160.856L211.196 160.856L211.196 160.856L211.196 160.856L211.195 160.856L211.195 160.856L211.195 160.856L211.195 160.856L211.194 160.856L211.194 160.856L211.194 160.856L211.194 160.856L211.193 160.856L211.193 160.857L211.193 160.857L211.193 160.857L211.193 160.857L211.192 160.857L211.192 160.857L211.192 160.857L211.192 160.857L211.191 160.857L211.191 160.857L211.191 160.857L211.191 160.857L211.19 160.857L211.19 160.857L211.19 160.858L211.19 160.858L211.19 160.858L211.189 160.858L211.189 160.858L211.189 160.858L211.189 160.858L211.188 160.858L211.188 160.858L211.188 160.858L211.188 160.858L211.188 160.858L211.187 160.858L211.187 160.858L211.187 160.859L211.187 160.859L211.186 160.859L211.186 160.859L211.186 160.859L211.186 160.859L211.186 160.859L211.185 160.859L211.185 160.859L211.185 160.859L211.185 160.859L211.185 160.859L211.184 160.859L211.184 160.859L211.184 160.859L211.184 160.86L211.183 160.86L211.183 160.86L211.183 160.86L211.183 160.86L211.183 160.86L211.182 160.86L211.182 160.86L211.182 160.86L211.182 160.86L211.182 160.86ZM202.33 153.36C202.328 153.383 202.327 153.405 202.327 153.416L202.327 153.418C202.326 153.43 202.326 153.433 202.326 153.433L202.326 153.433L202.246 154.331L203.056 153.928C205.142 152.889 206.518 150.786 206.678 148.423L206.738 147.538L205.945 147.94C205.83 147.998 205.711 148.061 205.594 148.129L205.593 148.13L205.575 148.14L205.575 148.14L205.574 148.141L205.542 148.161C205.448 148.217 205.354 148.276 205.261 148.337L205.255 148.339L205.194 148.38C204.492 148.86 203.894 149.471 203.429 150.172L203.429 150.172L203.424 150.179L203.411 150.199L203.399 150.218C203.339 150.31 203.28 150.406 203.225 150.5L203.221 150.504L203.188 150.562C203.123 150.675 203.063 150.787 203.006 150.905C202.994 150.928 202.983 150.951 202.975 150.969L202.975 150.97C202.965 150.99 202.959 151.004 202.953 151.016C202.915 151.093 202.88 151.173 202.852 151.239L202.852 151.24C202.832 151.283 202.806 151.341 202.783 151.403C202.755 151.471 202.731 151.538 202.712 151.592L202.71 151.596L202.71 151.597C202.672 151.706 202.637 151.813 202.602 151.922L202.602 151.923L202.601 151.927C202.587 151.971 202.57 152.026 202.555 152.082L202.555 152.082L202.554 152.087L202.528 152.191L202.501 152.295L202.501 152.295L202.5 152.298C202.494 152.325 202.488 152.351 202.484 152.371L202.483 152.373C202.478 152.395 202.475 152.41 202.472 152.423L202.472 152.423L202.47 152.43C202.451 152.511 202.435 152.59 202.421 152.669L202.421 152.669L202.42 152.677C202.416 152.7 202.413 152.721 202.41 152.738L202.41 152.74C202.407 152.758 202.405 152.772 202.402 152.787C202.402 152.788 202.402 152.788 202.402 152.788L202.33 153.36ZM205.325 148.317L205.319 148.319C205.327 148.316 205.329 148.315 205.325 148.317ZM213.922 150.683L214.802 150.577L214.247 149.883C212.751 148.011 210.394 147.023 208.067 147.305L207.186 147.411L207.742 148.105C209.237 149.974 211.594 150.964 213.922 150.683Z" stroke="white"/>
<path d="M206.075 175.777L206.075 175.778C207.648 180.748 212.88 183.641 217.762 182.184L217.762 182.184L217.769 182.182L217.769 182.181L217.769 182.181L217.77 182.181L217.77 182.181L217.77 182.181L217.77 182.181L217.77 182.181L217.771 182.181L217.771 182.181L217.771 182.181L217.771 182.181L217.772 182.181L217.772 182.181L217.772 182.181L217.772 182.18L217.773 182.18L217.773 182.18L217.773 182.18L217.773 182.18L217.773 182.18L217.774 182.18L217.774 182.18L217.774 182.18L217.774 182.18L217.775 182.18L217.775 182.18L217.775 182.18L217.775 182.18L217.776 182.179L217.776 182.179L217.776 182.179L217.776 182.179L217.776 182.179L217.777 182.179L217.777 182.179L217.777 182.179L217.777 182.179L217.778 182.179L217.778 182.179L217.778 182.179L217.778 182.179L217.779 182.179L217.779 182.178L217.779 182.178L217.779 182.178L217.779 182.178L217.78 182.178L217.78 182.178L217.78 182.178L217.78 182.178L217.781 182.178L217.781 182.178L217.781 182.178L217.781 182.178L217.782 182.178L217.782 182.178L217.782 182.177L217.782 182.177L217.782 182.177L217.783 182.177L217.783 182.177L217.783 182.177L217.783 182.177L217.784 182.177L217.784 182.177L217.784 182.177L217.784 182.177L217.785 182.177L217.785 182.177L217.785 182.177L217.785 182.176L217.785 182.176L217.786 182.176L217.786 182.176L217.786 182.176L217.786 182.176L217.787 182.176L217.787 182.176L217.787 182.176L217.787 182.176L217.788 182.176L217.788 182.176L217.788 182.176L217.788 182.175L217.788 182.175L217.789 182.175L217.789 182.175L217.789 182.175L217.789 182.175L217.79 182.175L217.79 182.175L217.79 182.175L217.79 182.175L217.79 182.175L217.791 182.175L217.791 182.175L217.791 182.175L217.791 182.174L217.792 182.174L217.792 182.174L217.792 182.174L217.792 182.174L217.793 182.174L217.793 182.174L217.793 182.174L217.793 182.174L217.793 182.174L217.794 182.174L217.794 182.174L217.794 182.174L217.794 182.174L217.795 182.173L217.795 182.173L217.795 182.173L217.795 182.173L217.796 182.173L217.796 182.173L217.796 182.173L217.796 182.173L217.796 182.173L217.797 182.173L217.797 182.173L217.797 182.173L217.797 182.173L217.798 182.173L217.798 182.172L217.798 182.172L217.798 182.172L217.799 182.172L217.799 182.172L217.799 182.172L217.799 182.172L217.799 182.172L217.8 182.172L217.8 182.172L217.8 182.172L217.8 182.172L217.801 182.172L217.801 182.171L217.801 182.171L217.801 182.171L217.802 182.171L217.802 182.171L217.802 182.171L217.802 182.171L217.802 182.171L217.803 182.171L217.803 182.171L217.803 182.171L217.803 182.171L217.804 182.171L217.804 182.171L217.804 182.17L217.804 182.17L217.805 182.17L217.805 182.17L217.805 182.17L217.805 182.17L217.805 182.17L217.806 182.17L217.806 182.17L217.806 182.17L217.806 182.17L217.807 182.17L217.807 182.17L217.807 182.17L217.807 182.169L217.808 182.169L217.808 182.169L217.808 182.169L217.808 182.169L217.808 182.169L217.809 182.169L217.809 182.169L217.809 182.169L217.809 182.169L217.81 182.169L217.81 182.169L217.81 182.169L217.81 182.169L217.811 182.168L217.811 182.168L217.811 182.168L217.811 182.168L217.812 182.168L217.812 182.168L217.812 182.168L217.812 182.168L217.812 182.168L217.813 182.168L217.813 182.168L217.813 182.168L217.813 182.168L217.814 182.167L217.814 182.167L217.814 182.167L217.814 182.167L217.815 182.167L217.815 182.167L217.815 182.167L217.815 182.167L217.815 182.167L217.816 182.167L217.816 182.167L217.816 182.167L217.816 182.167L217.817 182.167L217.817 182.166L217.817 182.166L217.817 182.166L217.818 182.166L217.818 182.166L217.818 182.166L217.818 182.166L217.818 182.166L217.819 182.166L217.819 182.166L217.819 182.166L217.819 182.166L217.82 182.166L217.82 182.166L217.82 182.165L217.82 182.165L217.821 182.165L217.821 182.165L217.821 182.165L217.821 182.165L217.821 182.165L217.822 182.165L217.822 182.165L217.822 182.165L217.822 182.165L217.823 182.165L217.823 182.165L217.823 182.164L217.823 182.164L217.824 182.164L217.824 182.164L217.824 182.164L217.824 182.164L217.825 182.164L217.825 182.164L217.825 182.164L217.825 182.164L217.825 182.164L217.826 182.164L217.826 182.164L217.826 182.164L217.826 182.163L217.827 182.163L217.827 182.163L217.827 182.163L217.827 182.163L217.828 182.163L217.828 182.163L217.828 182.163L217.828 182.163L217.828 182.163L217.829 182.163L217.829 182.163L217.829 182.163L217.829 182.163L217.83 182.162L217.83 182.162L217.83 182.162L217.83 182.162L217.831 182.162L217.831 182.162L217.831 182.162L217.831 182.162L217.832 182.162L217.832 182.162L217.832 182.162L217.832 182.162L217.832 182.162L217.833 182.161L217.833 182.161L217.833 182.161L217.833 182.161L217.834 182.161L217.834 182.161L217.834 182.161L217.834 182.161L217.835 182.161L217.835 182.161L217.835 182.161L217.835 182.161L217.835 182.161L217.836 182.161L217.836 182.16L217.836 182.16L217.836 182.16L217.837 182.16L217.837 182.16L217.837 182.16L217.837 182.16L217.838 182.16L217.838 182.16L217.838 182.16L217.838 182.16L217.839 182.16L217.839 182.16L217.839 182.159L217.839 182.159L217.839 182.159L217.84 182.159L217.84 182.159L217.84 182.159L217.84 182.159L217.841 182.159L217.841 182.159L217.841 182.159L217.841 182.159L217.842 182.159L217.842 182.159L217.842 182.159L217.842 182.158L217.843 182.158L217.843 182.158L217.843 182.158L217.843 182.158L217.843 182.158L217.844 182.158L217.844 182.158L217.844 182.158L217.844 182.158L217.845 182.158L217.845 182.158L217.845 182.158L217.845 182.157L217.846 182.157L217.846 182.157L217.846 182.157L217.846 182.157L217.847 182.157L217.847 182.157L217.847 182.157L217.847 182.157L217.847 182.157L217.848 182.157L217.848 182.157L217.848 182.157L217.848 182.157L217.849 182.156L217.849 182.156L217.849 182.156L217.849 182.156L217.85 182.156L217.85 182.156L217.85 182.156L217.85 182.156L217.851 182.156L217.851 182.156L217.851 182.156L217.851 182.156L217.852 182.156L217.852 182.155L217.852 182.155L217.852 182.155L217.852 182.155L217.853 182.155L217.853 182.155L217.853 182.155L217.853 182.155L217.854 182.155L217.854 182.155L217.854 182.155L217.854 182.155L217.855 182.155L217.855 182.155L217.855 182.154L217.855 182.154L217.856 182.154L217.856 182.154L217.856 182.154L217.856 182.154L217.856 182.154L217.857 182.154L217.857 182.154L217.857 182.154L217.857 182.154L217.858 182.154L217.858 182.154L217.858 182.153L217.858 182.153L217.859 182.153L217.859 182.153L217.859 182.153L217.859 182.153L217.86 182.153L217.86 182.153L217.86 182.153L217.86 182.153L217.861 182.153L217.861 182.153L217.861 182.153L217.861 182.152L217.861 182.152L217.862 182.152L217.862 182.152L217.862 182.152L217.862 182.152L217.863 182.152L217.863 182.152L217.863 182.152L217.863 182.152L217.864 182.152L217.864 182.152L217.864 182.152L217.864 182.152L217.865 182.151L217.865 182.151L217.865 182.151L217.865 182.151L217.866 182.151L217.866 182.151L217.866 182.151L217.866 182.151L217.867 182.151L217.867 182.151L217.867 182.151L217.867 182.151L217.867 182.151L217.868 182.15L217.868 182.15L217.868 182.15L217.868 182.15L217.869 182.15L217.869 182.15L217.869 182.15L217.869 182.15L217.87 182.15L217.87 182.15L217.87 182.15L217.87 182.15L217.871 182.15L217.871 182.149L217.871 182.149L217.871 182.149L217.872 182.149L217.872 182.149L217.872 182.149L217.872 182.149L217.873 182.149L217.873 182.149L217.873 182.149L217.873 182.149L217.873 182.149L217.874 182.149L217.874 182.148L217.874 182.148L217.874 182.148L217.875 182.148L217.875 182.148L217.875 182.148L217.875 182.148L217.876 182.148L217.876 182.148L217.876 182.148L217.876 182.148L217.877 182.148L217.877 182.148L217.877 182.148L217.877 182.147L217.878 182.147L217.878 182.147L217.878 182.147L217.878 182.147L217.879 182.147L217.879 182.147L217.879 182.147L217.879 182.147L217.879 182.147L217.88 182.147L217.88 182.147L217.88 182.147L217.88 182.146L217.881 182.146L217.881 182.146L217.881 182.146L217.881 182.146L217.882 182.146L217.882 182.146L217.882 182.146L217.882 182.146L217.883 182.146L217.883 182.146L217.883 182.146L217.883 182.146L217.884 182.145L217.884 182.145L217.884 182.145L217.884 182.145L217.885 182.145L217.885 182.145L217.885 182.145L217.885 182.145L217.886 182.145L217.886 182.145L217.886 182.145L217.886 182.145L217.887 182.145L217.887 182.144L217.887 182.144L217.887 182.144L217.888 182.144L217.888 182.144L217.888 182.144L217.888 182.144L217.888 182.144L217.889 182.144L217.889 182.144C222.69 180.633 225.292 175.43 223.737 170.503L223.736 170.503C222.975 168.092 221.341 166.096 219.136 164.884C216.93 163.671 214.411 163.392 212.05 164.097L212.05 164.097L212.044 164.099C207.168 165.565 204.504 170.804 206.075 175.777Z" stroke="white"/>
<path d="M219.233 140.903C219.213 141.014 219.212 141.128 219.228 141.238L218.969 141.342L219.554 141.875C220.569 142.8 221.159 143.658 221.756 145.096C223.165 148.491 221.795 152.399 219.014 153.584C218.843 152.751 218.591 151.93 218.26 151.132C215.931 145.521 210.315 142.714 205.161 144.776C200.007 146.838 197.987 152.699 200.316 158.309C200.647 159.108 201.051 159.869 201.522 160.582C198.689 161.642 194.929 159.785 193.52 156.39C192.923 154.952 192.735 153.934 192.803 152.576L192.803 152.575C192.82 152.214 192.648 151.865 192.351 151.655L192.349 151.654C190.538 150.387 190.343 148.784 190.379 147.945L190.379 147.945C190.406 147.296 190.578 146.708 190.81 146.254C191.05 145.786 191.324 145.516 191.512 145.425C191.763 145.303 191.944 145.083 192.024 144.824L192.024 144.824L192.026 144.818C192.103 144.558 192.073 144.279 191.951 144.041L191.95 144.039C191.895 143.931 191.844 143.82 191.796 143.704C190.914 141.58 191.857 139.234 193.824 138.448C194.033 138.364 194.251 138.299 194.475 138.253C194.905 138.166 195.209 137.812 195.26 137.395L195.26 137.392C195.467 135.592 196.319 133.969 197.22 132.71C198.014 131.602 198.828 130.801 199.219 130.441C199.756 130.429 200.907 130.442 202.262 130.69C203.801 130.971 205.565 131.547 206.998 132.696C207.328 132.961 207.801 133.012 208.175 132.773C208.367 132.653 208.569 132.55 208.778 132.466C210.744 131.679 213.088 132.71 213.97 134.834C214.016 134.945 214.058 135.064 214.099 135.185C214.182 135.437 214.359 135.657 214.598 135.789C214.843 135.925 215.132 135.956 215.399 135.87L215.24 135.396L215.397 135.87C215.595 135.807 215.983 135.812 216.489 135.983C216.979 136.148 217.521 136.45 218.002 136.895L218.002 136.895C218.624 137.471 219.625 138.755 219.233 140.901L219.233 140.903Z" stroke="white"/>
<path d="M200.462 138.572C199.929 137.288 200.504 135.887 201.67 135.421C202.836 134.954 204.244 135.562 204.777 136.846C205.31 138.131 204.735 139.531 203.569 139.998C202.403 140.464 200.995 139.857 200.462 138.572Z" stroke="white"/>
<path d="M195.89 143.673C195.573 142.909 195.919 142.096 196.588 141.828C197.258 141.561 198.084 141.905 198.401 142.668C198.718 143.432 198.372 144.245 197.703 144.513C197.033 144.781 196.207 144.436 195.89 143.673Z" stroke="white"/>
<path d="M209.093 138.29C208.776 137.527 209.122 136.713 209.791 136.446C210.46 136.178 211.287 136.522 211.604 137.286C211.921 138.049 211.575 138.862 210.905 139.13C210.236 139.398 209.409 139.054 209.093 138.29Z" stroke="white"/>
<path d="M214.106 140.943C213.898 140.442 214.129 139.924 214.548 139.756C214.967 139.589 215.502 139.801 215.71 140.302C215.917 140.802 215.686 141.322 215.268 141.489C214.849 141.656 214.314 141.443 214.106 140.943Z" stroke="white"/>
<path d="M195.064 148.705C194.856 148.205 195.088 147.685 195.506 147.518C195.925 147.35 196.46 147.563 196.668 148.063C196.875 148.564 196.644 149.083 196.226 149.251C195.807 149.418 195.272 149.205 195.064 148.705Z" stroke="white"/>
<path d="M303.906 140.531C302.228 140.711 300.757 141.56 299.76 142.917C299.612 143.118 299.62 143.392 299.765 143.589C299.791 143.624 299.822 143.657 299.856 143.686C301.161 144.796 302.805 145.311 304.484 145.127C306.158 144.947 307.631 144.1 308.627 142.743C308.654 142.708 308.672 142.669 308.69 142.631L317.188 136.366C317.436 136.184 317.486 135.829 317.299 135.577C317.113 135.324 316.759 135.267 316.511 135.45L308.107 141.645C306.878 140.765 305.405 140.369 303.904 140.529L303.906 140.531ZM304.347 144.005C303.167 144.132 302.007 143.837 301.025 143.17C301.815 142.314 302.868 141.783 304.046 141.654C305.225 141.527 306.386 141.822 307.367 142.489C306.58 143.343 305.524 143.876 304.347 144.002L304.347 144.005Z" fill="white"/>
<path d="M302.859 146.167C301.558 145.058 299.918 144.548 298.246 144.728C296.573 144.907 295.106 145.753 294.113 147.105C293.965 147.305 293.972 147.578 294.118 147.775C294.143 147.809 294.174 147.843 294.208 147.871C295.509 148.977 297.149 149.49 298.822 149.307C300.491 149.127 301.96 148.284 302.953 146.931C303.126 146.694 303.085 146.361 302.858 146.165L302.859 146.167ZM298.685 148.189C297.51 148.315 296.352 148.021 295.374 147.357C296.161 146.505 297.212 145.975 298.386 145.847C299.561 145.72 300.719 146.014 301.697 146.679C300.912 147.529 299.859 148.06 298.686 148.185L298.685 148.189Z" fill="white"/>
<path d="M297.21 150.343C295.909 149.233 294.269 148.724 292.596 148.904C290.924 149.083 289.457 149.929 288.463 151.281C288.315 151.481 288.323 151.754 288.469 151.95C288.494 151.985 288.525 152.018 288.559 152.047C289.86 153.153 291.5 153.666 293.173 153.483C294.842 153.303 296.31 152.459 297.304 151.107C297.477 150.87 297.436 150.537 297.208 150.341L297.21 150.343ZM293.036 152.365C291.86 152.491 290.703 152.197 289.725 151.533C290.512 150.68 291.562 150.151 292.737 150.022C293.912 149.896 295.07 150.19 296.048 150.854C295.263 151.705 294.21 152.236 293.037 152.361L293.036 152.365Z" fill="white"/>
<path d="M301.969 133.317L310.432 127.079C310.68 126.896 310.73 126.541 310.543 126.289C310.357 126.036 310.003 125.98 309.755 126.162L301.252 132.43C301.23 132.446 301.213 132.465 301.193 132.483C301.153 132.488 301.116 132.496 301.076 132.509C299.484 133.06 298.242 134.215 297.574 135.761C296.907 137.309 296.911 139.03 297.59 140.605C297.607 140.645 297.63 140.685 297.656 140.72C297.802 140.917 298.062 141.005 298.298 140.923C299.89 140.372 301.135 139.218 301.802 137.67C302.402 136.281 302.456 134.753 301.969 133.317ZM298.427 139.642C298.078 138.509 298.139 137.316 298.606 136.226C299.076 135.138 299.894 134.289 300.944 133.79C301.294 134.921 301.233 136.114 300.764 137.205C300.295 138.293 299.476 139.142 298.425 139.644L298.427 139.642Z" fill="white"/>
<path d="M296.114 137.031C295.994 136.756 295.686 136.619 295.408 136.714C293.821 137.263 292.583 138.414 291.916 139.954C291.252 141.496 291.256 143.21 291.933 144.78C291.95 144.82 291.973 144.859 291.999 144.894C292.144 145.091 292.403 145.179 292.638 145.096C294.226 144.547 295.468 143.398 296.132 141.855C296.797 140.313 296.791 138.601 296.114 137.031ZM292.769 143.819C292.421 142.69 292.482 141.502 292.948 140.416C293.416 139.332 294.232 138.486 295.278 137.988C295.628 139.115 295.567 140.304 295.099 141.391C294.631 142.475 293.815 143.321 292.767 143.82L292.769 143.819Z" fill="white"/>
<path d="M290.465 141.203C290.345 140.928 290.038 140.791 289.76 140.886C288.172 141.435 286.934 142.585 286.268 144.126C285.603 145.668 285.607 147.382 286.284 148.951C286.301 148.992 286.325 149.031 286.35 149.066C286.495 149.263 286.755 149.35 286.99 149.268C288.577 148.719 289.819 147.57 290.484 146.027C291.148 144.485 291.142 142.772 290.465 141.203ZM287.12 147.991C286.772 146.862 286.833 145.674 287.299 144.588C287.767 143.504 288.584 142.658 289.63 142.16C289.979 143.287 289.919 144.476 289.452 145.562C288.985 146.646 288.168 147.492 287.12 147.991Z" fill="white"/>
<path d="M310.016 137.362C310.203 137.615 310.557 137.671 310.806 137.488L315.524 134.008C315.772 133.825 315.822 133.47 315.635 133.217C315.449 132.964 315.094 132.907 314.846 133.09L310.128 136.57C309.88 136.753 309.829 137.109 310.016 137.362Z" fill="white"/>
<path d="M306.656 132.733C306.843 132.986 307.198 133.042 307.446 132.859L312.164 129.379C312.412 129.196 312.462 128.841 312.275 128.588C312.089 128.335 311.734 128.278 311.486 128.461L306.768 131.941C306.52 132.124 306.469 132.48 306.656 132.733Z" fill="white"/>
<path d="M307.903 138.277C309.185 137.329 310.011 135.943 310.245 134.357L313.843 131.702C314.092 131.519 314.142 131.163 313.955 130.91C313.768 130.657 313.414 130.6 313.165 130.783L309.573 133.434C307.979 133.191 306.405 133.576 305.118 134.529C303.836 135.478 303.01 136.863 302.776 138.449L280.061 155.21C279.812 155.393 279.762 155.749 279.949 156.002C280.136 156.255 280.491 156.312 280.739 156.129L303.446 139.374C305.04 139.617 306.616 139.23 307.903 138.277ZM305.798 135.446C306.75 134.744 307.893 134.418 309.069 134.512C308.815 135.658 308.174 136.655 307.225 137.358C306.273 138.061 305.13 138.387 303.956 138.294C304.208 137.147 304.849 136.149 305.798 135.446Z" fill="white"/>
<path d="M108.69 59.6948C108.673 57.8186 107.878 56.501 107.037 55.1075L106.958 54.9767C106.393 54.0397 105.566 53.1034 104.692 52.1126C102.399 49.5169 99.5619 46.3046 99.4369 40.8572C99.4488 40.8513 99.4628 40.8484 99.4747 40.8425C99.5126 40.8277 99.5478 40.8125 99.5861 40.7952C100.42 40.4199 101.016 39.66 101.181 38.7589C101.456 37.2501 100.455 35.8002 98.95 35.525C97.445 35.2497 95.9937 36.2511 95.7182 37.7599C95.5431 38.7185 95.8813 39.6953 96.6101 40.3402C94.5685 45.3886 90.7786 47.3915 87.7165 49.0078C86.5489 49.6252 85.4474 50.2061 84.5851 50.8848L84.4651 50.9792C83.186 51.985 81.976 52.9385 81.2942 54.687C80.2583 57.3532 81.2186 60.4631 83.795 63.0023C83.5045 63.2605 83.2828 63.6449 83.1991 64.1033C83.0427 64.9599 83.4173 65.7376 84.067 65.9863L81.894 77.8861C81.8346 78.2109 82.0507 78.5238 82.3752 78.5832L99.2308 81.666C99.5554 81.7254 99.868 81.5091 99.9273 81.1843L102.1 69.2845C102.796 69.2818 103.422 68.6844 103.578 67.8304C103.661 67.372 103.592 66.9345 103.409 66.5897C106.716 65.1292 108.713 62.5602 108.687 59.697L108.69 59.6948ZM96.8959 37.9753C97.0524 37.1187 97.8763 36.5467 98.7348 36.7037C99.5932 36.8607 100.16 37.6843 100.003 38.5435C99.9094 39.0543 99.5707 39.4877 99.0962 39.7013C99.0786 39.7089 99.0609 39.7165 99.0319 39.7275C98.9707 39.7515 98.9069 39.775 98.8445 39.7907C98.8077 39.8001 98.7712 39.807 98.7348 39.8139C98.7296 39.8129 98.7234 39.8172 98.7182 39.8163C98.3549 39.8798 97.9676 39.8089 97.6503 39.621C97.6451 39.62 97.6382 39.6133 97.6334 39.6097C97.6165 39.5985 97.5992 39.5899 97.587 39.5823L97.5459 39.5558C97.5147 39.5339 97.4836 39.512 97.4576 39.491C97.0049 39.1267 96.7917 38.5463 96.8959 37.9753ZM97.6636 40.9254C97.8509 40.9813 98.0472 41.0172 98.2421 41.0312C98.2934 42.6755 98.5674 44.1224 98.9934 45.4184L96.8626 46.9559L95.4125 44.7661C96.2658 43.7068 97.0366 42.4484 97.6658 40.9285L97.6636 40.9254ZM94.5934 45.6964L96.209 48.1357C96.2979 48.271 96.4404 48.3648 96.6 48.394C96.7597 48.4232 96.9261 48.3859 97.057 48.2908L99.4277 46.5805C100.552 49.2359 102.284 51.1985 103.793 52.9063C103.894 53.0195 103.992 53.1323 104.091 53.2424L102.036 54.7233L99.7948 51.3387C99.706 51.2033 99.5635 51.1096 99.4038 51.0804C99.2442 51.0512 99.0778 51.0884 98.9468 51.1836L95.6546 53.5563L93.4138 50.1716C93.2334 49.9004 92.8277 49.8262 92.5658 50.0165L89.2736 52.3892L87.8743 50.2764C88.0057 50.2084 88.1376 50.1378 88.2726 50.065C90.2871 49.0015 92.6011 47.779 94.5913 45.6933L94.5934 45.6964ZM82.4109 55.1186C82.972 53.6756 84.0079 52.8608 85.2051 51.9185L85.3251 51.8241C85.7547 51.4858 86.2614 51.1697 86.8224 50.8528L88.6221 53.5721C88.8025 53.8433 89.2082 53.9175 89.4701 53.7272L92.7597 51.354L95.0006 54.7387C95.1809 55.0098 95.584 55.0836 95.8486 54.8938L99.1408 52.521L101.382 55.9057C101.47 56.0411 101.613 56.1348 101.773 56.164C101.932 56.1932 102.099 56.156 102.23 56.0608L104.874 54.1543C105.286 54.652 105.649 55.1243 105.931 55.5954L106.01 55.7263C106.796 57.0314 107.478 58.1576 107.493 59.7059C107.501 60.5221 107.3 61.311 106.919 62.048L104.971 59.1066C104.79 58.8354 104.387 58.7616 104.123 58.9515L100.83 61.3242L98.5895 57.9395C98.5006 57.8041 98.3581 57.7104 98.1985 57.6812C98.0388 57.652 97.8724 57.6892 97.7415 57.7844L94.4493 60.1571L92.2084 56.7724C92.028 56.5012 91.6224 56.427 91.3604 56.6173L88.0708 58.9905L85.83 55.6059C85.7411 55.4705 85.5986 55.3768 85.439 55.3476C85.2793 55.3184 85.113 55.3556 84.982 55.4508L82.1199 57.5123C82.0242 56.6882 82.1156 55.8766 82.4109 55.1186ZM102.277 67.0567C102.319 67.0643 102.466 67.2671 102.403 67.6103C102.341 67.9534 102.132 68.0911 102.09 68.0835L84.504 64.8671C84.4621 64.8594 84.3152 64.6566 84.3778 64.3135C84.4405 63.9704 84.6496 63.8327 84.6915 63.8403L102.277 67.0567ZM98.8603 80.3774L83.1825 77.5101L85.2436 66.2232L100.921 69.0905L98.8603 80.3774ZM102.131 65.8119L85.2731 62.7286C83.8592 61.5253 82.8897 60.1543 82.4191 58.777L85.1785 56.7887L87.4194 60.1734C87.5998 60.4446 88.0054 60.5188 88.2674 60.3285L91.557 57.9553L93.7978 61.34C93.9782 61.6111 94.3813 61.6849 94.6458 61.4951L97.938 59.1223L100.179 62.507C100.268 62.6424 100.41 62.7361 100.57 62.7653C100.73 62.7945 100.896 62.7573 101.027 62.6621L104.319 60.2894L106.197 63.126C105.268 64.2471 103.877 65.1864 102.131 65.8119Z" fill="white"/>
</g>
<defs>
<clipPath id="clip0_79_42053">
<rect width="320" height="319" fill="white"/>
</clipPath>
</defs>
</svg>
