<svg width="447" height="181" viewBox="0 0 447 181" fill="none"
    xmlns="http://www.w3.org/2000/svg">
    <path d="M73.3845 20.6519C46.9417 34.6297 50.8163 71.3788 64.3674 101.749C68.8866 113.129 77.11 137.414 80.6568 148.135C86.152 164.743 110.29 164.509 118.135 153.497C128.012 139.633 111.725 130.879 106.654 109.684C104.725 101.619 106.522 89.4782 110.29 67.5346C111.66 59.5552 106.654 3.06514 73.3845 20.6519Z" stroke="white" stroke-width="2"/>
    <circle cx="90.1797" cy="90.125" r="89.125" stroke="#C9C8D3" stroke-width="2"/>
    <ellipse cx="131.469" cy="43.1494" rx="15" ry="15" fill="#F4F3FE"/>
    <line x1="126.835" y1="35.4506" x2="138.346" y2="50.4506" stroke="#000000" stroke-width="5"/>
    <line y1="-2.5" x2="18.9081" y2="-2.5" transform="matrix(-0.608819 0.793309 0.793309 0.608819 137.945 36.9727)" stroke="#000000" stroke-width="5"/>
    <path d="M241.279 98.5487C241.865 99.1345 241.865 100.084 241.279 100.67L231.733 110.216C231.148 110.802 230.198 110.802 229.612 110.216C229.026 109.63 229.026 108.68 229.612 108.095L238.097 99.6094L229.612 91.1241C229.026 90.5383 229.026 89.5886 229.612 89.0028C230.198 88.417 231.148 88.417 231.733 89.0028L241.279 98.5487ZM206.949 98.1094L240.219 98.1094L240.219 101.109L206.949 101.109L206.949 98.1094Z" fill="currentColor"/>
    <path d="M343.776 20.4155C306.523 42.2153 309.117 64.8433 324.095 97.4985C330.298 111.022 338.254 131.408 342.136 142.952C350.644 168.256 373.137 164.207 379.623 153.026C390.645 134.026 380.316 134.986 370.251 112.728C366.568 104.582 374.423 87.6582 377.046 74.069C378.715 65.4203 378.451 0.123794 343.776 20.4155Z" stroke="white" stroke-width="2"/>
    <circle cx="356.637" cy="90.125" r="89.125" stroke="#C9C8D3" stroke-width="2"/>
    <g filter="url(#filter0_d_808_206)">
        <path d="M412 43.1494C412 51.1575 405.508 57.6494 397.5 57.6494C389.492 57.6494 383 51.1575 383 43.1494C383 35.1413 389.492 28.6494 397.5 28.6494C405.508 28.6494 412 35.1413 412 43.1494Z" stroke="#FC1447" shape-rendering="crispEdges"/>
    </g>
    <ellipse cx="397.5" cy="43.1494" rx="15" ry="15" fill="#C2E37D"/>
    <path d="M389.559 41.7334L397.5 48.6638L406.103 36.9727" stroke="white" stroke-width="5"/>
    <path d="M368 117L364 109L363.5 104.5L364 99L365 94L367 88L370.5 76.5L371 73V69.5L370 61.5L368 53L364.5 42.5L362 32.5L361 29.5L359 28L356.5 27L353.5 27.5L351 28.5L349.5 29.5L348.5 32L349 34.5L350 38.5L351.5 43.5L353 48.5L352.5 49.5L351 50L350.5 49.5L349 42L348 39L347 37.5L345.5 36.5H343.5L342 37.5L341 39.5V41L342 45L343 48.5L344 51L343.5 52L342.5 52.5H342L341.5 51.5L339.5 44L338.5 42.5L337.5 42H336L334.5 43L333 44.5V46L335.5 55V56L334.5 56.5L334 56L332 50L330.5 49L328 49.5L326.5 51L326 52.5L327.5 57.5L328 60.5L327.5 62L326.5 62.5L326 62L325 58L324.5 56L323.5 55.5L322 56L321 56.5L320 58.5L319.5 61.5L320.5 65.5L321.5 70.5L321 74L321.5 78L323 82.5L325.5 89L328 95L331.5 103L335 111.5L338 119.5L341.5 127L344 133.5L347.5 141.5L350 145.5L352.5 148L355.5 149.5L358.5 150H362L366 148.5L369.5 146.5L373 144L375 141L376.5 138L377 133.5L376 129L373.5 124.5L371 121L368 117Z" fill="currentColor"/>
    <path d="M105.5 117L101.5 109L101 104.5L101.5 99L102.5 94L104.5 88L108 76.5L108.5 73V69.5L107.5 61.5L105.5 53L102 42.5L99.5 32.5L98.5 29.5L96.5 28L94 27L91 27.5L88.5 28.5L87 29.5L86 32L86.5 34.5L87.5 38.5L89 43.5L90.5 48.5L90 49.5L88.5 50L88 49.5L86.5 42L85.5 39L84.5 37.5L83 36.5H81L79.5 37.5L78.5 39.5V41L79.5 45L80.5 48.5L81.5 51L81 52L80 52.5H79.5L79 51.5L77 44L76 42.5L75 42H73.5L72 43L70.5 44.5V46L73 55V56L72 56.5L71.5 56L69.5 50L68 49L65.5 49.5L64 51L63.5 52.5L65 57.5L65.5 60.5L65 62L64 62.5L63.5 62L62.5 58L62 56L61 55.5L59.5 56L58.5 56.5L57.5 58.5L57 61.5L58 65.5L59 70.5L58.5 74L59 78L60.5 82.5L63 89L65.5 95L69 103L72.5 111.5L75.5 119.5L79 127L81.5 133.5L85 141.5L87.5 145.5L90 148L93 149.5L96 150H99.5L103.5 148.5L107 146.5L110.5 144L112.5 141L114 138L114.5 133.5L113.5 129L111 124.5L108.5 121L105.5 117Z" fill="currentColor"/>
    <defs>
        <filter id="filter0_d_808_206" x="378.5" y="28.1494" width="38" height="38" filterUnits="userSpaceOnUse" color-interpolation-filters="sRGB">
            <feFlood flood-opacity="0" result="BackgroundImageFix"/>
            <feColorMatrix in="SourceAlpha" type="matrix" values="0 0 0 0 0 0 0 0 0 0 0 0 0 0 0 0 0 0 127 0" result="hardAlpha"/>
            <feOffset dy="4"/>
            <feGaussianBlur stdDeviation="2"/>
            <feComposite in2="hardAlpha" operator="out"/>
            <feColorMatrix type="matrix" values="0 0 0 0 0 0 0 0 0 0 0 0 0 0 0 0 0 0 0.25 0"/>
            <feBlend mode="normal" in2="BackgroundImageFix" result="effect1_dropShadow_808_206"/>
            <feBlend mode="normal" in="SourceGraphic" in2="effect1_dropShadow_808_206" result="shape"/>
        </filter>
    </defs>
</svg>
