<svg width="444" height="180" viewBox="0 0 444 180" fill="none"
    xmlns="http://www.w3.org/2000/svg">
    <path d="M337.473 20.4164C300.22 42.2163 302.814 64.8443 317.792 97.4995C323.995 111.023 331.952 131.409 335.833 142.953C344.341 168.257 366.834 164.208 373.32 153.027C384.342 134.027 374.013 134.987 363.948 112.729C360.265 104.583 368.12 87.6591 370.743 74.07C372.412 65.4213 372.149 0.124774 337.473 20.4164Z" stroke="white" stroke-width="2"/>
    <path d="M362.5 117L358.5 109L358 104.5L358.5 99L359.5 94L361.5 88L365 76.5L365.5 73V69.5L364.5 61.5L362.5 53L359 42.5L356.5 32.5L355.5 29.5L353.5 28L351 27L348 27.5L345.5 28.5L344 29.5L343 32L343.5 34.5L344.5 38.5L346 43.5L347.5 48.5L347 49.5L345.5 50L345 49.5L343.5 42L342.5 39L341.5 37.5L340 36.5H338L336.5 37.5L335.5 39.5V41L336.5 45L337.5 48.5L338.5 51L338 52L337 52.5H336.5L336 51.5L334 44L333 42.5L332 42H330.5L329 43L327.5 44.5V46L330 55V56L329 56.5L328.5 56L326.5 50L325 49L322.5 49.5L321 51L320.5 52.5L322 57.5L322.5 60.5L322 62L321 62.5L320.5 62L319.5 58L319 56L318 55.5L316.5 56L315.5 56.5L314.5 58.5L314 61.5L315 65.5L316 70.5L315.5 74L316 78L317.5 82.5L320 89L322.5 95L326 103L329.5 111.5L332.5 119.5L336 127L338.5 133.5L342 141.5L344.5 145.5L347 148L350 149.5L353 150H356.5L360.5 148.5L364 146.5L367.5 144L369.5 141L371 138L371.5 133.5L370.5 129L368 124.5L365.5 121L362.5 117Z" fill="currentColor"/>
    <circle cx="354" cy="90" r="89" stroke="#C9C8D3" stroke-width="2"/>
    <path d="M404.5 45.9549V46.8749C404.499 49.0313 403.801 51.1295 402.509 52.8567C401.218 54.5838 399.403 55.8473 397.335 56.4588C395.267 57.0702 393.057 56.9968 391.034 56.2494C389.012 55.5021 387.285 54.121 386.111 52.3119C384.937 50.5029 384.38 48.3629 384.522 46.2112C384.664 44.0594 385.497 42.0112 386.898 40.3719C388.299 38.7327 390.193 37.5902 392.296 37.115C394.4 36.6398 396.6 36.8572 398.57 37.7349" stroke="currentColor" stroke-width="2" stroke-linecap="round" stroke-linejoin="round"/>
    <path d="M404.5 38.875L394.5 48.885L391.5 45.885" stroke="currentColor" stroke-width="2" stroke-linecap="round" stroke-linejoin="round"/>
    <path d="M215 90H229" stroke="currentColor" stroke-width="2" stroke-linecap="round" stroke-linejoin="round"/>
    <path d="M222 83L229 90L222 97" stroke="currentColor" stroke-width="2" stroke-linecap="round" stroke-linejoin="round"/>
    <path d="M105.5 117L101.5 109L101 104.5L101.5 99L102.5 94L104.5 88L108 76.5L108.5 73V69.5L107.5 61.5L105.5 53L102 42.5L99.5 32.5L98.5 29.5L96.5 28L94 27L91 27.5L88.5 28.5L87 29.5L86 32L86.5 34.5L87.5 38.5L89 43.5L90.5 48.5L90 49.5L88.5 50L88 49.5L86.5 42L85.5 39L84.5 37.5L83 36.5H81L79.5 37.5L78.5 39.5V41L79.5 45L80.5 48.5L81.5 51L81 52L80 52.5H79.5L79 51.5L77 44L76 42.5L75 42H73.5L72 43L70.5 44.5V46L73 55V56L72 56.5L71.5 56L69.5 50L68 49L65.5 49.5L64 51L63.5 52.5L65 57.5L65.5 60.5L65 62L64 62.5L63.5 62L62.5 58L62 56L61 55.5L59.5 56L58.5 56.5L57.5 58.5L57 61.5L58 65.5L59 70.5L58.5 74L59 78L60.5 82.5L63 89L65.5 95L69 103L72.5 111.5L75.5 119.5L79 127L81.5 133.5L85 141.5L87.5 145.5L90 148L93 149.5L96 150H99.5L103.5 148.5L107 146.5L110.5 144L112.5 141L114 138L114.5 133.5L113.5 129L111 124.5L108.5 121L105.5 117Z" fill="currentColor"/>
    <path d="M73.3279 20.6528C46.8851 34.6307 50.7596 71.3797 64.3107 101.75C68.8299 113.13 77.0534 137.415 80.6002 148.135C86.0953 164.744 110.233 164.51 118.078 153.498C127.955 139.634 111.669 130.88 106.598 109.685C104.668 101.62 106.465 89.4792 110.233 67.5356C111.603 59.5562 106.598 3.06611 73.3279 20.6528Z" stroke="white" stroke-width="2"/>
    <circle cx="90" cy="90" r="89" stroke="#C9C8D3" stroke-width="2"/>
    <path d="M135 58C140.523 58 145 53.5228 145 48C145 42.4772 140.523 38 135 38C129.477 38 125 42.4772 125 48C125 53.5228 129.477 58 135 58Z" stroke="currentColor" stroke-width="1.33333" stroke-linecap="round" stroke-linejoin="round"/>
    <path d="M138 45L132 51" stroke="currentColor" stroke-width="1.33333" stroke-linecap="round" stroke-linejoin="round"/>
    <path d="M132 45L138 51" stroke="currentColor" stroke-width="1.33333" stroke-linecap="round" stroke-linejoin="round"/>
</svg>
