<svg width="709" height="182" viewBox="0 0 709 182" fill="none"
    xmlns="http://www.w3.org/2000/svg">
    <path d="M110.11 55.0854C108.605 54.4492 107.28 53.4542 106.249 52.1873C105.218 50.9204 104.512 49.4202 104.195 47.8178C103.878 46.2155 103.958 44.5598 104.428 42.9955C104.898 41.4313 105.745 40.006 106.893 38.8444C108.042 37.6828 109.457 36.8202 111.016 36.332C112.575 35.8439 114.229 35.745 115.835 36.044C117.441 36.343 118.949 37.0309 120.228 38.0474C121.506 39.064 122.517 40.3783 123.17 41.8754" stroke="currentColor" stroke-width="2" stroke-linecap="round" stroke-linejoin="round"/>
    <path d="M114 55.875C115.313 55.875 116.614 55.6163 117.827 55.1138C119.04 54.6112 120.142 53.8747 121.071 52.9461C122 52.0175 122.736 50.9151 123.239 49.7018C123.741 48.4886 124 47.1882 124 45.875L114 45.875L114 55.875Z" stroke="currentColor" stroke-width="2" stroke-linecap="round" stroke-linejoin="round"/>
    <path fill-rule="evenodd" clip-rule="evenodd" d="M76.5695 18.9997C70.823 19.8446 69.2174 23.936 71 29.5C72.3602 33.744 75 41.5 74.252 42.8496C74.3797 43.8922 73.6302 45.2338 73.3478 45.2338C72.889 45.2338 71.1937 42.3488 69.5 36C68.3531 31.7021 67.7202 31.158 66.5 30.5C64.8309 29.6003 63.1281 29.7569 61.6997 31.4672C59.5827 34.0024 61.252 34 63.5 43C63.9872 44.5578 63.3267 46.7768 63.3267 47.2724C63.3267 48.967 61.8952 47.7004 61.252 45.3496C58.5 38.5 58.1198 36.8295 56.752 36.3496C55.0186 35.7411 53.0894 36.741 51.8526 38.8888C50.989 40.3884 51.7204 40.8496 53.2204 44.8496C54.5 47.5 54.1394 49.9323 54.252 50.8496C54.4407 52.3826 53.8599 52.5495 53.2204 51.7475C52.8373 51.2672 52.1472 50.6972 51.252 48.8496C49.5 45.2338 49.5218 44.5432 47.252 44.8496C45.2609 45.1189 44.6646 45.7346 43.6496 47.7127C43.0579 48.865 43.8828 49.2121 45 53.5C46.1582 57.9451 45.4667 59.8758 44.4527 58.7831C44.2257 58.5386 42.9129 57.961 42.5 56.5C42.0871 55.0389 41.7594 52.8123 41.252 52.3496C40.4432 51.6124 40.5304 51.4225 39.3759 51.982C35.9905 53.6222 34.8908 57.8815 36.4426 63.3421C37.188 65.9644 37.4756 68.3752 37.5238 72.3962C37.5933 78.2423 37.8142 79.1668 40.9419 86.6922C41.8679 88.92 42.9028 91.4933 43.2414 92.4106C44.6002 96.0909 47.5099 103.487 50.0842 109.804C51.5793 113.474 54.2406 120.006 55.9982 124.319C57.7557 128.633 59.9105 133.727 60.7869 135.639C61.6638 137.551 62.3808 139.245 62.3808 139.403C62.3808 140.592 69.1025 154.122 71.2266 157.209C73.4244 160.402 76.8373 162.328 81.0628 162.757C83.3732 162.992 84.5721 162.818 87.5149 161.821C97.1657 158.552 103.045 150.875 102.5 142.254C102.254 138.366 99.973 133.627 95.3665 127.436C88.4462 118.134 86.7761 113.006 87.8479 104.352C88.4022 99.8784 89.6266 95.4866 94.4342 80.7355C95.9775 76.0007 96.1431 74.9866 96.1441 70.2518C96.145 63.9744 95.2275 58.9951 92.324 49.5226C91.1591 45.7222 89.831 41.219 89.3717 39.5154C85.3662 24.6433 84.8379 22.9539 83.7317 21.4795C82.038 19.2217 79.9583 18.5017 76.5695 18.9997Z" stroke="white" stroke-width="2"/>
    <circle cx="90.125" cy="91" r="89.125" stroke="#C9C8D3" stroke-width="2"/>
    <path d="M215.25 91H229.25" stroke="currentColor" stroke-width="2" stroke-linecap="round" stroke-linejoin="round"/>
    <path d="M222.25 84L229.25 91L222.25 98" stroke="currentColor" stroke-width="2" stroke-linecap="round" stroke-linejoin="round"/>
    <g clip-path="url(#clip0_58_41926)">
        <path d="M380.814 42.7858C380.718 41.4283 380.909 40.0652 381.375 38.7821C381.842 37.4989 382.573 36.3235 383.524 35.3296C384.474 34.3356 385.623 33.5446 386.899 33.0063C388.175 32.4679 389.55 32.1938 390.937 32.2012C392.325 32.2085 393.695 32.4972 394.961 33.049C396.228 33.6008 397.364 34.4039 398.298 35.4078C399.232 36.4117 399.944 37.5948 400.389 38.8828" stroke="currentColor" stroke-width="2" stroke-linecap="round"/>
        <path d="M391.152 43.5667L400.903 43.6934C400.684 45.7199 399.88 47.6401 398.587 49.2035C397.083 51.0216 395.012 52.2431 392.733 52.6646C390.454 53.0859 388.102 52.6825 386.08 51.5207C384.338 50.5197 382.932 49.0082 382.038 47.1859L391.152 43.5667Z" stroke="currentColor" stroke-width="2" stroke-linecap="round" stroke-linejoin="round"/>
    </g>
    <circle cx="354.375" cy="91" r="89.125" stroke="#C9C8D3" stroke-width="2"/>
    <path fill-rule="evenodd" clip-rule="evenodd" d="M350.57 19.9997C344.823 20.8446 343.217 24.936 345 30.5C346.36 34.744 349 42.5 348.252 43.8496C348.38 44.8922 347.63 46.2338 347.348 46.2338C346.889 46.2338 345.194 43.3488 343.5 37C342.353 32.7021 341.72 32.158 340.5 31.5C338.831 30.6003 337.128 30.7569 335.7 32.4672C333.583 35.0024 335.252 35 337.5 44C337.987 45.5578 337.327 47.7768 337.327 48.2724C337.327 49.967 335.895 48.7004 335.252 46.3496C332.5 39.5 332.12 37.8295 330.752 37.3496C329.019 36.7411 327.089 37.741 325.853 39.8888C324.989 41.3884 325.72 41.8496 327.22 45.8496C328.5 48.5 328.139 50.9323 328.252 51.8496C328.441 53.3826 327.86 53.5495 327.22 52.7475C326.837 52.2672 326.147 51.6972 325.252 49.8496C323.5 46.2338 323.522 45.5432 321.252 45.8496C319.261 46.1189 318.665 46.7346 317.65 48.7127C317.058 49.865 317.883 50.2121 319 54.5C320.158 58.9451 319.467 60.8758 318.453 59.7831C318.226 59.5386 316.913 58.961 316.5 57.5C316.087 56.0389 315.759 53.8123 315.252 53.3496C314.443 52.6124 314.53 52.4225 313.376 52.982C309.99 54.6222 308.891 58.8815 310.443 64.3421C311.188 66.9644 311.476 69.3752 311.524 73.3962C311.593 79.2423 311.814 80.1668 314.942 87.6922C315.868 89.92 316.903 92.4933 317.241 93.4106C318.6 97.0909 321.51 104.487 324.084 110.804C325.579 114.474 328.241 121.006 329.998 125.319C331.756 129.633 333.91 134.727 334.787 136.639C335.664 138.551 336.381 140.245 336.381 140.403C336.381 141.592 343.102 155.122 345.227 158.209C347.424 161.402 350.837 163.328 355.063 163.757C357.373 163.992 358.572 163.818 361.515 162.821C371.166 159.552 377.045 151.875 376.5 143.254C376.254 139.366 373.973 134.627 369.366 128.436C362.446 119.134 360.776 114.006 361.848 105.352C362.402 100.878 363.627 96.4866 368.434 81.7355C369.978 77.0007 370.143 75.9866 370.144 71.2518C370.145 64.9744 369.227 59.9951 366.324 50.5226C365.159 46.7222 363.831 42.219 363.372 40.5154C359.366 25.6433 358.838 23.9539 357.732 22.4795C356.038 20.2217 353.958 19.5017 350.57 19.9997Z" fill="currentColor" stroke="white" stroke-width="2"/>
    <path d="M479.5 91H493.5" stroke="currentColor" stroke-width="2" stroke-linecap="round" stroke-linejoin="round"/>
    <path d="M486.5 84L493.5 91L486.5 98" stroke="currentColor" stroke-width="2" stroke-linecap="round" stroke-linejoin="round"/>
    <path fill-rule="evenodd" clip-rule="evenodd" d="M616.57 18.9997C610.823 19.8446 609.217 23.936 611 29.5C612.36 33.744 615 41.5 614.252 42.8496C614.38 43.8922 613.63 45.2338 613.348 45.2338C612.889 45.2338 611.194 42.3488 609.5 36C608.353 31.7021 607.72 31.158 606.5 30.5C604.831 29.6003 603.128 29.7569 601.7 31.4672C599.583 34.0024 601.252 34 603.5 43C603.987 44.5578 603.327 46.7768 603.327 47.2724C603.327 48.967 601.895 47.7004 601.252 45.3496C598.5 38.5 598.12 36.8295 596.752 36.3496C595.019 35.7411 593.089 36.741 591.853 38.8888C590.989 40.3884 591.72 40.8496 593.22 44.8496C594.5 47.5 594.139 49.9323 594.252 50.8496C594.441 52.3826 593.86 52.5495 593.22 51.7475C592.837 51.2672 592.147 50.6972 591.252 48.8496C589.5 45.2338 589.522 44.5432 587.252 44.8496C585.261 45.1189 584.665 45.7346 583.65 47.7127C583.058 48.865 583.883 49.2121 585 53.5C586.158 57.9451 585.467 59.8758 584.453 58.7831C584.226 58.5386 582.913 57.961 582.5 56.5C582.087 55.0389 581.759 52.8123 581.252 52.3496C580.443 51.6124 580.53 51.4225 579.376 51.982C575.99 53.6222 574.891 57.8815 576.443 63.3421C577.188 65.9644 577.476 68.3752 577.524 72.3962C577.593 78.2423 577.814 79.1668 580.942 86.6922C581.868 88.92 582.903 91.4933 583.241 92.4106C584.6 96.0909 587.51 103.487 590.084 109.804C591.579 113.474 594.241 120.006 595.998 124.319C597.756 128.633 599.91 133.727 600.787 135.639C601.664 137.551 602.381 139.245 602.381 139.403C602.381 140.592 609.102 154.122 611.227 157.209C613.424 160.402 616.837 162.328 621.063 162.757C623.373 162.992 624.572 162.818 627.515 161.821C637.166 158.552 643.045 150.875 642.5 142.254C642.254 138.366 639.973 133.627 635.366 127.436C628.446 118.134 626.776 113.006 627.848 104.352C628.402 99.8784 629.627 95.4866 634.434 80.7355C635.978 76.0007 636.143 74.9866 636.144 70.2518C636.145 63.9744 635.227 58.9951 632.324 49.5226C631.159 45.7222 629.831 41.219 629.372 39.5154C625.366 24.6433 624.838 22.9539 623.732 21.4795C622.038 19.2217 619.958 18.5017 616.57 18.9997Z" fill="currentColor" stroke="white" stroke-width="2"/>
    <path d="M664.5 41.9549V42.8749C664.499 45.0313 663.801 47.1295 662.509 48.8567C661.218 50.5838 659.403 51.8473 657.335 52.4588C655.267 53.0702 653.057 52.9968 651.034 52.2494C649.012 51.5021 647.285 50.121 646.111 48.3119C644.937 46.5029 644.38 44.3629 644.522 42.2112C644.664 40.0594 645.497 38.0112 646.898 36.3719C648.299 34.7327 650.193 33.5902 652.296 33.115C654.4 32.6398 656.6 32.8572 658.57 33.7349" stroke="currentColor" stroke-width="2" stroke-linecap="round" stroke-linejoin="round"/>
    <path d="M664.5 34.875L654.5 44.885L651.5 41.885" stroke="currentColor" stroke-width="2" stroke-linecap="round" stroke-linejoin="round"/>
    <circle cx="618.625" cy="91" r="89.125" stroke="#C9C8D3" stroke-width="2"/>
    <defs>
        <clipPath id="clip0_58_41926">
            <rect width="24" height="24" fill="white" transform="translate(382.515 28.1777) rotate(15)"/>
        </clipPath>
    </defs>
</svg>
