<svg width="727" height="181" viewBox="0 0 727 181" fill="none"
    xmlns="http://www.w3.org/2000/svg">
    <path d="M520.998 88.9393C521.584 89.5251 521.584 90.4749 520.998 91.0607L511.452 100.607C510.866 101.192 509.917 101.192 509.331 100.607C508.745 100.021 508.745 99.0711 509.331 98.4853L517.816 90L509.331 81.5147C508.745 80.9289 508.745 79.9792 509.331 79.3934C509.917 78.8076 510.866 78.8076 511.452 79.3934L520.998 88.9393ZM480 88.5L519.937 88.5L519.938 91.5L480 91.5L480 88.5Z" fill="currentColor"/>
    <g filter="url(#filter0_d_809_238)">
        <circle cx="111" cy="33" r="14" stroke="white" stroke-width="2" shape-rendering="crispEdges"/>
    </g>
    <path d="M111 48C113.967 48 116.867 47.1203 119.334 45.472C121.8 43.8238 123.723 41.4811 124.858 38.7403C125.994 35.9994 126.291 32.9834 125.712 30.0736C125.133 27.1639 123.704 24.4912 121.607 22.3934L111 33L111 48Z" fill="white"/>
    <circle cx="90.125" cy="90.125" r="89.125" stroke="#C9C8D3" stroke-width="2"/>
    <path fill-rule="evenodd" clip-rule="evenodd" d="M76.8176 18.1501C71.0711 18.995 68.4093 23.299 70.1919 28.863C71.5521 33.107 73.6696 41.0351 73.8607 42.5972C73.9884 43.6398 73.8782 44.3842 73.5958 44.3842C73.137 44.3842 72.1386 41.4406 70.4449 35.0918C69.298 30.7939 68.8217 29.7965 67.6015 29.1385C65.9324 28.2388 63.3761 28.9073 61.9477 30.6176C59.8307 33.1528 59.8605 33.6403 62.6893 42.6896C63.1765 44.2474 63.5747 45.9272 63.5747 46.4228C63.5747 48.1174 62.4183 46.9375 61.7751 44.5867C59.6775 36.9183 59.1142 35.5936 57.7464 35.1137C56.013 34.5052 53.3374 35.8914 52.1006 38.0392C51.237 39.5388 51.2417 39.6098 52.4904 43.9958C53.1851 46.4371 53.8463 49.1853 53.9589 50.1026C54.1476 51.6356 54.1079 51.6999 53.4684 50.8979C53.0853 50.4176 52.5154 48.9165 52.2014 47.5622C51.4082 44.1407 50.5574 43.2753 48.2876 43.5817C46.2965 43.851 44.9126 44.885 43.8976 46.8631C43.3059 48.0154 43.3688 48.6639 44.486 52.9518C45.6442 57.3969 45.7147 59.0262 44.7007 57.9335C44.4737 57.689 43.9501 56.2937 43.5372 54.8327C43.1243 53.3716 42.3713 51.7981 41.8639 51.3354C41.0551 50.5982 40.7784 50.5729 39.6239 51.1324C36.2385 52.7726 35.1388 57.0319 36.6906 62.4925C37.436 65.1148 37.7236 67.5256 37.7718 71.5466C37.8413 77.3927 38.0622 78.3172 41.1899 85.8426C42.1159 88.0704 43.1508 90.6437 43.4894 91.561C44.8482 95.2413 47.7579 102.637 50.3322 108.954C51.8273 112.624 54.4886 119.156 56.2462 123.469C58.0037 127.783 60.1585 132.877 61.0349 134.789C61.9118 136.701 62.6288 138.395 62.6288 138.553C62.6288 139.742 69.3505 153.272 71.4746 156.359C73.6724 159.552 77.0853 161.478 81.3108 161.907C83.6212 162.142 84.8201 161.968 87.7629 160.971C97.4137 157.702 103.293 150.025 102.748 141.404C102.502 137.516 100.221 132.777 95.6145 126.586C88.6942 117.284 87.0241 112.156 88.0959 103.502C88.6502 99.0288 89.8747 94.637 94.6823 79.8859C96.2256 75.1511 96.3911 74.137 96.3921 69.4022C96.393 63.1248 95.4755 58.1455 92.572 48.673C91.4071 44.8726 90.079 40.3694 89.6197 38.6658C85.6142 23.7937 85.0859 22.1043 83.9797 20.6299C82.286 18.3721 80.2064 17.6521 76.8176 18.1501Z" stroke="white" stroke-width="2"/>
    <path d="M247.998 88.9393C248.584 89.5251 248.584 90.4749 247.998 91.0607L238.452 100.607C237.866 101.192 236.917 101.192 236.331 100.607C235.745 100.021 235.745 99.0711 236.331 98.4853L244.816 90L236.331 81.5147C235.745 80.9289 235.745 79.9792 236.331 79.3934C236.917 78.8076 237.866 78.8076 238.452 79.3934L247.998 88.9393ZM207 88.5L246.937 88.5L246.938 91.5L207 91.5L207 88.5Z" fill="currentColor"/>
    <g filter="url(#filter1_d_809_238)">
        <circle cx="400.176" cy="37.4844" r="14" stroke="white" stroke-width="2" shape-rendering="crispEdges"/>
    </g>
    <path d="M389.569 26.8778C387.732 28.7145 386.404 30.9967 385.714 33.501C385.025 36.0052 384.997 38.6457 385.634 41.1639C386.271 43.6821 387.551 45.9916 389.349 47.8664C391.147 49.7412 393.401 51.117 395.89 51.8592C398.38 52.6013 401.019 52.6843 403.55 52.1C406.081 51.5157 408.417 50.2842 410.329 48.526C412.241 46.7679 413.664 44.5433 414.458 42.0701C415.252 39.597 415.39 36.96 414.859 34.4173L400.176 37.4844L389.569 26.8778Z" fill="white"/>
    <circle cx="363.125" cy="90.125" r="89.125" stroke="#C9C8D3" stroke-width="2"/>
    <path fill-rule="evenodd" clip-rule="evenodd" d="M365.95 18.1501C360.185 18.995 357.515 23.299 359.303 28.863C360.668 33.107 362.792 41.0351 362.984 42.5972C363.112 43.6398 363.001 44.3842 362.718 44.3842C362.258 44.3842 361.256 41.4406 359.557 35.0918C358.406 30.7939 357.929 29.7965 356.704 29.1385C355.03 28.2388 352.465 28.9073 351.032 30.6176C348.908 33.1528 348.938 33.6403 351.776 42.6896C352.265 44.2474 352.664 45.9272 352.664 46.4228C352.664 48.1174 351.504 46.9375 350.859 44.5867C348.755 36.9183 348.189 35.5936 346.817 35.1137C345.078 34.5052 342.394 35.8914 341.153 38.0392C340.287 39.5388 340.291 39.6098 341.544 43.9958C342.241 46.4371 342.904 49.1853 343.017 50.1026C343.207 51.6356 343.167 51.6999 342.525 50.8979C342.141 50.4176 341.569 48.9165 341.254 47.5622C340.458 44.1407 339.605 43.2753 337.328 43.5817C335.33 43.851 333.942 44.885 332.923 46.8631C332.33 48.0154 332.393 48.6639 333.514 52.9518C334.676 57.3969 334.746 59.0262 333.729 57.9335C333.501 57.689 332.976 56.2937 332.562 54.8327C332.147 53.3716 331.392 51.7981 330.883 51.3354C330.072 50.5982 329.794 50.5729 328.636 51.1324C325.239 52.7726 324.136 57.0319 325.693 62.4925C326.441 65.1148 326.729 67.5256 326.778 71.5466C326.847 77.3927 327.069 78.3172 330.207 85.8426C331.136 88.0704 332.174 90.6437 332.514 91.561C333.877 95.2413 336.796 102.637 339.379 108.954C340.879 112.624 343.549 119.156 345.312 123.469C347.075 127.783 349.237 132.877 350.116 134.789C350.996 136.701 351.715 138.395 351.715 138.553C351.715 139.742 358.459 153.272 360.59 156.359C362.795 159.552 366.219 161.478 370.458 161.907C372.776 162.142 373.979 161.968 376.931 160.971C386.614 157.702 392.512 150.025 391.965 141.404C391.719 137.516 389.43 132.777 384.809 126.586C377.866 117.284 376.19 112.156 377.265 103.502C377.822 99.0288 379.05 94.637 383.873 79.8859C385.422 75.1511 385.588 74.137 385.589 69.4022C385.59 63.1248 384.669 58.1455 381.756 48.673C380.587 44.8726 379.255 40.3694 378.794 38.6658C374.776 23.7937 374.246 22.1043 373.136 20.6299C371.437 18.3721 369.35 17.6521 365.95 18.1501Z" fill="currentColor" stroke="white" stroke-width="2"/>
    <circle cx="636.125" cy="90.125" r="89.125" stroke="#C9C8D3" stroke-width="2"/>
    <g filter="url(#filter2_d_809_238)">
        <circle cx="665.629" cy="37.4844" r="14.5" stroke="currentColor" shape-rendering="crispEdges"/>
    </g>
    <circle cx="665.629" cy="37.4844" r="15" fill="#C2E37D"/>
    <path d="M657.688 36.0683L665.629 42.9988L674.232 31.3076" stroke="white" stroke-width="5"/>
    <path fill-rule="evenodd" clip-rule="evenodd" d="M631.562 18.1501C625.71 18.995 623 23.299 624.815 28.863C626.2 33.107 628.356 41.0351 628.551 42.5972C628.681 43.6398 628.569 44.3842 628.281 44.3842C627.814 44.3842 626.797 41.4406 625.073 35.0918C623.905 30.7939 623.42 29.7965 622.178 29.1385C620.478 28.2388 617.875 28.9073 616.421 30.6176C614.265 33.1528 614.295 33.6403 617.176 42.6896C617.672 44.2474 618.077 45.9272 618.077 46.4228C618.077 48.1174 616.9 46.9375 616.245 44.5867C614.109 36.9183 613.536 35.5936 612.143 35.1137C610.378 34.5052 607.653 35.8914 606.394 38.0392C605.515 39.5388 605.52 39.6098 606.791 43.9958C607.498 46.4371 608.172 49.1853 608.286 50.1026C608.478 51.6356 608.438 51.6999 607.787 50.8979C607.397 50.4176 606.816 48.9165 606.497 47.5622C605.689 44.1407 604.823 43.2753 602.512 43.5817C600.484 43.851 599.075 44.885 598.042 46.8631C597.439 48.0154 597.503 48.6639 598.641 52.9518C599.82 57.3969 599.892 59.0262 598.859 57.9335C598.628 57.689 598.095 56.2937 597.675 54.8327C597.254 53.3716 596.487 51.7981 595.971 51.3354C595.147 50.5982 594.866 50.5729 593.69 51.1324C590.243 52.7726 589.123 57.0319 590.703 62.4925C591.462 65.1148 591.755 67.5256 591.804 71.5466C591.875 77.3927 592.1 78.3172 595.284 85.8426C596.227 88.0704 597.281 90.6437 597.626 91.561C599.01 95.2413 601.972 102.637 604.594 108.954C606.116 112.624 608.826 119.156 610.615 123.469C612.405 127.783 614.599 132.877 615.491 134.789C616.384 136.701 617.114 138.395 617.114 138.553C617.114 139.742 623.958 153.272 626.121 156.359C628.359 159.552 631.834 161.478 636.137 161.907C638.489 162.142 639.71 161.968 642.706 160.971C652.533 157.702 658.519 150.025 657.965 141.404C657.715 137.516 655.391 132.777 650.701 126.586C643.655 117.284 641.954 112.156 643.046 103.502C643.61 99.0288 644.857 94.637 649.752 79.8859C651.323 75.1511 651.492 74.137 651.493 69.4022C651.494 63.1248 650.56 58.1455 647.603 48.673C646.417 44.8726 645.065 40.3694 644.597 38.6658C640.519 23.7937 639.981 22.1043 638.854 20.6299C637.13 18.3721 635.012 17.6521 631.562 18.1501Z" fill="currentColor" stroke="white" stroke-width="2"/>
    <defs>
        <filter id="filter0_d_809_238" x="92" y="18" width="38" height="38" filterUnits="userSpaceOnUse" color-interpolation-filters="sRGB">
            <feFlood flood-opacity="0" result="BackgroundImageFix"/>
            <feColorMatrix in="SourceAlpha" type="matrix" values="0 0 0 0 0 0 0 0 0 0 0 0 0 0 0 0 0 0 127 0" result="hardAlpha"/>
            <feOffset dy="4"/>
            <feGaussianBlur stdDeviation="2"/>
            <feComposite in2="hardAlpha" operator="out"/>
            <feColorMatrix type="matrix" values="0 0 0 0 0 0 0 0 0 0 0 0 0 0 0 0 0 0 0.25 0"/>
            <feBlend mode="normal" in2="BackgroundImageFix" result="effect1_dropShadow_809_238"/>
            <feBlend mode="normal" in="SourceGraphic" in2="effect1_dropShadow_809_238" result="shape"/>
        </filter>
        <filter id="filter1_d_809_238" x="381.176" y="22.4844" width="38" height="38" filterUnits="userSpaceOnUse" color-interpolation-filters="sRGB">
            <feFlood flood-opacity="0" result="BackgroundImageFix"/>
            <feColorMatrix in="SourceAlpha" type="matrix" values="0 0 0 0 0 0 0 0 0 0 0 0 0 0 0 0 0 0 127 0" result="hardAlpha"/>
            <feOffset dy="4"/>
            <feGaussianBlur stdDeviation="2"/>
            <feComposite in2="hardAlpha" operator="out"/>
            <feColorMatrix type="matrix" values="0 0 0 0 0 0 0 0 0 0 0 0 0 0 0 0 0 0 0.25 0"/>
            <feBlend mode="normal" in2="BackgroundImageFix" result="effect1_dropShadow_809_238"/>
            <feBlend mode="normal" in="SourceGraphic" in2="effect1_dropShadow_809_238" result="shape"/>
        </filter>
        <filter id="filter2_d_809_238" x="646.629" y="22.4844" width="38" height="38" filterUnits="userSpaceOnUse" color-interpolation-filters="sRGB">
            <feFlood flood-opacity="0" result="BackgroundImageFix"/>
            <feColorMatrix in="SourceAlpha" type="matrix" values="0 0 0 0 0 0 0 0 0 0 0 0 0 0 0 0 0 0 127 0" result="hardAlpha"/>
            <feOffset dy="4"/>
            <feGaussianBlur stdDeviation="2"/>
            <feComposite in2="hardAlpha" operator="out"/>
            <feColorMatrix type="matrix" values="0 0 0 0 0 0 0 0 0 0 0 0 0 0 0 0 0 0 0.25 0"/>
            <feBlend mode="normal" in2="BackgroundImageFix" result="effect1_dropShadow_809_238"/>
            <feBlend mode="normal" in="SourceGraphic" in2="effect1_dropShadow_809_238" result="shape"/>
        </filter>
    </defs>
</svg>
